<svg xmlns="http://www.w3.org/2000/svg" width="100" height="100" viewBox="0 0 100 100">
  <path id="Icon_awesome-buromobelexperte" data-name="Icon awesome-buromobelexperte" d="M0,2.25V30.821H28.571V2.25ZM26.786,29.036h-25v-25h25ZM35.714,2.25V30.821H64.286V2.25ZM62.5,29.036h-25v-25h25ZM71.429,2.25V30.821H100V2.25ZM98.214,29.036h-25v-25h25ZM0,37.964V66.536H28.571V37.964ZM26.786,64.75h-25v-25h25Zm8.929-26.786V66.536H64.286V37.964ZM62.5,64.75h-25v-25h25Zm8.929-26.786V66.536H100V37.964ZM98.214,64.75h-25v-25h25ZM0,73.679V102.25H28.571V73.679Zm26.786,26.786h-25v-25h25Zm8.929-26.786V102.25H64.286V73.679ZM62.5,100.464h-25v-25h25Zm8.929-26.786V102.25H100V73.679Z" transform="translate(0 -2.25)" fill="#3aa935"/>
</svg>
