<svg xmlns="http://www.w3.org/2000/svg" width="42.901" height="43.496" viewBox="0 0 42.901 43.496">
  <g id="age_1_" data-name="age (1)" transform="translate(0 -0.321)">
    <g id="Group_10997" data-name="Group 10997" transform="translate(0 0.321)">
      <g id="Group_10995" data-name="Group 10995">
        <path id="Path_5714" data-name="Path 5714" d="M39.679,21.917a19.412,19.412,0,0,1-1.033,6.272c-2.527,7.416-7.486,13.565-17.507,13.565C9.611,41.754,2.6,34.493,2.6,21.917A18.778,18.778,0,0,1,21.138,2.909a18.778,18.778,0,0,1,18.54,19.008Z" transform="translate(0 -0.321)" fill="#fdfdfd"/>
        <path id="Path_5715" data-name="Path 5715" d="M21.138,25.987c-9.956,0-18.079-5.118-18.52-11.539-.013.183-.02.366-.02.551,0,6.677,8.3,12.089,18.54,12.089S39.678,21.676,39.678,15c0-.185-.007-.368-.02-.551-.442,6.421-8.564,11.539-18.52,11.539Z" transform="translate(0 13.817)" fill="#ededed"/>
        <path id="Path_5716" data-name="Path 5716" d="M20.989,43.243C30.08,43.243,39,36.256,40.739,28h-3.09a.426.426,0,0,0-.4.295A17.34,17.34,0,0,1,20.989,40.22c-9.54,0-17.273-8.063-17.273-18.01,0-9.963,7.7-18,17.251-18.01,8.853-.012,16.154,6.92,17.173,15.861H37.045a.394.394,0,0,0-.274.66l2.74,3.04a.365.365,0,0,0,.548,0l2.74-3.04a.394.394,0,0,0-.274-.66h-.643C40.848,9,31.912.344,21.033.321,9.713.3.428,9.691.011,21.39c0,12.378,9.647,21.853,20.978,21.853Z" transform="translate(0 -0.321)" fill="#3aa935"/>
        <g id="Group_10994" data-name="Group 10994" transform="translate(0 28.267)">
          <path id="Path_5717" data-name="Path 5717" d="M21.266,28.578C9.788,28.578.436,22.3.016,14.449.007,14.632,0,14.816,0,15c0,8.107,9.521,14.679,21.266,14.679,9.618,0,17.743-4.408,20.371-10.456.073-.169-.11-.339-.365-.339C38.314,24.537,30.474,28.578,21.266,28.578Z" transform="translate(0 -14.449)" fill="#c7c7c7"/>
        </g>
      </g>
      <g id="Group_10996" data-name="Group 10996" transform="translate(11.132 18.513)">
        <path id="Path_5718" data-name="Path 5718" d="M5.971,18.49a.459.459,0,0,0,.593-.266L7,17.07H9.931l.435,1.152a.46.46,0,1,0,.86-.325l-2.2-5.821,0-.013a.591.591,0,0,0-.549-.368h0a.592.592,0,0,0-.549.369l0,.01L5.705,17.9a.46.46,0,0,0,.266.593Zm2.5-5.28,1.11,2.941H7.354Z" transform="translate(-5.675 -11.697)" fill="#3aa935"/>
        <path id="Path_5719" data-name="Path 5719" d="M21.8,12.643a.46.46,0,1,0,0-.919H19.332a.46.46,0,0,0-.46.46v5.85a.46.46,0,0,0,.46.46H21.8a.46.46,0,0,0,0-.919H19.792V15.568h1.823a.46.46,0,1,0,0-.919H19.792V12.643H21.8Z" transform="translate(-5.675 -11.697)" fill="#3aa935"/>
        <path id="Path_5720" data-name="Path 5720" d="M14.933,12.616a2.479,2.479,0,0,1,1.393.425.46.46,0,0,0,.515-.762,3.412,3.412,0,1,0-1.908,6.24c1.771,0,3.008-1.4,3.008-3.412a.46.46,0,0,0-.46-.46H15.716a.46.46,0,1,0,0,.919H17A2.062,2.062,0,0,1,14.934,17.6a2.492,2.492,0,1,1,0-4.984Z" transform="translate(-5.675 -11.697)" fill="#3aa935"/>
      </g>
    </g>
  </g>
</svg>
