<svg xmlns="http://www.w3.org/2000/svg" width="57.248" height="23.999" viewBox="0 0 57.248 23.999">
  <g id="Icon_feather-arrow-right" data-name="Icon feather-arrow-right" transform="translate(-6 -6)">
    <g id="Group_11478" data-name="Group 11478">
      <path id="Union_8" data-name="Union 8" d="M21401.455,14989.193a1.5,1.5,0,0,1,0-2.123l7.943-7.938h-50.627a1.5,1.5,0,0,1,0-3h50.621l-7.937-7.937a1.5,1.5,0,0,1,2.123-2.118l10.469,10.47a1.492,1.492,0,0,1,.473,1.091,1.472,1.472,0,0,1-.484,1.1l-10.457,10.464a1.514,1.514,0,0,1-2.123,0Z" transform="translate(-21351.271 -14959.629)" fill="#fff"/>
    </g>
  </g>
</svg>
