<svg xmlns="http://www.w3.org/2000/svg" width="18.355" height="22" viewBox="0 0 18.355 22">
  <g id="_007-user-2" data-name="007-user-2" transform="translate(0)">
    <path id="Path_5737" data-name="Path 5737" d="M14.337,5.3a5.128,5.128,0,0,1-1.552,3.747A5.127,5.127,0,0,1,9.039,10.6h0A5.128,5.128,0,0,1,5.292,9.045,5.127,5.127,0,0,1,3.74,5.3,5.126,5.126,0,0,1,5.292,1.552,5.126,5.126,0,0,1,9.036,0h0a5.129,5.129,0,0,1,3.747,1.552A5.127,5.127,0,0,1,14.337,5.3Zm0,0" fill="#3aa935"/>
    <path id="Path_5738" data-name="Path 5738" d="M18.355,18.216A3.652,3.652,0,0,1,17.27,20.98a3.906,3.906,0,0,1-2.8,1.02H3.881a3.9,3.9,0,0,1-2.8-1.02A3.652,3.652,0,0,1,0,18.216c0-.442.015-.879.044-1.3a13.007,13.007,0,0,1,.178-1.391,10.973,10.973,0,0,1,.342-1.4,6.931,6.931,0,0,1,.575-1.3A4.935,4.935,0,0,1,2,11.7a3.821,3.821,0,0,1,1.245-.782,4.3,4.3,0,0,1,1.589-.287,1.61,1.61,0,0,1,.861.365c.262.171.564.366.9.579a5.125,5.125,0,0,0,1.16.511,4.626,4.626,0,0,0,1.279.227l.14,0a4.615,4.615,0,0,0,1.42-.229,5.125,5.125,0,0,0,1.161-.511c.337-.215.639-.41.9-.578a1.608,1.608,0,0,1,.861-.365,4.306,4.306,0,0,1,1.589.287,3.824,3.824,0,0,1,1.245.782,4.917,4.917,0,0,1,.866,1.129,6.907,6.907,0,0,1,.575,1.3,10.964,10.964,0,0,1,.342,1.4,13.129,13.129,0,0,1,.178,1.39c.03.419.044.856.045,1.3Zm0,0" fill="#efefef"/>
    <path id="Path_5739" data-name="Path 5739" d="M9.039,10.6h0V0h0a5.129,5.129,0,0,1,3.747,1.552A5.127,5.127,0,0,1,14.337,5.3a5.128,5.128,0,0,1-1.552,3.747A5.127,5.127,0,0,1,9.039,10.6Zm0,0" fill="#3aa935"/>
    <path id="Path_5740" data-name="Path 5740" d="M18.355,18.216A3.652,3.652,0,0,1,17.27,20.98a3.906,3.906,0,0,1-2.8,1.02H9.036V12.309l.14,0a4.615,4.615,0,0,0,1.42-.229,5.125,5.125,0,0,0,1.161-.511c.337-.215.639-.41.9-.578a1.608,1.608,0,0,1,.861-.365,4.306,4.306,0,0,1,1.589.287,3.824,3.824,0,0,1,1.245.782,4.917,4.917,0,0,1,.866,1.129,6.907,6.907,0,0,1,.575,1.3,10.964,10.964,0,0,1,.342,1.4,13.129,13.129,0,0,1,.178,1.39c.03.419.044.856.045,1.3Zm0,0" fill="#c7c7c7"/>
  </g>
</svg>
