<svg xmlns="http://www.w3.org/2000/svg" width="41" height="40.887" viewBox="0 0 41 40.887">
  <path id="Icon_map-bus-station" data-name="Icon map-bus-station" d="M39.157,20.454H7.9a1.572,1.572,0,0,1-1.661-1.4,1.546,1.546,0,0,1,.058-.378L7.96,8.936C8.1,8.3,8.781,8.18,9.594,8.18H37.467c.807,0,1.493.114,1.632.744l1.663,9.914a1.233,1.233,0,0,1,.059.308,1.509,1.509,0,0,1-1.664,1.308Zm-1.251,10.92a2.937,2.937,0,0,1-3.187-2.609,2.936,2.936,0,0,1,3.187-2.6,2.934,2.934,0,0,1,3.178,2.6A2.936,2.936,0,0,1,37.907,31.373Zm-28.8,0a2.934,2.934,0,0,1-3.176-2.609,2.932,2.932,0,0,1,3.176-2.6,2.936,2.936,0,0,1,3.19,2.6A2.937,2.937,0,0,1,9.108,31.373ZM14.594,2.452H34.118V4.906H14.594A1.247,1.247,0,1,1,14.594,2.452ZM42.125,6.207c-.57-2.3-2.235-3.229-4.952-4.155A52.807,52.807,0,0,0,23.449.023,53.189,53.189,0,0,0,9.67,2.052c-2.716.927-4.354,1.853-4.919,4.155L2.88,19.021v17.8H5.809v1.637a2.441,2.441,0,1,0,4.881,0V36.819h24.4v1.637c0,3.273,5.857,3.273,5.857,0V36.819H43.88v-17.8L42.125,6.207Z" transform="translate(-2.88 -0.023)" fill="#3aa935"/>
</svg>
