<svg xmlns="http://www.w3.org/2000/svg" width="22" height="20" viewBox="0 0 22 20">
  <path id="Union_10" data-name="Union 10" d="M3,20a3,3,0,0,1-3-3V5A3,3,0,0,1,3,2H4V1A1,1,0,0,1,6,1V2H16V1a1,1,0,1,1,2,0V2h1a3,3,0,0,1,3,3V17a3,3,0,0,1-3,3ZM2,17a1,1,0,0,0,1,1H19a1,1,0,0,0,1-1V8H2ZM2,5V6H20V5a1,1,0,0,0-1-1H3A1,1,0,0,0,2,5Zm7.8,8a.8.8,0,0,1-.8-.8V10.8a.8.8,0,0,1,.8-.8h1.4a.8.8,0,0,1,.8.8v1.4a.8.8,0,0,1-.8.8Zm-5,0a.8.8,0,0,1-.8-.8V10.8a.8.8,0,0,1,.8-.8H6.2a.8.8,0,0,1,.8.8v1.4a.8.8,0,0,1-.8.8Z" fill="#3aa935"/>
</svg>
