<svg xmlns="http://www.w3.org/2000/svg" width="22" height="15.381" viewBox="0 0 22 15.381">
  <g id="euro_1_" data-name="euro (1)" transform="translate(0 -3.31)">
    <g id="Group_11027" data-name="Group 11027">
      <path id="Path_5771" data-name="Path 5771" d="M21.575,14.305v2.427c0,.832-2.2,1.516-4.906,1.516s-4.885-.666-4.885-1.5l0-.272-.031-1.928h0c.386.714,2.4,1.262,4.828,1.262,2.7,0,4.95-.675,4.95-1.507Z" fill="#d3d3d3"/>
      <path id="Path_5772" data-name="Path 5772" d="M21.575,11.918v2.387h-.044c0,.832-2.243,1.507-4.95,1.507-2.427,0-4.442-.548-4.828-1.262h0l-.009-.513-.031-2.02c.241.762,2.331,1.362,4.871,1.362,2.663,0,4.9-.653,4.963-1.472Z" fill="#d3d3d3"/>
    </g>
    <path id="Path_5773" data-name="Path 5773" d="M11.71,12.023a.424.424,0,0,1-.022-.149.451.451,0,0,1,.026-.153c.25-.753,2.3-1.345,4.81-1.354h.057c2.7,0,4.968.675,4.968,1.507a.085.085,0,0,1,0,.035c-.066.819-2.3,1.472-4.963,1.472C14.04,13.385,11.951,12.79,11.71,12.023Z" fill="#fff"/>
    <g id="Group_11028" data-name="Group 11028">
      <path id="Path_5774" data-name="Path 5774" d="M16.524,10.31v.061c-2.506.009-4.565.6-4.81,1.354l-.21-.105c-.5,0-.977-.022-1.428-.066l-.114.022A4.8,4.8,0,0,0,8.376,8.9l.039-.044a13.105,13.105,0,0,0,3.088.342c2.7,0,4.968-.679,4.968-1.511h.053V10.31Z" fill="#d3d3d3"/>
      <path id="Path_5775" data-name="Path 5775" d="M16.524,5.259V7.682h-.053c0,.832-2.265,1.511-4.968,1.511a12.878,12.878,0,0,1-3.088-.342L8.376,8.9a4.829,4.829,0,0,0-1.7-.942l.013-.044L6.624,5.355c.166.789,2.291,1.411,4.885,1.411,2.7,0,4.963-.675,4.968-1.507Z" fill="#d3d3d3"/>
    </g>
    <path id="Path_5776" data-name="Path 5776" d="M16.472,5.25h0c0,.837-2.265,1.511-4.968,1.511-2.593,0-4.714-.622-4.885-1.411a.4.4,0,0,1-.013-.1c0-.832,2.19-1.507,4.893-1.507S16.472,4.422,16.472,5.25Z" fill="#fff"/>
    <g id="Group_11029" data-name="Group 11029">
      <path id="Path_5777" data-name="Path 5777" d="M11.753,14.555l.031,1.928-.241,0a12.614,12.614,0,0,1-3-.324L8.485,16.1a4.816,4.816,0,0,0,1.358-2.129h.118a14.519,14.519,0,0,0,1.546.074l.237,0Z" fill="#d3d3d3"/>
      <path id="Path_5778" data-name="Path 5778" d="M11.71,12.023l.031,2.02-.237,0c-.539,0-1.06-.026-1.546-.074H9.839a4.8,4.8,0,0,0,.215-1.428,5,5,0,0,0-.1-.968l.114-.022c.451.044.933.066,1.428.066l.21.105a.47.47,0,0,0-.026.153A.559.559,0,0,0,11.71,12.023Z" fill="#d3d3d3"/>
    </g>
    <path id="Path_5779" data-name="Path 5779" d="M9.957,11.576a5,5,0,0,1,.1.968,4.756,4.756,0,1,1-.1-.968Z" fill="#fff"/>
    <path id="Path_5780" data-name="Path 5780" d="M20.208,10.389a12.5,12.5,0,0,0-3.242-.456V5.259A.426.426,0,0,0,16.875,5c-.145-.508-.732-.92-1.748-1.227A13.042,13.042,0,0,0,11.5,3.31a12.661,12.661,0,0,0-3.588.46c-.793.245-1.744.7-1.744,1.485a.678.678,0,0,0,.013.145l.048,1.993a5.244,5.244,0,1,0,2.322,9.221,13.028,13.028,0,0,0,2.808.307c.223,1.213,2.852,1.77,5.305,1.77a12.559,12.559,0,0,0,3.592-.469c.8-.245,1.744-.705,1.744-1.489V11.918a.439.439,0,0,0-.031-.171C21.895,11.177,21.308,10.722,20.208,10.389ZM7.119,7.642,7.088,6.407a4.919,4.919,0,0,0,.946.364,12.948,12.948,0,0,0,3.474.425,12.987,12.987,0,0,0,3.623-.46,4.939,4.939,0,0,0,.964-.39V7.467a.346.346,0,0,0-.057.21c0,.057-.206.359-1.161.648A12.231,12.231,0,0,1,11.5,8.75a12.533,12.533,0,0,1-2.983-.329c-.013,0-.022,0-.035-.009A5.386,5.386,0,0,0,7.119,7.642ZM11.5,9.631a13.042,13.042,0,0,0,3.627-.46,4.89,4.89,0,0,0,.959-.39V9.942c-1.884.057-3.829.451-4.547,1.244H11.5c-.421,0-.828-.018-1.2-.044a5.144,5.144,0,0,0-.784-1.63A17.09,17.09,0,0,0,11.5,9.631Zm-1.038,2.392c.258.018.526.026.8.031,0,.009,0,.022,0,.031l.026,1.52q-.467-.007-.907-.039a5.35,5.35,0,0,0,.1-1.025A4.116,4.116,0,0,0,10.466,12.023Zm-.32,2.405c.372.031.767.053,1.17.057v.079l.022,1.485A13.319,13.319,0,0,1,9.3,15.874,5.281,5.281,0,0,0,10.146,14.428Zm2.041-.013-.009-.377-.018-1a5.367,5.367,0,0,0,1,.381,13.2,13.2,0,0,0,3.417.412,13.112,13.112,0,0,0,3.579-.447A4.888,4.888,0,0,0,21.124,13v1.126c0,.057-.039.123-.039.188s-.2.359-1.148.648a12.1,12.1,0,0,1-3.36.421C14.176,15.374,12.546,14.835,12.187,14.415Zm8.924-2.541v0c0,.066-.223.368-1.2.657a12.18,12.18,0,0,1-3.334.412,12.368,12.368,0,0,1-3.18-.377,2.314,2.314,0,0,1-1.257-.64c0-.026-.009-.048-.013-.074.044-.123.364-.407,1.262-.661a12.027,12.027,0,0,1,3.137-.372h.057a12.277,12.277,0,0,1,3.373.416C20.879,11.515,21.1,11.8,21.111,11.874ZM8.174,4.606A11.833,11.833,0,0,1,11.5,4.181a12.253,12.253,0,0,1,3.373.425c.951.289,1.157.587,1.157.648s-.206.364-1.161.648a12.366,12.366,0,0,1-3.369.425,12.028,12.028,0,0,1-3.229-.394c-.942-.272-1.2-.574-1.227-.67,0-.009,0-.013,0-.013h0C7.049,5.189,7.25,4.891,8.174,4.606Zm.013,11.166a4.367,4.367,0,1,1-2.939-7.6,4.491,4.491,0,0,1,1.3.193,4.4,4.4,0,0,1,2.988,3.29,4.651,4.651,0,0,1,.088.881,4.308,4.308,0,0,1-.2,1.3A4.37,4.37,0,0,1,8.188,15.773ZM20,17.385a11.718,11.718,0,0,1-3.334.429,11.921,11.921,0,0,1-3.325-.416c-.929-.285-1.117-.578-1.117-.644v-.009l-.018-1.266a10.71,10.71,0,0,0,4.376.771,12.922,12.922,0,0,0,3.614-.46,5.124,5.124,0,0,0,.933-.386v1.327C21.128,16.794,20.931,17.1,20,17.385Z" fill="#3aa935"/>
    <path id="Path_5781" data-name="Path 5781" d="M6.865,14.625a2.239,2.239,0,0,1-2.383-.513,1.448,1.448,0,0,1-.311-.4H6.422a.438.438,0,1,0,0-.876H3.855a2.136,2.136,0,0,1-.013-.482H6.654a.438.438,0,1,0,0-.876H4.1a2.664,2.664,0,0,1,.381-.517,2.234,2.234,0,0,1,2.383-.5.437.437,0,0,0,.315-.815,3.112,3.112,0,0,0-3.321.705,2.977,2.977,0,0,0-.723,1.135H2.519a.438.438,0,0,0,0,.876h.438a2.852,2.852,0,0,0,.009.482H2.519a.438.438,0,0,0,0,.876h.67a2.945,2.945,0,0,0,.675,1.021,3.109,3.109,0,0,0,3.316.71.441.441,0,0,0-.315-.824Z" fill="#3aa935"/>
  </g>
</svg>
