<svg xmlns="http://www.w3.org/2000/svg" width="39.951" height="42" viewBox="0 0 39.951 42">
  <g id="electric-stove_2_" data-name="electric-stove (2)" transform="translate(-1.025)">
    <g id="Group_10978" data-name="Group 10978">
      <path id="Path_5699" data-name="Path 5699" d="M11.591,36.932a2.678,2.678,0,1,0,2.678-2.678A2.681,2.681,0,0,0,11.591,36.932Zm4.126,0a1.448,1.448,0,1,1-1.448-1.448A1.449,1.449,0,0,1,15.717,36.932Z" fill="#3aa935"/>
      <path id="Path_5700" data-name="Path 5700" d="M3.5,35.935a1.846,1.846,0,1,0,1.846-1.846A1.848,1.848,0,0,0,3.5,35.935Zm2.461,0a.615.615,0,1,1-.615-.615A.616.616,0,0,1,5.956,35.935Z" fill="#3aa935"/>
      <path id="Path_5701" data-name="Path 5701" d="M10.253,19.849a4.016,4.016,0,1,0,4.016-4.016A4.021,4.021,0,0,0,10.253,19.849Zm6.8,0a2.786,2.786,0,1,1-2.786-2.786A2.789,2.789,0,0,1,17.055,19.849Z" fill="#3aa935"/>
      <path id="Path_5702" data-name="Path 5702" d="M14.269,9.814a.615.615,0,0,0-.615.615v.2a9.258,9.258,0,0,0-8.609,8.609h-.2a.615.615,0,0,0,0,1.23h.2a9.258,9.258,0,0,0,8.609,8.608v.2a.615.615,0,0,0,1.23,0v-.2a9.258,9.258,0,0,0,8.609-8.608h.2a.615.615,0,0,0,0-1.23h-.2a9.258,9.258,0,0,0-8.609-8.609v-.2A.615.615,0,0,0,14.269,9.814Zm7.991,9.42h-.152a.615.615,0,0,0,0,1.23h.152a8.027,8.027,0,0,1-7.376,7.376v-.152a.615.615,0,0,0-1.23,0v.152a8.027,8.027,0,0,1-7.376-7.376H6.43a.615.615,0,0,0,0-1.23H6.278a8.027,8.027,0,0,1,7.376-7.376v.152a.615.615,0,0,0,1.23,0v-.152a8.027,8.027,0,0,1,7.376,7.376Z" fill="#3aa935"/>
      <path id="Path_5703" data-name="Path 5703" d="M38.789,21.787h-.322V2.709a2.709,2.709,0,0,0-5.417,0V15.24a1.479,1.479,0,0,1-2.957,0V2.709a2.709,2.709,0,1,0-5.417,0V6.6H9.862a.615.615,0,0,0,0,1.23H26.078a.205.205,0,0,1,.205.205V31.863H2.255V8.04a.205.205,0,0,1,.205-.205H6.991a.615.615,0,0,0,0-1.23H2.46A1.437,1.437,0,0,0,1.025,8.04V40.564A1.437,1.437,0,0,0,2.46,42H19.538a.615.615,0,0,0,0-1.23H2.46a.205.205,0,0,1-.205-.205V33.093H26.283v7.471a.205.205,0,0,1-.205.205H22.409a.615.615,0,1,0,0,1.23h3.669a1.437,1.437,0,0,0,1.436-1.436V8.04A1.437,1.437,0,0,0,26.078,6.6h-.172v-3.9a1.478,1.478,0,0,1,2.956,0V15.24a2.709,2.709,0,0,0,5.418,0V2.709a1.478,1.478,0,0,1,2.956,0V21.787h-.322a2.189,2.189,0,0,0-2.186,2.186v1.709a1.166,1.166,0,0,0,1.065,1.16v1.074a.615.615,0,1,0,1.23,0V26.847h1.655v1.069a.615.615,0,1,0,1.23,0V26.842a1.166,1.166,0,0,0,1.066-1.16V23.973A2.189,2.189,0,0,0,38.789,21.787Zm.956,3.829H35.959V23.973a.957.957,0,0,1,.956-.956h1.874a.957.957,0,0,1,.956.956Z" fill="#3aa935"/>
    </g>
  </g>
</svg>
