<svg id="elevator_1_" data-name="elevator (1)" xmlns="http://www.w3.org/2000/svg" width="42" height="42" viewBox="0 0 42 42">
  <g id="Group_10980" data-name="Group 10980">
    <g id="Group_10979" data-name="Group 10979">
      <path id="Path_5704" data-name="Path 5704" d="M41.087,0H.913A.913.913,0,0,0,0,.913V41.087A.913.913,0,0,0,.913,42h7.3a.913.913,0,0,0,.913-.913v-.913H32.87v.913a.913.913,0,0,0,.913.913h7.3A.913.913,0,0,0,42,41.087V.913A.913.913,0,0,0,41.087,0Zm-.913,40.174H34.7v-.913a.913.913,0,0,0-.913-.913H8.217a.913.913,0,0,0-.913.913v.913H1.826V1.826H40.174Z" fill="#3aa935"/>
    </g>
  </g>
  <g id="Group_10982" data-name="Group 10982">
    <g id="Group_10981" data-name="Group 10981">
      <path id="Path_5705" data-name="Path 5705" d="M33.783,9.13H8.217a.913.913,0,0,0-.913.913V39.261a.913.913,0,0,0,.913.913H33.783a.913.913,0,0,0,.913-.913V10.043A.913.913,0,0,0,33.783,9.13ZM32.87,38.348H9.13V10.957H32.87Z" fill="#3aa935"/>
    </g>
  </g>
  <g id="Group_10984" data-name="Group 10984">
    <g id="Group_10983" data-name="Group 10983">
      <path id="Path_5706" data-name="Path 5706" d="M21,9.13a.913.913,0,0,0-.913.913V39.261a.913.913,0,0,0,1.826,0V10.043A.913.913,0,0,0,21,9.13Z" fill="#3aa935"/>
    </g>
  </g>
  <g id="Group_10986" data-name="Group 10986">
    <g id="Group_10985" data-name="Group 10985">
      <circle id="Ellipse_46" data-name="Ellipse 46" cx="0.913" cy="0.913" r="0.913" transform="translate(36.522 18.261)" fill="#3aa935"/>
    </g>
  </g>
  <g id="Group_10988" data-name="Group 10988">
    <g id="Group_10987" data-name="Group 10987">
      <circle id="Ellipse_47" data-name="Ellipse 47" cx="0.913" cy="0.913" r="0.913" transform="translate(36.522 21.913)" fill="#3aa935"/>
    </g>
  </g>
  <g id="Group_10990" data-name="Group 10990">
    <g id="Group_10989" data-name="Group 10989">
      <path id="Path_5707" data-name="Path 5707" d="M17.994,5.747,16.168,3.921a.914.914,0,0,0-1.291,0L13.051,5.747a.913.913,0,1,0,1.291,1.291l1.18-1.182L16.7,7.038a.914.914,0,1,0,1.293-1.291Z" fill="#3aa935"/>
    </g>
  </g>
  <g id="Group_10992" data-name="Group 10992">
    <g id="Group_10991" data-name="Group 10991">
      <path id="Path_5708" data-name="Path 5708" d="M28.949,3.921a.914.914,0,0,0-1.291,0L26.478,5.1,25.3,3.921a.913.913,0,1,0-1.291,1.291l1.826,1.826a.915.915,0,0,0,1.291,0l1.826-1.826A.914.914,0,0,0,28.949,3.921Z" fill="#3aa935"/>
    </g>
  </g>
</svg>
