<svg xmlns="http://www.w3.org/2000/svg" width="17.395" height="18.35" viewBox="0 0 17.395 18.35">
  <path id="Icon_awesome-exchange-alt" data-name="Icon awesome-exchange-alt" d="M0,8.991V8.269c0-.6.359-1.083.8-1.083H12.812V5.02c0-.964.864-1.446,1.367-.766l2.669,3.61a1.368,1.368,0,0,1,0,1.532l-2.669,3.61c-.5.677-1.367.2-1.367-.766V10.075H.8C.359,10.075,0,9.59,0,8.991Zm16.283,6.86H4.271V13.685c0-.962-.863-1.448-1.367-.766L.235,16.529a1.368,1.368,0,0,0,0,1.532L2.9,21.672c.5.678,1.367.2,1.367-.766V18.74H16.283c.442,0,.8-.485.8-1.083v-.722C17.083,16.336,16.725,15.851,16.283,15.851Z" transform="matrix(1, 0.017, -0.017, 1, 0.383, -3.936)" fill="#fff"/>
</svg>
