<svg xmlns="http://www.w3.org/2000/svg" width="24.443" height="28.75" viewBox="0 0 24.443 28.75">
  <path id="Icon_metro-file-powerpoint" data-name="Icon metro-file-powerpoint" d="M25.932,8.3A3.737,3.737,0,0,1,26.7,9.519a3.728,3.728,0,0,1,.318,1.412V29.413a1.491,1.491,0,0,1-.446,1.091,1.467,1.467,0,0,1-1.082.449H4.1A1.467,1.467,0,0,1,3.016,30.5a1.491,1.491,0,0,1-.446-1.091V3.744a1.491,1.491,0,0,1,.446-1.091A1.467,1.467,0,0,1,4.1,2.2H18.357a3.649,3.649,0,0,1,1.4.321,3.7,3.7,0,0,1,1.209.77ZM18.866,4.385v6.032H24.85a1.757,1.757,0,0,0-.35-.658L19.519,4.738a1.734,1.734,0,0,0-.652-.353ZM24.977,28.9V12.471h-6.62a1.467,1.467,0,0,1-1.082-.449,1.491,1.491,0,0,1-.446-1.091V4.257H4.608V28.9h20.37ZM9.191,25.146v1.7h5.2v-1.7h-1.48V22.466h2.18a5.764,5.764,0,0,0,1.878-.241,3.164,3.164,0,0,0,1.695-1.4,4.4,4.4,0,0,0,.629-2.342,4.249,4.249,0,0,0-.589-2.262,3.423,3.423,0,0,0-1.591-1.4,5.717,5.717,0,0,0-2.069-.3H9.191v1.717h1.464v8.9H9.191Zm5.618-4.492H12.915v-4.3h1.91a2.606,2.606,0,0,1,1.321.289,1.968,1.968,0,0,1,.891,1.845,1.948,1.948,0,0,1-.987,1.925,2.825,2.825,0,0,1-1.241.241Z" transform="translate(-2.571 -2.203)" fill="#3aa935"/>
</svg>
