<svg xmlns="http://www.w3.org/2000/svg" width="38.387" height="31.379" viewBox="0 0 38.387 31.379">
  <g id="Group_11480" data-name="Group 11480" transform="translate(-8146.577 16198.143)">
    <path id="Union_11" data-name="Union 11" d="M7.459,28.906V26.214l-4.257.6h0L0,4.036,28.717,0l.83,5.906h6.911v23Zm27-3.2V7.907h-25v15.62l9.182-9.695,5.5,5.863,2.748-2.676ZM2.259,5.738,4.432,21.206l3.027-4.252V5.906H27.528l-.513-3.647Zm24.2,7.168a3,3,0,1,1,3,3A3,3,0,0,1,26.459,12.906Z" transform="matrix(0.998, 0.07, -0.07, 0.998, 8148.593, -16198.143)" fill="#707070"/>
  </g>
</svg>
