<svg xmlns="http://www.w3.org/2000/svg" width="24" height="17" viewBox="0 0 24 17">
  <path id="Icon_awesome-hand-point-right" data-name="Icon awesome-hand-point-right" d="M24,10.505a2.06,2.06,0,0,1-2.1,1.94H17.219a2.1,2.1,0,0,1-.3,3.141,1.968,1.968,0,0,1-.771,2.759c.421,2.176-1.029,3.155-3.4,3.155-.129,0-.622-.009-.75-.009-2.9.007-3.6-1.375-5.8-1.7a1.082,1.082,0,0,1-.95-1.049V11.152h0A2.123,2.123,0,0,1,6.584,9.211c1.354-.575,4.472-2.171,5.041-3.423A1.992,1.992,0,0,1,13.5,4.5a2.14,2.14,0,0,1,2.068,2.962,5.937,5.937,0,0,1-.663,1.1h7a2.094,2.094,0,0,1,2.1,1.94Zm-19.5.015v8.5a1.1,1.1,0,0,1-1.125,1.063H1.125A1.1,1.1,0,0,1,0,19.021v-8.5A1.1,1.1,0,0,1,1.125,9.458h2.25A1.1,1.1,0,0,1,4.5,10.521ZM3.188,17.958a.913.913,0,0,0-.937-.885.887.887,0,1,0,0,1.771A.913.913,0,0,0,3.188,17.958Z" transform="translate(0 -4.5)" fill="#3aa935"/>
</svg>
