<svg xmlns="http://www.w3.org/2000/svg" width="48.926" height="42.577" viewBox="0 0 48.926 42.577">
  <path id="Path_3266" data-name="Path 3266" d="M206.936-2208.215a12.136,12.136,0,0,1,2.028,2.625,12.153,12.153,0,0,1,1.214,2.965,12.384,12.384,0,0,1,.4,3.135,12.25,12.25,0,0,1-.4,3.123,12.192,12.192,0,0,1-1.214,2.953,12.138,12.138,0,0,1-2.028,2.625l-19.819,19.553L167.3-2190.79a12.138,12.138,0,0,1-2.028-2.625,12.192,12.192,0,0,1-1.214-2.953,12.251,12.251,0,0,1-.4-3.123,12.385,12.385,0,0,1,.4-3.135,12.153,12.153,0,0,1,1.214-2.965,12.135,12.135,0,0,1,2.028-2.625,12.6,12.6,0,0,1,4.055-2.671,12.466,12.466,0,0,1,4.766-.927,12.465,12.465,0,0,1,4.766.927,12.6,12.6,0,0,1,4.056,2.671l2.178,2.173,2.177-2.173a12.6,12.6,0,0,1,4.056-2.671,12.465,12.465,0,0,1,4.766-.927,12.465,12.465,0,0,1,4.766.927A12.6,12.6,0,0,1,206.936-2208.215Z" transform="translate(-162.654 2212.813)" fill="none" stroke="#3aa935" stroke-linejoin="round" stroke-width="2"/>
</svg>