<svg xmlns="http://www.w3.org/2000/svg" width="41" height="36" viewBox="0 0 41 36">
  <path id="Icon_awesome-hospital" data-name="Icon awesome-hospital" d="M41,34.594V36H0V34.594a1,1,0,0,1,1.1-.844h1.83V8.438a1.993,1.993,0,0,1,2.2-1.687h8.054V1.688A1.993,1.993,0,0,1,15.375,0h10.25a1.993,1.993,0,0,1,2.2,1.688V6.75h8.054a1.993,1.993,0,0,1,2.2,1.688V33.75H39.9A1,1,0,0,1,41,34.594ZM28.188,13.5H24.527a1,1,0,0,0-1.1.844v2.813a1,1,0,0,0,1.1.844h3.661a1,1,0,0,0,1.1-.844V14.344A1,1,0,0,0,28.188,13.5ZM12.813,18h3.661a1,1,0,0,0,1.1-.844V14.344a1,1,0,0,0-1.1-.844H12.813a1,1,0,0,0-1.1.844v2.813A1,1,0,0,0,12.813,18Zm9.518,9H18.67a1,1,0,0,0-1.1.844V33.75h5.857V27.844A1,1,0,0,0,22.33,27Zm5.857-6.75H24.527a1,1,0,0,0-1.1.844v2.813a1,1,0,0,0,1.1.844h3.661a1,1,0,0,0,1.1-.844V21.094A1,1,0,0,0,28.188,20.25Zm-10.616.844a1,1,0,0,0-1.1-.844H12.813a1,1,0,0,0-1.1.844v2.813a1,1,0,0,0,1.1.844h3.661a1,1,0,0,0,1.1-.844ZM16.656,6.75h2.379V8.578A.5.5,0,0,0,19.585,9h1.83a.5.5,0,0,0,.549-.422V6.75h2.379a.5.5,0,0,0,.549-.422V4.922a.5.5,0,0,0-.549-.422H21.964V2.672a.5.5,0,0,0-.549-.422h-1.83a.5.5,0,0,0-.549.422V4.5H16.656a.5.5,0,0,0-.549.422V6.328A.5.5,0,0,0,16.656,6.75Z" fill="#3aa935"/>
</svg>
