<svg xmlns="http://www.w3.org/2000/svg" width="21.461" height="33.085" viewBox="0 0 21.461 33.085">
  <g id="Group_11481" data-name="Group 11481" transform="translate(-5.813 -0.001)">
    <path id="Path_5951" data-name="Path 5951" d="M25.633,29.771H25.2V27.9a12.5,12.5,0,0,0-5.133-10.011,1.665,1.665,0,0,1,0-2.694A12.506,12.506,0,0,0,25.2,5.186V3.317h.437a1.658,1.658,0,0,0,0-3.315H7.454a1.658,1.658,0,0,0,0,3.315h.437V5.186A12.5,12.5,0,0,0,13.02,15.2a1.667,1.667,0,0,1,0,2.694A12.5,12.5,0,0,0,7.891,27.9v1.869H7.454a1.658,1.658,0,0,0,0,3.315H25.633a1.658,1.658,0,0,0,0-3.315ZM8.914,27.9a11.463,11.463,0,0,1,4.717-9.185,2.692,2.692,0,0,0,0-4.345A11.47,11.47,0,0,1,8.914,5.186V3.317h15.26V5.186a11.469,11.469,0,0,1-4.714,9.185,2.692,2.692,0,0,0,0,4.345A11.463,11.463,0,0,1,24.173,27.9V29.77H8.914Z" fill="#3aa935"/>
    <path id="Path_5952" data-name="Path 5952" d="M20.542,23.8a6.128,6.128,0,0,0-.666-.477,5.827,5.827,0,0,1-2.822-4.933v-3.7a1.436,1.436,0,0,1,.966-1.375,4.759,4.759,0,0,0,1.922-1.19c.212-.216.409-.442.6-.674h-8c.19.232.387.458.6.674a4.758,4.758,0,0,0,1.922,1.19,1.436,1.436,0,0,1,.966,1.375v3.7a5.826,5.826,0,0,1-2.822,4.933,6.121,6.121,0,0,0-.666.477,5.567,5.567,0,0,0-2.263,4.254v.316H22.805v-.316A5.567,5.567,0,0,0,20.542,23.8Z" fill="#3aa935"/>
  </g>
</svg>
