<svg xmlns="http://www.w3.org/2000/svg" width="32.137" height="26.119" viewBox="0 0 32.137 26.119">
  <g id="blueprint_1_" data-name="blueprint (1)" transform="translate(0 -2.949)">
    <g id="Group_10951" data-name="Group 10951" transform="translate(0 2.949)">
      <path id="Path_5666" data-name="Path 5666" d="M7.025,13.193a1.023,1.023,0,0,1,0,2.044H5.844v2.5H7.025a1.023,1.023,0,0,1,0,2.044H5.844v3.432H12.5V19.784H11.21a1.023,1.023,0,0,1,0-2.044h2.273a1,1,0,0,1,.981,1.022v4.454H17.3V20a1,1,0,0,1,.981-1.022,5.12,5.12,0,0,1,4.958,4.24h3.054V17.791H23.252a1,1,0,0,1-.981-1.022V15.237h-.129a1.023,1.023,0,0,1,0-2.044h1.11a1,1,0,0,1,.981,1.022v1.532h2.059V8.8H14.361v4.391h3.6a1.023,1.023,0,0,1,0,2.044H11.21a1.023,1.023,0,0,1,0-2.044H12.4V8.8H5.844v4.391Z" transform="translate(0 -2.949)" fill="#3aa935"/>
      <path id="Path_5667" data-name="Path 5667" d="M31.2,2.949H.942A.947.947,0,0,0,0,3.9V28.116a.947.947,0,0,0,.942.952H31.2a.947.947,0,0,0,.942-.952V3.9A.947.947,0,0,0,31.2,2.949ZM4.377,23.679V8.339a.947.947,0,0,1,.942-.952h21.5a.947.947,0,0,1,.942.952v15.34a.947.947,0,0,1-.942.952H22.1a.947.947,0,0,1-.942-.952,3,3,0,0,0-2.024-2.845v2.845a.947.947,0,0,1-.942.952H5.319A.947.947,0,0,1,4.377,23.679Z" transform="translate(0 -2.949)" fill="#3aa935"/>
    </g>
  </g>
</svg>