<svg xmlns="http://www.w3.org/2000/svg" width="88.922" height="88.195" viewBox="0 0 88.922 88.195">
  <g id="Group_11480" data-name="Group 11480" transform="translate(-1170.001 -801.805)">
    <g id="house-repair_1_1_" data-name="house-repair (1) (1)" transform="translate(1169.993 801.805)">
      <rect id="Rectangle_2490" data-name="Rectangle 2490" width="68" height="50" transform="translate(10.007 38.195)" fill="#efefef"/>
      <path id="Path_5681" data-name="Path 5681" d="M88.969,38.553H.047L44.565,0Zm0,0" transform="translate(-0.039)" fill="#3aa935"/>
    </g>
    <path id="Union_9" data-name="Union 9" d="M-4537.49,20266.4l1.833-5.437-4.486-1.545-1.676,4.975a7.288,7.288,0,0,1-.474-9.889,7.144,7.144,0,0,1,1.112-1.068v-23.445a7.276,7.276,0,0,1-2.687-7.139,7.185,7.185,0,0,1,7.034-5.854c.222,0,.438.012.653.031l-1.834,5.441,4.486,1.541,1.676-4.977a7.288,7.288,0,0,1,1.019,9.146,7.18,7.18,0,0,1-1.887,1.975v23.115q.085.059.168.123a7.273,7.273,0,0,1,2.516,8.078,7.166,7.166,0,0,1-6.8,4.959C-4537.053,20266.434-4537.271,20266.422-4537.49,20266.4Z" transform="translate(19111.934 -9620.711) rotate(47)" fill="#3aa935"/>
  </g>
</svg>
