<?xml version="1.0" encoding="utf-8"?>
<!-- Generator: Adobe Illustrator 24.0.1, SVG Export Plug-In . SVG Version: 6.00 Build 0)  -->
<svg version="1.1" id="Capa_1" xmlns="http://www.w3.org/2000/svg" xmlns:xlink="http://www.w3.org/1999/xlink" x="0px" y="0px"
	 viewBox="0 0 297 297" style="enable-background:new 0 0 297 297;" xml:space="preserve">
<style type="text/css">
	.st0{fill:#FFFFFF;}
</style>
<g>
	<path class="st0" d="M293,123.1l-44.3-33.2V64c0-5.6-4.6-10.1-10.2-10.1h-37.8l-46.1-34.6c-3.6-2.7-8.5-2.7-12.1,0L96.4,53.9H58.5
		c-5.6,0-10.2,4.5-10.2,10.1v26L4,123.1c-2.5,1.9-4,4.9-4,8.1v138.4c0,5.6,4.5,10.1,10.1,10.1h276.9c5.6,0,10.1-4.5,10.1-10.1V131.2
		C297,128,295.5,125,293,123.1z M20.1,147.5l63.9,32l-63.9,64.4C20.1,243.8,20.1,147.5,20.1,147.5z M103,188.9l41,20.5
		c1.4,0.7,3,1.1,4.5,1.1s3.1-0.4,4.5-1.1l41-20.5l70.2,70.7H32.8L103,188.9z M212.9,179.5l63.9-32v96.4L212.9,179.5z M267.9,129.5
		l-19.2,9.6v-24L267.9,129.5z M148.5,39.9l18.6,13.9h-37.2L148.5,39.9z M228.2,74v75.3l-79.7,39.9l-79.7-39.9V74H228.2z M48.3,139.1
		l-19.2-9.6l19.2-14.4V139.1z"/>
	<path class="st0" d="M113.9,124h69.2c5.6,0,10.1-4.5,10.1-10.1s-4.5-10.1-10.1-10.1h-69.2c-5.6,0-10.1,4.5-10.1,10.1
		C103.8,119.4,108.3,124,113.9,124z"/>
	<path class="st0" d="M113.9,158.6h69.2c5.6,0,10.1-4.5,10.1-10.1s-4.5-10.1-10.1-10.1h-69.2c-5.6,0-10.1,4.5-10.1,10.1
		S108.3,158.6,113.9,158.6z"/>
</g>
</svg>
