<svg id="Group_82" data-name="Group 82" xmlns="http://www.w3.org/2000/svg" xmlns:xlink="http://www.w3.org/1999/xlink" width="301.597" height="53.943" viewBox="0 0 301.597 53.943">
  <defs>
    <clipPath id="clip-path">
      <path id="Intersection_1" data-name="Intersection 1" d="M0,53.943V0H301.6V53.943Z" fill="#fff" />
    </clipPath>
    <clipPath id="clip-path-2">
      <path id="Path_3229" data-name="Path 3229" d="M-4213.211-635.431h301.6v-53.943h-301.6v53.943Z" transform="translate(4213.211 689.374)" fill="#fff" />
    </clipPath>
  </defs>
  <g id="Group_54" data-name="Group 54" transform="translate(0 0)" clip-path="url(#clip-path)">
    <g id="Group_53" data-name="Group 53" transform="translate(0 0)">
      <g id="Group_52" data-name="Group 52" clip-path="url(#clip-path-2)">
        <path id="Path_3218" data-name="Path 3218" d="M-4185.678-635h-25.193a1.445,1.445,0,0,1-1.562-1.275v-31.75a1.219,1.219,0,0,1,.508-.925l25.192-19.159a1.8,1.8,0,0,1,2.187.064,1.106,1.106,0,0,1-.077,1.785l-24.724,18.776v29.934h22.107v-5.2l-14.646-11.922a9.733,9.733,0,0,1-1.8-1.912,10.479,10.479,0,0,1-1.094-2.168,7.508,7.508,0,0,1-.351-2.3,7.813,7.813,0,0,1,.351-2.295,7.259,7.259,0,0,1,1.094-2.168,8.927,8.927,0,0,1,1.8-1.913,11.325,11.325,0,0,1,3.593-1.944,13.326,13.326,0,0,1,4.217-.669,13.154,13.154,0,0,1,4.219.669,11.992,11.992,0,0,1,3.593,1.944l1.68,1.371a1.126,1.126,0,0,1,0,1.785,1.846,1.846,0,0,1-2.187,0l-1.641-1.371a8.383,8.383,0,0,0-2.578-1.4,9.756,9.756,0,0,0-3.046-.478,9.749,9.749,0,0,0-3.047.478,7.958,7.958,0,0,0-2.578,1.4,7.563,7.563,0,0,0-1.289,1.371,5.448,5.448,0,0,0-.781,1.562,5.97,5.97,0,0,0-.272,1.658,4.766,4.766,0,0,0,.272,1.658,5.455,5.455,0,0,0,.781,1.562,6.655,6.655,0,0,0,1.289,1.37l15.076,12.3a1.231,1.231,0,0,1,.469.893v6.981a1.445,1.445,0,0,1-1.562,1.275Z" transform="translate(4212.823 688.828)" fill="#fff" />
        <path id="Path_3219" data-name="Path 3219" d="M-4126.519-634.973h-25.153a1.446,1.446,0,0,1-1.563-1.275,1.446,1.446,0,0,1,1.563-1.275h23.629v-29.934l-22.106-16.8v16.13a12.555,12.555,0,0,1,2.617-1.243,13.324,13.324,0,0,1,4.218-.669,13.157,13.157,0,0,1,4.218.669,12.016,12.016,0,0,1,3.593,1.945,9.033,9.033,0,0,1,1.8,1.944,8.784,8.784,0,0,1,1.093,2.168,7.614,7.614,0,0,1,.353,2.3,7.771,7.771,0,0,1-.353,2.3,7.6,7.6,0,0,1-1.093,2.168,8.9,8.9,0,0,1-1.8,1.912l-15.117,12.305a1.845,1.845,0,0,1-2.186,0,1.126,1.126,0,0,1,0-1.785l15.115-12.305a7.51,7.51,0,0,0,1.288-1.37,5.406,5.406,0,0,0,.782-1.562,5.951,5.951,0,0,0,.274-1.658,4.793,4.793,0,0,0-.274-1.658,5.4,5.4,0,0,0-.782-1.562,6.6,6.6,0,0,0-1.288-1.371,8.4,8.4,0,0,0-2.578-1.4,9.754,9.754,0,0,0-3.046-.478,9.742,9.742,0,0,0-3.046.478,7.942,7.942,0,0,0-2.578,1.4l-1.64,1.371a1.832,1.832,0,0,1-1.68.287,1.314,1.314,0,0,1-.978-1.18v-22.028a1.236,1.236,0,0,1,.939-1.148,1.947,1.947,0,0,1,1.678.223l25.155,19.159a1.17,1.17,0,0,1,.508.925v31.75a1.445,1.445,0,0,1-1.562,1.275Z" transform="translate(4183.27 688.802)" fill="#fff" />
        <path id="Path_3220" data-name="Path 3220" d="M-4054.715-611.472a31.286,31.286,0,0,1-.9-4.686,38.394,38.394,0,0,1-.9,4.686l-1.914,6.12c-.469,1.371-1.641,1.913-3.554,1.913-2.07,0-3.164-.829-3.711-2.295l-5.467-14.7a1.227,1.227,0,0,1-.079-.51c0-1.18,1.407-2.295,3.242-2.295a3.039,3.039,0,0,1,3.046,1.721l2.031,6.312a36.609,36.609,0,0,1,.938,5.834,49.5,49.5,0,0,1,1.094-5.834l1.874-6.089c.391-1.116,1.6-1.944,3.476-1.944,1.835,0,3.047.828,3.4,1.944l1.835,6.089c.547,1.913.742,3.921,1.133,5.865a37.536,37.536,0,0,1,.938-5.865l2.031-6.312a3.248,3.248,0,0,1,3.046-1.721c1.679,0,3.2.988,3.2,2.327,0,.032-.039.255-.039.382l-5.429,14.823c-.547,1.5-1.446,2.263-3.71,2.263-1.6,0-3.085-.7-3.515-1.913l-2.071-6.12Z" transform="translate(4142.323 650.446)" fill="#fff" />
        <path id="Path_3221" data-name="Path 3221" d="M-4002.98-610.776v-5.706c0-4.017,3.515-7.141,10.194-7.141s10.194,3.092,10.194,7.141v5.706c0,4.017-3.515,7.141-10.194,7.141-6.64,0-10.194-3.124-10.194-7.141Zm13.9,0v-5.738c0-1.562-1.25-2.582-3.71-2.582s-3.71.988-3.71,2.582v5.738c0,1.626,1.25,2.614,3.71,2.614s3.71-.988,3.71-2.614Z" transform="translate(4108.241 650.675)" fill="#fff" />
        <path id="Path_3222" data-name="Path 3222" d="M-3953.834-610.776v-5.706c0-4.017,3.515-7.141,10.2-7.141s10.193,3.092,10.193,7.141v5.706c0,4.017-3.516,7.141-10.193,7.141-6.641,0-10.2-3.124-10.2-7.141Zm13.905,0v-5.738c0-1.562-1.25-2.582-3.71-2.582s-3.712.988-3.712,2.582v5.738c0,1.626,1.25,2.614,3.712,2.614s3.71-.988,3.71-2.614Z" transform="translate(4083.701 650.675)" fill="#fff" />
        <path id="Path_3223" data-name="Path 3223" d="M-3897.268-605.844c0,1.307-1.094,2.327-3.241,2.327s-3.242-1.02-3.242-2.327v-11.6c0-1.275-.2-1.371-.391-1.594-.664-.733-.782-.988-.782-1.5,0-1.275,1.368-2.232,3.164-2.232a3.4,3.4,0,0,1,2.5,1.116,13.284,13.284,0,0,1,6.209-1.658c5.938,0,8.867,3,8.867,7.46v10.01c0,1.307-1.171,2.327-3.242,2.327s-3.241-1.02-3.241-2.327v-10.01a2.848,2.848,0,0,0-3.046-3.092,10.88,10.88,0,0,0-3.633.8,5.082,5.082,0,0,1,.079.733v11.572Z" transform="translate(4059.28 650.492)" fill="#fff" />
        <path id="Path_3224" data-name="Path 3224" d="M-3826.566-616.6a2.447,2.447,0,0,0-2.733-2.422,7,7,0,0,0-3.75,1.339,8.418,8.418,0,0,1,.078.988v10.679c0,1.307-1.094,2.327-3.242,2.327s-3.243-1.02-3.243-2.327v-9.914c0-1.754-.39-3.092-2.46-3.092a11.257,11.257,0,0,0-3.983.988,1.618,1.618,0,0,1,.039.414v11.6c0,1.307-1.094,2.327-3.242,2.327s-3.241-1.02-3.241-2.327v-11.6c0-1.275-.2-1.371-.391-1.594-.665-.733-.781-1.02-.781-1.466,0-1.371,1.445-2.263,3.046-2.263a3.235,3.235,0,0,1,2.5,1.084,14.224,14.224,0,0,1,6.328-1.689,9.614,9.614,0,0,1,5.429,1.689,16.583,16.583,0,0,1,7.109-1.689c5.545,0,8.983,2.773,8.983,6.854v10.679c0,1.307-1.094,2.327-3.241,2.327s-3.243-1.02-3.243-2.327V-616.6Z" transform="translate(4033.611 650.629)" fill="#fff" />
        <path id="Path_3225" data-name="Path 3225" d="M-3757.889-608.467c0,1.147.7,1.02,1.484,1.307a1.377,1.377,0,0,1,1.094,1.466c0,1.211-.9,2.008-3.4,2.008a4.73,4.73,0,0,1-3.984-1.594,10.882,10.882,0,0,1-6.327,1.721c-5.429,0-8.358-2.422-8.358-6.057v-.16c0-3.921,3.085-5.865,9.3-5.865a14.5,14.5,0,0,1,3.71.383v-1.212c0-1.817-1.172-2.646-3.554-2.646a7.7,7.7,0,0,0-3.047.606,4.742,4.742,0,0,1-1.8.382c-1.953,0-2.734-1.275-2.734-2.231,0-2.263,4.14-3.188,8.047-3.188,6.8,0,9.569,2.773,9.569,7.937v7.141Zm-13.045-1.275v.127c0,1.275.9,1.753,2.929,1.753a6.652,6.652,0,0,0,3.672-.988v-2.774a22.094,22.094,0,0,0-3.32-.318c-2.773.032-3.281,1.052-3.281,2.2Z" transform="translate(3995.594 650.629)" fill="#fff" />
        <path id="Path_3226" data-name="Path 3226" d="M-3726.205-634.545c0-1.307,1.172-2.327,3.241-2.327s3.242,1.084,3.242,2.327v4.24h3.477c1.718,0,3.085.988,3.085,2.3s-1.367,2.263-3.085,2.263h-3.477v5.8c0,2.837.274,3.825,2.539,3.825.429,0,.7-.032.781-.032,2.969,0,3.866.638,3.866,2.073,0,2.231-2.148,2.518-4.491,2.518-7.265,0-9.14-2.9-9.14-8.129v-14.855Z" transform="translate(3970.043 658.473)" fill="#fff" />
        <path id="Path_3227" data-name="Path 3227" d="M-3693.636-615.9c0-4.112,3.007-7.332,9.725-7.332,2.772,0,8.046.542,8.046,3.347,0,.924-.547,1.944-2.93,1.944a5.1,5.1,0,0,1-1.562-.223,8.629,8.629,0,0,0-3.2-.638c-2.578,0-3.632,1.116-3.632,2.9v5.164c0,1.817,1.014,2.9,3.632,2.9a9.321,9.321,0,0,0,3.2-.638,3.817,3.817,0,0,1,1.445-.223c2.461,0,3.008,1.084,3.008,1.944,0,2.773-5.274,3.347-8.085,3.347-6.64,0-9.687-3.22-9.687-7.332V-615.9Z" transform="translate(3953.801 650.446)" fill="#fff" />
        <path id="Path_3228" data-name="Path 3228" d="M-3643.625-617.7c0,1.339-1.367,2.391-3.2,2.391s-3.241-1.02-3.241-2.391v-23.367c0-1.211,1.367-2.391,3.2-2.391s3.242,1.02,3.242,2.391v6.854a10.325,10.325,0,0,1,4.453-1.02c6.015,0,8.749,2.774,8.749,6.694V-617.7c0,1.339-1.483,2.391-3.242,2.391-1.836,0-3.242-1.02-3.242-2.391V-628.89c0-1.466-.742-2.2-2.695-2.2a6.744,6.744,0,0,0-4.023,1.275V-617.7Z" transform="translate(3932.028 662.349)" fill="#fff" />
      </g>
    </g>
  </g>
</svg>