<svg xmlns="http://www.w3.org/2000/svg" width="25.826" height="23.973" viewBox="0 0 25.826 23.973">
  <g id="Group_11481" data-name="Group 11481" transform="translate(-32.174 -1198.977)">
    <path id="Path_3218" data-name="Path 3218" d="M-4200.5-664.474h-11.232a.645.645,0,0,1-.7-.572v-14.241a.547.547,0,0,1,.226-.415l11.232-8.593a.8.8,0,0,1,.975.029.5.5,0,0,1-.034.8l-11.023,8.422v13.426h9.856v-2.331l-6.53-5.348a4.36,4.36,0,0,1-.8-.858,4.684,4.684,0,0,1-.488-.972,3.38,3.38,0,0,1-.157-1.03,3.517,3.517,0,0,1,.157-1.029,3.255,3.255,0,0,1,.488-.972,4,4,0,0,1,.8-.858,5.044,5.044,0,0,1,1.6-.872,5.91,5.91,0,0,1,1.88-.3,5.83,5.83,0,0,1,1.881.3,5.335,5.335,0,0,1,1.6.872l.749.615a.508.508,0,0,1,0,.8.82.82,0,0,1-.975,0l-.731-.615a3.726,3.726,0,0,0-1.149-.629,4.323,4.323,0,0,0-1.358-.214,4.327,4.327,0,0,0-1.359.214,3.546,3.546,0,0,0-1.149.629,3.385,3.385,0,0,0-.574.615,2.449,2.449,0,0,0-.349.7,2.688,2.688,0,0,0-.121.743,2.164,2.164,0,0,0,.121.744,2.453,2.453,0,0,0,.349.7,2.979,2.979,0,0,0,.574.615l6.722,5.519a.554.554,0,0,1,.209.4v3.131a.645.645,0,0,1-.7.572Z" transform="translate(4244.606 1887.424)" fill="#8eb429"/>
    <path id="Path_3219" data-name="Path 3219" d="M-4141.329-664.437h-11.214a.646.646,0,0,1-.7-.572.645.645,0,0,1,.7-.572h10.536v-13.426l-9.856-7.535v7.235a5.6,5.6,0,0,1,1.167-.558,5.908,5.908,0,0,1,1.881-.3,5.839,5.839,0,0,1,1.881.3,5.354,5.354,0,0,1,1.6.872,4.044,4.044,0,0,1,.8.872,3.949,3.949,0,0,1,.487.972,3.432,3.432,0,0,1,.157,1.029,3.5,3.5,0,0,1-.157,1.029,3.42,3.42,0,0,1-.487.972,3.985,3.985,0,0,1-.8.858l-6.739,5.519a.819.819,0,0,1-.975,0,.507.507,0,0,1,0-.8l6.739-5.519a3.372,3.372,0,0,0,.575-.615,2.45,2.45,0,0,0,.348-.7,2.688,2.688,0,0,0,.122-.743,2.153,2.153,0,0,0-.122-.744,2.447,2.447,0,0,0-.348-.7,2.966,2.966,0,0,0-.575-.615,3.728,3.728,0,0,0-1.149-.629,4.323,4.323,0,0,0-1.358-.214,4.321,4.321,0,0,0-1.358.214,3.537,3.537,0,0,0-1.149.629l-.731.615a.812.812,0,0,1-.749.129.588.588,0,0,1-.436-.529v-9.88a.554.554,0,0,1,.418-.515.866.866,0,0,1,.749.1l11.215,8.593a.525.525,0,0,1,.227.415v14.241a.646.646,0,0,1-.7.572Z" transform="translate(4198.631 1887.387)" fill="#535453"/>
  </g>
</svg>
