<svg id="Group_55" data-name="Group 55" xmlns="http://www.w3.org/2000/svg" xmlns:xlink="http://www.w3.org/1999/xlink" width="222.315" height="48.389" viewBox="0 0 222.315 48.389">
  <defs>
    <clipPath id="clip-path">
      <path id="Intersection_1" data-name="Intersection 1" d="M0,48.389V0H222.315V48.389Z" fill="none" />
    </clipPath>
    <clipPath id="clip-path-2">
      <path id="Path_3229" data-name="Path 3229" d="M-4213.212-640.985H-3990.9v-48.389h-222.315v48.389Z" transform="translate(4213.212 689.374)" fill="none" />
    </clipPath>
  </defs>
  <g id="Group_54" data-name="Group 54" clip-path="url(#clip-path)">
    <g id="Group_53" data-name="Group 53" transform="translate(0 0)">
      <g id="Group_52" data-name="Group 52" clip-path="url(#clip-path-2)">
        <path id="Path_3218" data-name="Path 3218" d="M-4192.711-640.5h-18.57a1.151,1.151,0,0,1-1.151-1.144v-28.482a1.173,1.173,0,0,1,.374-.829l18.57-17.186a1.144,1.144,0,0,1,1.612.057,1.126,1.126,0,0,1-.057,1.6l-18.225,16.843v26.852h16.3v-4.661l-10.8-10.695a8.305,8.305,0,0,1-1.324-1.715,10.326,10.326,0,0,1-.807-1.945,8.09,8.09,0,0,1-.259-2.059,8.422,8.422,0,0,1,.259-2.059,7.145,7.145,0,0,1,.807-1.945,7.61,7.61,0,0,1,1.324-1.716,8.026,8.026,0,0,1,2.649-1.744,8.239,8.239,0,0,1,3.109-.6,8.131,8.131,0,0,1,3.109.6,8.5,8.5,0,0,1,2.649,1.744l1.238,1.23a1.152,1.152,0,0,1,0,1.6,1.17,1.17,0,0,1-1.612,0l-1.209-1.23a5.943,5.943,0,0,0-1.9-1.258,6.03,6.03,0,0,0-2.246-.429,6.029,6.029,0,0,0-2.246.429,5.651,5.651,0,0,0-1.9,1.258,6.431,6.431,0,0,0-.95,1.23,5.348,5.348,0,0,0-.576,1.4,6.408,6.408,0,0,0-.2,1.487,5.147,5.147,0,0,0,.2,1.487,5.356,5.356,0,0,0,.576,1.4,5.663,5.663,0,0,0,.95,1.229l11.113,11.038a1.2,1.2,0,0,1,.346.8v6.262a1.151,1.151,0,0,1-1.151,1.144Z" transform="translate(4212.72 688.789)" fill="#8eb429" />
        <path id="Path_3219" data-name="Path 3219" d="M-4133.544-640.474h-18.541a1.152,1.152,0,0,1-1.152-1.144,1.152,1.152,0,0,1,1.152-1.144h17.418v-26.852l-16.295-15.07v14.469a8.656,8.656,0,0,1,1.929-1.115,8.238,8.238,0,0,1,3.109-.6,8.136,8.136,0,0,1,3.109.6,8.518,8.518,0,0,1,2.648,1.745,7.742,7.742,0,0,1,1.324,1.744,8.659,8.659,0,0,1,.806,1.945,8.209,8.209,0,0,1,.26,2.059,8.38,8.38,0,0,1-.26,2.059,7.505,7.505,0,0,1-.806,1.945,7.6,7.6,0,0,1-1.324,1.716l-11.143,11.038a1.17,1.17,0,0,1-1.611,0,1.15,1.15,0,0,1,0-1.6l11.142-11.038a6.418,6.418,0,0,0,.95-1.229,5.353,5.353,0,0,0,.576-1.4,6.406,6.406,0,0,0,.2-1.487,5.132,5.132,0,0,0-.2-1.487,5.344,5.344,0,0,0-.576-1.4,5.642,5.642,0,0,0-.95-1.23,5.946,5.946,0,0,0-1.9-1.258,6.027,6.027,0,0,0-2.245-.429,6.022,6.022,0,0,0-2.246.429,5.642,5.642,0,0,0-1.9,1.258l-1.209,1.23a1.161,1.161,0,0,1-1.238.257,1.152,1.152,0,0,1-.721-1.058v-19.76a1.086,1.086,0,0,1,.692-1.029,1.222,1.222,0,0,1,1.237.2l18.542,17.186a1.123,1.123,0,0,1,.374.829v28.481a1.151,1.151,0,0,1-1.152,1.144Z" transform="translate(4175.377 688.761)" fill="#535453" />
        <path id="Path_3220" data-name="Path 3220" d="M-4059.059-612.683a33.588,33.588,0,0,1-.662-4.2,41.223,41.223,0,0,1-.662,4.2l-1.411,5.49c-.345,1.23-1.209,1.716-2.62,1.716a2.586,2.586,0,0,1-2.735-2.059l-4.03-13.183a1.323,1.323,0,0,1-.058-.458,2.275,2.275,0,0,1,2.389-2.059,2.216,2.216,0,0,1,2.246,1.544l1.5,5.662a39.323,39.323,0,0,1,.691,5.233c.287-1.745.345-3.517.806-5.233l1.382-5.462a2.478,2.478,0,0,1,2.563-1.744,2.408,2.408,0,0,1,2.5,1.744l1.353,5.462c.4,1.716.547,3.517.835,5.261a40.427,40.427,0,0,1,.691-5.261l1.5-5.662a2.369,2.369,0,0,1,2.246-1.544,2.246,2.246,0,0,1,2.361,2.087c0,.028-.029.229-.029.343l-4,13.3a2.449,2.449,0,0,1-2.735,2.03,2.585,2.585,0,0,1-2.591-1.716l-1.526-5.49Z" transform="translate(4123.636 647.645)" fill="#535453" />
        <path id="Path_3221" data-name="Path 3221" d="M-4002.98-612.1v-5.119c0-3.6,2.591-6.406,7.514-6.406s7.515,2.774,7.515,6.406v5.119c0,3.6-2.591,6.405-7.515,6.405-4.894,0-7.514-2.8-7.514-6.405Zm10.25,0v-5.147c0-1.4-.921-2.316-2.735-2.316s-2.735.886-2.735,2.316v5.147c0,1.458.921,2.345,2.735,2.345s2.735-.886,2.735-2.345Z" transform="translate(4080.571 647.89)" fill="#535453" />
        <path id="Path_3222" data-name="Path 3222" d="M-3953.835-612.1v-5.119c0-3.6,2.591-6.406,7.515-6.406s7.514,2.774,7.514,6.406v5.119c0,3.6-2.591,6.405-7.514,6.405-4.9,0-7.515-2.8-7.515-6.405Zm10.25,0v-5.147c0-1.4-.921-2.316-2.735-2.316s-2.736.886-2.736,2.316v5.147c0,1.458.921,2.345,2.736,2.345s2.735-.886,2.735-2.345Z" transform="translate(4049.563 647.89)" fill="#535453" />
        <path id="Path_3223" data-name="Path 3223" d="M-3899.281-607.642a2.093,2.093,0,0,1-2.389,2.088,2.093,2.093,0,0,1-2.39-2.088v-10.409c0-1.144-.144-1.23-.288-1.43-.489-.658-.576-.886-.576-1.344a2.139,2.139,0,0,1,2.332-2,2.333,2.333,0,0,1,1.843,1,8.471,8.471,0,0,1,4.577-1.487c4.376,0,6.536,2.688,6.536,6.692v8.979a2.123,2.123,0,0,1-2.39,2.088,2.123,2.123,0,0,1-2.389-2.088v-8.979c0-1.716-.864-2.774-2.246-2.774a6.818,6.818,0,0,0-2.678.715,5.5,5.5,0,0,1,.058.658v10.38Z" transform="translate(4018.704 647.694)" fill="#535453" />
        <path id="Path_3224" data-name="Path 3224" d="M-3833.65-617.311a1.989,1.989,0,0,0-2.015-2.173,4.612,4.612,0,0,0-2.764,1.2c.029.314.057.572.057.887v9.58a2.093,2.093,0,0,1-2.39,2.087,2.094,2.094,0,0,1-2.39-2.087v-8.893c0-1.573-.288-2.774-1.813-2.774a7.123,7.123,0,0,0-2.937.887,1.746,1.746,0,0,1,.029.372v10.409a2.093,2.093,0,0,1-2.39,2.087,2.092,2.092,0,0,1-2.389-2.087v-10.409c0-1.144-.144-1.23-.288-1.43-.49-.658-.576-.915-.576-1.315a2.112,2.112,0,0,1,2.246-2.03,2.219,2.219,0,0,1,1.843.972,9.067,9.067,0,0,1,4.664-1.515,6.244,6.244,0,0,1,4,1.515,10.48,10.48,0,0,1,5.24-1.515c4.088,0,6.622,2.488,6.622,6.148v9.58a2.093,2.093,0,0,1-2.389,2.087,2.093,2.093,0,0,1-2.39-2.087v-9.494Z" transform="translate(3986.27 647.84)" fill="#8eb429" />
        <path id="Path_3225" data-name="Path 3225" d="M-3763.012-610.019c0,1.029.518.915,1.094,1.172a1.221,1.221,0,0,1,.807,1.315c0,1.087-.663,1.8-2.505,1.8a3.208,3.208,0,0,1-2.937-1.43,7,7,0,0,1-4.664,1.544c-4,0-6.161-2.173-6.161-5.433v-.143c0-3.517,2.274-5.261,6.852-5.261a8.867,8.867,0,0,1,2.735.343V-617.2c0-1.63-.864-2.373-2.62-2.373a4.812,4.812,0,0,0-2.246.544,2.989,2.989,0,0,1-1.324.343,1.947,1.947,0,0,1-2.015-2c0-2.03,3.052-2.859,5.931-2.859,5.009,0,7.053,2.488,7.053,7.12v6.406Zm-9.616-1.144v.114c0,1.144.662,1.573,2.16,1.573a4.254,4.254,0,0,0,2.706-.886v-2.488a13.477,13.477,0,0,0-2.447-.286c-2.044.028-2.419.944-2.419,1.973Z" transform="translate(3938.232 647.84)" fill="#8eb429" />
        <path id="Path_3226" data-name="Path 3226" d="M-3726.206-634.785a2.123,2.123,0,0,1,2.39-2.087,2.154,2.154,0,0,1,2.39,2.087v3.8h2.563a2.145,2.145,0,0,1,2.274,2.059,2.124,2.124,0,0,1-2.274,2.03h-2.562v5.2c0,2.545.2,3.432,1.871,3.432.317,0,.518-.029.576-.029,2.188,0,2.85.572,2.85,1.859,0,2-1.583,2.259-3.311,2.259-5.355,0-6.737-2.6-6.737-7.292v-13.326Z" transform="translate(3905.946 656.249)" fill="#8eb429" />
        <path id="Path_3227" data-name="Path 3227" d="M-3693.647-616.658c0-3.689,2.217-6.577,7.169-6.577,2.043,0,5.931.486,5.931,3,0,.829-.4,1.744-2.16,1.744a3.143,3.143,0,0,1-1.151-.2,5.4,5.4,0,0,0-2.361-.572,2.34,2.34,0,0,0-2.677,2.6v4.633c0,1.63.748,2.6,2.677,2.6a5.831,5.831,0,0,0,2.361-.572,2.363,2.363,0,0,1,1.065-.2c1.814,0,2.217.972,2.217,1.744,0,2.488-3.887,3-5.96,3-4.895,0-7.14-2.888-7.14-6.577v-4.633Z" transform="translate(3885.421 647.645)" fill="#8eb429" />
        <path id="Path_3228" data-name="Path 3228" d="M-3645.319-620.352a2.22,2.22,0,0,1-2.361,2.145,2.228,2.228,0,0,1-2.389-2.145v-20.961a2.294,2.294,0,0,1,2.361-2.145,2.228,2.228,0,0,1,2.39,2.145v6.148a6.514,6.514,0,0,1,3.282-.915c4.434,0,6.449,2.488,6.449,6.005v9.723a2.281,2.281,0,0,1-2.39,2.145,2.228,2.228,0,0,1-2.39-2.145V-630.39c0-1.315-.547-1.973-1.986-1.973a4.394,4.394,0,0,0-2.966,1.144v10.867Z" transform="translate(3857.909 660.404)" fill="#8eb429" />
      </g>
    </g>
  </g>
</svg>