<svg xmlns="http://www.w3.org/2000/svg" width="32.793" height="36" viewBox="0 0 32.793 36">
  <path id="Icon_material-local-mall" data-name="Icon material-local-mall" d="M33.649,10.071H30.006A8.856,8.856,0,0,0,20.9,1.5a8.856,8.856,0,0,0-9.109,8.571H8.144A3.535,3.535,0,0,0,4.518,13.5L4.5,34.071A3.551,3.551,0,0,0,8.144,37.5H33.649a3.551,3.551,0,0,0,3.644-3.429V13.5A3.551,3.551,0,0,0,33.649,10.071ZM20.9,4.929a5.3,5.3,0,0,1,5.465,5.143H15.431A5.3,5.3,0,0,1,20.9,4.929Zm0,17.143A8.856,8.856,0,0,1,11.787,13.5h3.644A5.3,5.3,0,0,0,20.9,18.643,5.3,5.3,0,0,0,26.362,13.5h3.644A8.856,8.856,0,0,1,20.9,22.071Z" transform="translate(-4.5 -1.5)" fill="#3aa935"/>
</svg>
