<?xml version="1.0" encoding="utf-8"?>
<!-- Generator: Adobe Illustrator 24.0.1, SVG Export Plug-In . SVG Version: 6.00 Build 0)  -->
<svg version="1.1" id="Layer_1" xmlns:svgjs="http://svgjs.com/svgjs"
	 xmlns="http://www.w3.org/2000/svg" xmlns:xlink="http://www.w3.org/1999/xlink" x="0px" y="0px" viewBox="0 0 512 512"
	 style="enable-background:new 0 0 512 512;" xml:space="preserve">
<style type="text/css">
	.st0{fill:#429B35;}
</style>
<g id="_x33_SQN3m.tif">
	<g>
		<path class="st0" d="M485.2,441.8c-11.6,0-22.8,0-34,0c-0.3,0.4-0.6,0.8-0.9,1.3c5.4,5.1,10.8,10.1,16.1,15.2
			c5.1,5,10.2,10.1,15.2,15.2c5,5.2,5.4,11.2,1.2,15.4c-4.3,4.2-10.2,3.7-15.4-1.4c-42.5-42.4-84.9-84.9-127.4-127.4
			C237.5,257.6,135.1,155.2,32.7,52.7c-1.4-1.4-2.9-2.8-4.1-4.3c-3.2-4.1-2.8-9.6,0.8-13.2c3.6-3.5,9-3.9,13.2-0.7
			c1.4,1.1,2.7,2.5,4,3.8C59.9,51.7,73.4,65,86.7,78.6c2.6,2.7,5.3,3.8,9.1,3.8c127.6-0.1,255.1-0.1,382.7-0.1c2.1,0,4.3,0,6.8,0
			C485.2,202.1,485.2,321.5,485.2,441.8z M113,102.5c64.3,64.4,129.1,129.2,194.1,194.2c9.1-9.2,18.7-18.8,28.4-28.5
			c8.5-8.5,12.4-8.5,20.7-0.1C391.1,303,426,338,460.9,372.9c1.3,1.3,2.7,2.5,4.4,4.2c0-92.1,0-183.2,0-274.5
			C347.3,102.5,229.6,102.5,113,102.5z M465.6,421.7c0-2.6-0.3-4.6,0-6.5c1-6.7-1.7-11.3-6.5-16c-36.5-36.1-72.7-72.5-109-108.8
			c-1.4-1.4-2.8-2.7-3.3-3.1c-8.8,8.8-17.2,17.2-25.7,25.6c35.3,35.3,71.1,71.2,107,107c0.9,0.9,2.5,1.7,3.8,1.7
			C443,421.8,453.9,421.7,465.6,421.7z"/>
		<path class="st0" d="M46.7,318.6c38.7-36.1,76.8-71.7,114.8-107.2c4.5,4.8,8.9,9.4,14.2,15c-0.6,0.4-2.3,1.2-3.6,2.4
			c-40.8,38-81.5,76-122.3,114c-2.5,2.3-3.6,4.6-3.6,8.1c0.2,21.8,0.1,43.6,0.1,65.4c0,1.6,0,3.2,0,5.4c2.4,0,4.3,0,6.3,0
			c105,0,209.9,0,314.9-0.1c3.8,0,6.5,1,9.1,3.7c5,5.2,10.4,10,15.7,15c-0.3,0.4-0.6,0.7-0.9,1.1c-121.5,0-243,0-364.8,0
			c0-119.6,0-239.1,0-358.7c4.3-1.2,7.5-0.1,10.6,3.2c4.9,5.3,10.4,10.1,16.5,16c-3.3,0.2-5.1,0.3-7.1,0.4
			C46.7,174.2,46.7,245.9,46.7,318.6z"/>
		<path class="st0" d="M277.4,326.8c4.6,4.6,9.1,9.1,13.4,13.4c-6.2,6.4-12.2,13-18.7,19.2c-3.9,3.7-9.4,3.1-13.1-0.5
			c-3.8-3.7-4.4-9.4-0.6-13.5C264.5,339,271,333.1,277.4,326.8z"/>
		<path class="st0" d="M355.7,222c-16.6,0-30-13.6-29.9-30.2c0.1-16.4,13.6-29.6,30-29.6c16.6,0,30,13.6,29.9,30.2
			C385.6,208.8,372.1,222.1,355.7,222z"/>
	</g>
</g>
</svg>
