<svg xmlns="http://www.w3.org/2000/svg" width="49" height="34.774" viewBox="0 0 49 34.774">
  <g id="people_1_" data-name="people (1)" transform="translate(0)">
    <path id="Path_5721" data-name="Path 5721" d="M9.693,18.757a8.855,8.855,0,0,0-8.9,8.808V30.15a1.269,1.269,0,0,0,1.275,1.262H17.319a1.269,1.269,0,0,0,1.275-1.262V27.565a8.855,8.855,0,0,0-8.9-8.808Zm0,0" fill="#3aa935"/>
    <path id="Path_5722" data-name="Path 5722" d="M17.319,32.2H2.066A2.061,2.061,0,0,1,0,30.15V27.565a9.693,9.693,0,0,1,19.385,0V30.15A2.061,2.061,0,0,1,17.319,32.2ZM9.693,19.547a8.075,8.075,0,0,0-8.112,8.017V30.15a.479.479,0,0,0,.485.472H17.32a.479.479,0,0,0,.485-.472V27.565a8.075,8.075,0,0,0-8.112-8.017Zm0,0" fill="#f3f3f3"/>
    <path id="Path_5723" data-name="Path 5723" d="M14.586,11.367a4.894,4.894,0,1,0-4.894,4.842,4.868,4.868,0,0,0,4.894-4.842Zm0,0" fill="#666"/>
    <path id="Path_5724" data-name="Path 5724" d="M9.693,17a5.632,5.632,0,1,1,5.684-5.632A5.665,5.665,0,0,1,9.693,17Zm0-9.684a4.052,4.052,0,1,0,4.1,4.052,4.082,4.082,0,0,0-4.1-4.052Zm0,0" fill="#f3f3f3"/>
    <path id="Path_5725" data-name="Path 5725" d="M44.2,10.586a4.894,4.894,0,1,0-4.894,4.842A4.868,4.868,0,0,0,44.2,10.586Zm0,0" fill="#666"/>
    <path id="Path_5726" data-name="Path 5726" d="M39.307,16.219a5.632,5.632,0,1,1,5.685-5.632A5.664,5.664,0,0,1,39.307,16.219Zm0-9.683a4.052,4.052,0,1,0,4.1,4.052A4.082,4.082,0,0,0,39.307,6.535Zm0,0" fill="#f3f3f3"/>
    <path id="Path_5727" data-name="Path 5727" d="M39.307,18.159a8.855,8.855,0,0,0-8.9,8.808v2.585a1.269,1.269,0,0,0,1.275,1.262H46.934a1.269,1.269,0,0,0,1.275-1.262V26.967a8.855,8.855,0,0,0-8.9-8.808Zm0,0" fill="#3aa935"/>
    <path id="Path_5728" data-name="Path 5728" d="M46.934,31.6H31.681a2.061,2.061,0,0,1-2.066-2.052V26.967a9.693,9.693,0,0,1,19.385,0v2.585A2.061,2.061,0,0,1,46.934,31.6ZM39.307,18.95A8.074,8.074,0,0,0,31.2,26.967v2.585a.479.479,0,0,0,.485.472H46.935a.479.479,0,0,0,.485-.472V26.967a8.075,8.075,0,0,0-8.113-8.017Zm0,0" fill="#f3f3f3"/>
    <path id="Path_5729" data-name="Path 5729" d="M24.5,16.185A12.455,12.455,0,0,0,11.98,28.573v3.636a1.784,1.784,0,0,0,1.794,1.775H35.226a1.784,1.784,0,0,0,1.794-1.775V28.573A12.454,12.454,0,0,0,24.5,16.185Zm0,0" fill="#3aa935"/>
    <path id="Path_5730" data-name="Path 5730" d="M35.226,34.774H13.774a2.578,2.578,0,0,1-2.584-2.565V28.573a13.311,13.311,0,0,1,26.622,0v3.636a2.578,2.578,0,0,1-2.584,2.565ZM24.5,16.976a11.678,11.678,0,0,0-11.73,11.6v3.636a1,1,0,0,0,1,.985H35.226a1,1,0,0,0,1-.985V28.573a11.677,11.677,0,0,0-11.73-11.6Zm0,0" fill="#f3f3f3"/>
    <path id="Path_5731" data-name="Path 5731" d="M30.74,7.236a6.515,6.515,0,1,0-6.514,6.446A6.48,6.48,0,0,0,30.74,7.236Zm0,0" fill="#666"/>
    <path id="Path_5732" data-name="Path 5732" d="M24.225,14.471a7.279,7.279,0,0,1-7.3-7.236,7.3,7.3,0,0,1,14.609,0,7.278,7.278,0,0,1-7.3,7.236Zm0-12.891A5.7,5.7,0,0,0,18.5,7.236a5.724,5.724,0,0,0,11.448,0,5.7,5.7,0,0,0-5.724-5.655Zm0,0" fill="#f3f3f3"/>
  </g>
</svg>
