<svg xmlns="http://www.w3.org/2000/svg" width="23" height="23" viewBox="0 0 23 23">
  <path id="Path_5668" data-name="Path 5668" d="M21.184,15.144a13.129,13.129,0,0,1-4.127-.657,1.768,1.768,0,0,0-1.8.38l-2.611,1.972a14.585,14.585,0,0,1-6.491-6.49L8.079,7.8a1.833,1.833,0,0,0,.449-1.852,13.164,13.164,0,0,1-.66-4.132A1.818,1.818,0,0,0,6.053,0H1.816A1.818,1.818,0,0,0,0,1.816,21.209,21.209,0,0,0,21.184,23,1.818,1.818,0,0,0,23,21.184V16.959A1.818,1.818,0,0,0,21.184,15.144Zm.605,6.041a.606.606,0,0,1-.605.605A20,20,0,0,1,1.211,1.816a.606.606,0,0,1,.605-.605H6.053a.606.606,0,0,1,.605.605,14.371,14.371,0,0,0,.717,4.5.67.67,0,0,1-.208.69l-2.2,2.917a.605.605,0,0,0-.056.639,15.883,15.883,0,0,0,7.527,7.527.6.6,0,0,0,.64-.056l2.98-2.259a.607.607,0,0,1,.616-.144,14.361,14.361,0,0,0,4.513.72.606.606,0,0,1,.605.605v4.225Z" fill="#3aa935"/>
</svg>
