<svg xmlns="http://www.w3.org/2000/svg" width="144.593" height="117.008" viewBox="0 0 144.593 117.008">
  <path id="Icon_awesome-youtube" data-name="Icon awesome-youtube" d="M142.621,22.808C140.958,15.6,136.059,9.926,129.838,8,118.562,4.5,73.346,4.5,73.346,4.5S28.131,4.5,16.855,8C10.634,9.926,5.734,15.6,4.071,22.808,1.05,35.87,1.05,63.122,1.05,63.122s0,27.252,3.021,40.314c1.663,7.206,6.563,12.645,12.784,14.571,11.276,3.5,56.491,3.5,56.491,3.5s45.215,0,56.491-3.5c6.221-1.926,11.121-7.365,12.784-14.571,3.021-13.062,3.021-40.314,3.021-40.314s0-27.252-3.021-40.314ZM58.558,87.865V38.379L96.35,63.123,58.558,87.865Z" transform="translate(-1.05 -4.5)" fill="#da1e27"/>
</svg>
