<svg xmlns="http://www.w3.org/2000/svg" width="17.086" height="18.795" viewBox="0 0 17.086 18.795">
  <path id="Icon_simple-sitepoint" data-name="Icon simple-sitepoint" d="M3.387,8.249,4.9,9.571,9.667,13.6,11.712,11.8a.59.59,0,0,0-.039-.771L9.795,9.542l.009,0L7.783,7.763A.581.581,0,0,1,7.8,6.918L13.246,2.16,10.78,0,3.39,6.451a1.164,1.164,0,0,0,0,1.8Zm16.241,2.3L18.119,9.224,13.35,5.2,11.3,6.992a.569.569,0,0,0,.038.771l1.879,1.481h-.005l2.019,1.774a.568.568,0,0,1-.025.833L9.756,16.608l2.481,2.186,7.389-6.451a1.162,1.162,0,0,0,0-1.8l0,0Z" transform="translate(-2.965)" fill="#fff"/>
</svg>
