<svg id="loupe_1_" data-name="loupe (1)" xmlns="http://www.w3.org/2000/svg" width="36.344" height="36.344" viewBox="0 0 36.344 36.344">
  <g id="Group_11423" data-name="Group 11423">
    <g id="Group_11422" data-name="Group 11422">
      <path id="Path_5947" data-name="Path 5947" d="M22.005,13.487a.71.71,0,1,0,.71.71A.71.71,0,0,0,22.005,13.487Z" fill="#3aa935"/>
    </g>
  </g>
  <g id="Group_11425" data-name="Group 11425">
    <g id="Group_11424" data-name="Group 11424">
      <path id="Path_5948" data-name="Path 5948" d="M35.512,31.5l-9.475-9.475A14.069,14.069,0,0,0,28.394,14.2a14.2,14.2,0,1,0-14.2,14.2,14.07,14.07,0,0,0,7.825-2.357l2.619,2.619h0L31.5,35.512A2.839,2.839,0,1,0,35.512,31.5ZM21.688,24.541h0a12.79,12.79,0,1,1,2.853-2.853A12.839,12.839,0,0,1,21.688,24.541Zm1.489.644a14.245,14.245,0,0,0,2.007-2.007L27.2,25.191A17.23,17.23,0,0,1,25.191,27.2Zm11.331,9.324a1.419,1.419,0,0,1-2.007,0l-6.3-6.3A18.653,18.653,0,0,0,28.205,26.2l6.3,6.3a1.418,1.418,0,0,1,0,2.007Z" fill="#3aa935"/>
    </g>
  </g>
  <g id="Group_11427" data-name="Group 11427">
    <g id="Group_11426" data-name="Group 11426">
      <path id="Path_5949" data-name="Path 5949" d="M14.2,2.839A11.358,11.358,0,1,0,25.554,14.2,11.37,11.37,0,0,0,14.2,2.839Zm0,21.3A9.938,9.938,0,1,1,24.135,14.2,9.949,9.949,0,0,1,14.2,24.135Z" fill="#3aa935"/>
    </g>
  </g>
  <g id="Group_11429" data-name="Group 11429">
    <g id="Group_11428" data-name="Group 11428">
      <path id="Path_5950" data-name="Path 5950" d="M22.152,11.15A8.532,8.532,0,0,0,14.2,5.679a.71.71,0,1,0,0,1.42,7.147,7.147,0,0,1,6.63,4.561.71.71,0,1,0,1.325-.509Z" fill="#3aa935"/>
    </g>
  </g>
</svg>
