<svg xmlns="http://www.w3.org/2000/svg" width="74.654" height="76.592" viewBox="0 0 74.654 76.592">
  <g id="Group_11484" data-name="Group 11484" transform="translate(23612.654 8494)">
    <g id="Group_11482" data-name="Group 11482" transform="translate(-113 183)">
      <path id="Union_9" data-name="Union 9" d="M9,76.592a8.381,8.381,0,0,1-7.65-4.582c-2.838-5.4-1.129-14.03,4.353-22,4.059-5.9,10.941-9.63,16.939-11.909a20.5,20.5,0,1,1,12.015,2.84c-3.027.558-17.986,3.716-24.012,12.471C6.074,60.063,5.181,66.4,6.665,69.218A2.378,2.378,0,0,0,9,70.591H32.672v6ZM18.654,20.5A14.516,14.516,0,0,0,33.154,35q.389,0,.774-.02c.19-.032.314-.052.366-.06l.005.035A14.5,14.5,0,1,0,18.654,20.5Z" transform="translate(-23499.654 -8677)" fill="#3aa935"/>
    </g>
    <g id="Group_11483" data-name="Group 11483" transform="translate(-29 -3)">
      <rect id="Rectangle_2489" data-name="Rectangle 2489" width="38" height="38" rx="19" transform="translate(-23547 -8453)" fill="#8fb23e"/>
      <path id="Icon_awesome-exclamation" data-name="Icon awesome-exclamation" d="M8.906,19.695c0,2.011-2,3.647-4.453,3.647S0,21.706,0,19.695s2-3.647,4.453-3.647S8.906,17.684,8.906,19.695ZM.515,1.149l.757,12.4a1.249,1.249,0,0,0,1.334,1.039H6.3a1.249,1.249,0,0,0,1.334-1.039l.757-12.4A1.218,1.218,0,0,0,7.056,0H1.85A1.218,1.218,0,0,0,.515,1.149Z" transform="matrix(1, -0.017, 0.017, 1, -23532.215, -8445.84)" fill="#fff"/>
    </g>
  </g>
</svg>
