<svg xmlns="http://www.w3.org/2000/svg" width="17.484" height="19.83" viewBox="0 0 17.484 19.83">
  <path id="Icon_awesome-layer-group" data-name="Icon awesome-layer-group" d="M.424,5.733,8.378,9.825a.781.781,0,0,0,.727,0L17.06,5.733a.921.921,0,0,0,0-1.55L9.106.089a.781.781,0,0,0-.727,0L.424,4.182a.921.921,0,0,0,0,1.551ZM17.06,9.152l-1.984-1.02L9.557,10.97a1.758,1.758,0,0,1-1.63,0L2.408,8.132.424,9.152a.92.92,0,0,0,0,1.549l7.955,4.09a.783.783,0,0,0,.727,0L17.06,10.7a.92.92,0,0,0,0-1.549Zm0,4.95-1.976-1.016L9.557,15.928a1.758,1.758,0,0,1-1.63,0L2.4,13.086.424,14.1a.92.92,0,0,0,0,1.549l7.955,4.09a.783.783,0,0,0,.727,0l7.955-4.09a.92.92,0,0,0,0-1.549Z" fill="#fff"/>
</svg>
