<svg xmlns="http://www.w3.org/2000/svg" width="235.813" height="365" viewBox="0 0 235.813 365">
  <g id="Group_11480" data-name="Group 11480" transform="translate(23448 12190.386)">
    <g id="Objects_Seat_Ball" data-name="Objects/Seat/Ball" transform="translate(-23434 -12190.386)">
      <ellipse id="Ballsy_Ball" data-name="Ballsy Ball" cx="77" cy="73.5" rx="77" ry="73.5" fill="#c7c7c7"/>
    </g>
    <g id="A_Human_Sitting" data-name="A Human/Sitting" transform="translate(-23448 -12154.336)">
      <g id="Head_Front" data-name="Head/Front" transform="translate(67)">
        <g id="Head" transform="translate(4 6.95)">
          <path id="Head-2" data-name="Head" d="M0,73,8.262,34.49C3.655,29.081.536,22.452,1.057,15.026c1.5-21.4,31.292-16.692,37.086-5.891s5.107,38.2-2.382,40.129c-2.987.77-9.349-1.116-15.825-5.019L24,73Z" fill="#b28b67"/>
        </g>
        <path id="Hair" d="M10.418,46.308C7.406,32.906-1.175,23.771.135,17.782a10.2,10.2,0,0,1,6.986-7.45S10.057-1.543,26.056.23,51.819,8.648,47.6,23.268c-3.876,0-8.556-1.4-15.027,1-3.08,1.143-4.406,7.09-4.406,7.09H25.246s-4.257-7.057-8.4-5.187-1.881,9.087-1.881,9.087l-1.44,11.049Z" transform="translate(0 -0.05)" fill="#191847"/>
      </g>
      <g id="Bottom_Skinny_Jeans_1" data-name="Bottom/Skinny Jeans 1" transform="translate(0 162.95)">
        <g id="Seat" transform="translate(0 42)">
          <g id="Seat-2" data-name="Seat">
            <path id="Seat_Stuff" data-name="Seat Stuff" d="M27.623,0h77.255L115,124H0Z" fill="#c5cfd6"/>
            <path id="Seat_Stuff-2" data-name="Seat Stuff" d="M27.623,0h23.76L65.6,124H0Z" fill="rgba(0,0,0,0.1)"/>
          </g>
        </g>
        <path id="Skin" d="M57.131,141.549c-1-12.65-2.861-56.444-1-76.715.785-8.557,1.633-16.7,2.465-23.927-17.858,32.116-47.08,79.1-47.08,79.1L0,114.743S13.566,70.049,22.247,51.638c9.91-21.017,19.2-39.015,23.112-45.355,6.151-9.971,16.86-6.492,22.518-.456C76.114.882,89.933,7.236,89.924,14.309,89.895,35.474,70.58,135.223,69.572,141.528c-.534,3.337-3.812,5.375-6.872,5.375C59.977,146.9,57.427,145.292,57.131,141.549Z" transform="translate(125.077 14.929)" fill="#b28b67"/>
        <path id="LegLower" d="M0,111.841,5.118,10.331c3.688-17.553,34.907-9.406,34.894,0-.029,21.355-12.857,95.127-12.866,101.489Z" transform="translate(164.152 8.029) rotate(20)" fill="#1f28cf"/>
        <g id="Right_Shoe" data-name="Right Shoe" transform="translate(125.286 117.671) rotate(30)">
          <path id="shoe" d="M4.474,5.033A2,2,0,0,0,1.908,6.381L0,13.106A64.242,64.242,0,0,0,.9,21H57.3s2.2-7.268-2.538-7.848-7.87-1.047-7.87-1.047L20.68.419a1,1,0,0,0-1.332.532L17.663,5.039s-4.385,2.046-7.127,2.046Z" transform="translate(0 -0.332)" fill="#e4e4e4"/>
        </g>
        <g id="Right_Shoe-2" data-name="Right Shoe" transform="translate(178 145.332)">
          <path id="shoe-2" data-name="shoe" d="M4.474,5.033A2,2,0,0,0,1.908,6.381L0,13.106A64.242,64.242,0,0,0,.9,21H57.3s2.2-7.268-2.538-7.848-7.87-1.047-7.87-1.047L20.68.419a1,1,0,0,0-1.332.532L17.663,5.039s-4.385,2.046-7.127,2.046Z" transform="translate(0 -0.332)" fill="#e4e4e4"/>
        </g>
        <path id="Leg_and_Butt" data-name="Leg and Butt" d="M170.77,36.433c0,26.567-12.617,88.537-12.625,94.387L131,130.841S136.96,47.9,135.227,47s-71.051,6.921-91.84,6.921C13.408,53.925,1.006,35.02,0,0H59.386c12.092,1.294,75.162,14.015,98.586,18.388C168,20.261,170.77,29.115,170.77,36.433Z" transform="translate(47)" fill="#2b44ff"/>
      </g>
      <g id="Body_Long_Sleeve_1" data-name="Body/Long Sleeve 1" transform="translate(36.929 36.726)">
        <path id="Skin-2" data-name="Skin" d="M31.587,120.921,0,107.823l7.052-17.43,31.9,23.423a85.86,85.86,0,0,1,21.685,8.714c1.371,1.249,3.029,3.779-2.659,3.342s-11.687-.642-12.471,1.3,2.656,4.259,1.07,6.876a.754.754,0,0,1-.692.373Q43.078,134.419,31.587,120.921ZM10.4,23.565,48.3,12.186A85.861,85.861,0,0,1,68.314.113c1.823-.343,4.841-.144,1.069,4.135s-7.546,8.948-6.469,10.742,5,.442,6.136,3.283q1.135,2.842-19.5,4.071L20.078,39.686Z" transform="translate(101.126 0)" fill="#b28b67"/>
        <path id="Coat_Back" data-name="Coat Back" d="M13.491,0C38.653,26.79,69.342,44.272,111.2,59.778L101.9,78.364C58.717,74.292,35.63,71.04,17.531,44.209,12.988,37.475,4.866,14.3,0,2.271Z" transform="matrix(0.966, 0.259, -0.259, 0.966, 45.6, 23.819)" fill="#2026a2"/>
        <path id="Shirt" d="M0,114H77S50.837,34.208,50.27,4.472c-.019-1.011-1.886-2.792-2.712-2.558C38.5,4.472,28.172,0,28.172,0,9.917,29.358,3.6,65.5,0,114Z" transform="translate(10.071 21.224)" fill="#f2f2f2"/>
        <path id="Coat_Front" data-name="Coat Front" d="M1.421,147.606C-5.1,103.784,12.038,43.024,27.926,12.377A5.417,5.417,0,0,1,32.867,9H44.8l.016.047c4.019.033,8.494.193,13.375.353,21.921.722,52.027,1.443,85.805-9.4l4.078,20.373C116.857,40.448,85.252,56,57.557,53.791c12.025,51.585,11.471,93.815-15.079,93.815Z" transform="translate(0 12.224)" fill="#1f28cf"/>
      </g>
    </g>
  </g>
</svg>