<svg xmlns="http://www.w3.org/2000/svg" width="18.477" height="22" viewBox="0 0 18.477 22">
  <g id="mailbox_1_" data-name="mailbox (1)" transform="translate(-1.762)">
    <path id="Path_5741" data-name="Path 5741" d="M17.875,4.77H13.063V0h4.813a.645.645,0,0,1,.556.97L17.6,2.385l-.01.018.834,1.391a.645.645,0,0,1-.553.976Z" fill="#3aa935"/>
    <path id="Path_5742" data-name="Path 5742" d="M17.875,4.77H13.063V2.385H17.6l-.01.018.834,1.391a.645.645,0,0,1-.553.976Z" fill="#3aa935"/>
    <path id="Path_5743" data-name="Path 5743" d="M13.75,17.832v3.523a.645.645,0,0,1-.645.645H10.27a.645.645,0,0,1-.645-.645V17.832a.645.645,0,0,1,.645-.645h2.836A.645.645,0,0,1,13.75,17.832Z" fill="#3aa935"/>
    <path id="Path_5744" data-name="Path 5744" d="M13.75,17.832v3.523a.645.645,0,0,1-.645.645H11.688V17.188h1.418A.645.645,0,0,1,13.75,17.832Z" fill="#3aa935"/>
    <path id="Path_5745" data-name="Path 5745" d="M15.641,6.23H6.359a4.6,4.6,0,0,0-4.6,4.6v7.047a.645.645,0,0,0,.645.645H19.594a.645.645,0,0,0,.645-.645V10.828A4.6,4.6,0,0,0,15.641,6.23Z" fill="#efefef"/>
    <path id="Path_5746" data-name="Path 5746" d="M10.957,10.828V18.52H2.406a.645.645,0,0,1-.645-.645v-7a4.6,4.6,0,1,1,9.2-.051Z" fill="#efefef"/>
    <path id="Path_5747" data-name="Path 5747" d="M10.957,10.828V18.52h-4.6V6.23A4.6,4.6,0,0,1,10.957,10.828Z" fill="#c7c7c7"/>
    <path id="Path_5748" data-name="Path 5748" d="M13.063,0a.645.645,0,0,0-.645.645V9.238a.645.645,0,0,0,1.289,0V.645A.645.645,0,0,0,13.063,0Z" fill="#3aa935"/>
  </g>
</svg>
