<!-- Generator: Adobe Illustrator 24.0.1, SVG Export Plug-In  -->
<svg version="1.1" xmlns="http://www.w3.org/2000/svg" xmlns:xlink="http://www.w3.org/1999/xlink" x="0px" y="0px" width="695.25px" height="932.25px" viewBox="0 0 695.25 932.25" style="enable-background:new 0 0 695.25 932.25;" xml:space="preserve">
  <style type="text/css">
	.st0{fill:#64AC51;}
</style>
  <defs></defs>
  <g>
    <path class="st0" d="M652.85,769.5c28.13-66.51,42.4-137.17,42.4-210v-20c0-72.83-14.26-143.49-42.4-210
		c-27.17-64.24-66.07-121.94-115.62-171.49C487.69,108.47,429.99,69.57,365.75,42.4C299.24,14.26,228.58,0,155.75,0h-20
		C89.45,0,44.03,5.77,0,17.2v1.03C44.03,6.79,89.45,1,135.75,1h20c72.7,0,143.22,14.24,209.61,42.32
		c64.12,27.12,121.71,65.95,171.17,115.4c49.45,49.46,88.28,107.04,115.4,171.17c28.08,66.39,42.32,136.91,42.32,209.61v20
		c0,72.7-14.24,143.22-42.32,209.61c-25.67,60.69-61.83,115.52-107.55,163.14h1.39C591.26,884.7,627.26,830,652.85,769.5z" />
    <path class="st0" d="M495.51,899.26c44.13-44.13,78.77-95.51,102.98-152.73c25.06-59.24,37.76-122.17,37.76-187.03v-20
		c0-64.87-12.7-127.79-37.76-187.03c-24.2-57.22-58.85-108.6-102.98-152.73C451.39,155.61,400,120.96,342.78,96.76
		C283.54,71.7,220.62,59,155.75,59h-20C89.29,59,43.83,65.52,0,78.42v1.04C43.82,66.53,89.29,60,135.75,60h20
		c64.73,0,127.53,12.68,186.64,37.68c57.1,24.15,108.38,58.72,152.41,102.76c44.04,44.04,78.61,95.32,102.76,152.41
		c25,59.11,37.68,121.91,37.68,186.64v20c0,64.73-12.68,127.53-37.68,186.64c-24.15,57.1-58.72,108.38-102.76,152.42
		c-11.93,11.93-24.4,23.17-37.37,33.69h1.58C471.67,921.93,483.85,910.93,495.51,899.26z" />
    <path class="st0" d="M450.65,854.21c39.54-39.54,70.58-85.58,92.26-136.84c22.45-53.07,33.83-109.45,33.83-167.57
		s-11.38-114.5-33.83-167.57c-21.68-51.26-52.72-97.3-92.26-136.84c-39.54-39.54-85.58-70.58-136.84-92.26
		c-53.07-22.45-109.45-33.83-167.57-33.83c-50.4,0-99.48,8.56-146.24,25.48v1.06c46.75-16.95,95.84-25.54,146.24-25.54
		c57.98,0,114.23,11.36,167.18,33.75c51.14,21.63,97.08,52.6,136.52,92.05c39.44,39.44,70.41,85.38,92.05,136.52
		c22.4,52.95,33.75,109.2,33.75,167.18s-11.36,114.23-33.75,167.18c-21.63,51.14-52.6,97.08-92.05,136.52
		c-31.97,31.97-68.21,58.38-108.03,78.75h2.15C383.31,911.95,419.06,885.8,450.65,854.21z" />
  </g>
</svg>