<svg xmlns="http://www.w3.org/2000/svg" width="41.996" height="42" viewBox="0 0 41.996 42">
  <g id="solar-panel_1_" data-name="solar-panel (1)" transform="translate(-0.002)">
    <g id="Group_11003" data-name="Group 11003">
      <g id="Group_11002" data-name="Group 11002">
        <path id="Path_5735" data-name="Path 5735" d="M32.9,3.5a5.6,5.6,0,1,0,5.6,5.6A5.6,5.6,0,0,0,32.9,3.5Zm0,9.8a4.2,4.2,0,1,1,4.2-4.2A4.2,4.2,0,0,1,32.9,13.3Z" fill="#3aa935"/>
      </g>
    </g>
    <g id="Group_11005" data-name="Group 11005">
      <g id="Group_11004" data-name="Group 11004">
        <rect id="Rectangle_2363" data-name="Rectangle 2363" width="1.4" height="2.1" transform="translate(32.198)" fill="#3aa935"/>
      </g>
    </g>
    <g id="Group_11007" data-name="Group 11007">
      <g id="Group_11006" data-name="Group 11006">
        <rect id="Rectangle_2364" data-name="Rectangle 2364" width="1.4" height="2.1" transform="translate(32.198 16.1)" fill="#3aa935"/>
      </g>
    </g>
    <g id="Group_11009" data-name="Group 11009">
      <g id="Group_11008" data-name="Group 11008">
        <rect id="Rectangle_2365" data-name="Rectangle 2365" width="2.1" height="1.4" transform="translate(23.798 8.4)" fill="#3aa935"/>
      </g>
    </g>
    <g id="Group_11011" data-name="Group 11011">
      <g id="Group_11010" data-name="Group 11010">
        <rect id="Rectangle_2366" data-name="Rectangle 2366" width="2.1" height="1.4" transform="translate(39.898 8.4)" fill="#3aa935"/>
      </g>
    </g>
    <g id="Group_11013" data-name="Group 11013">
      <g id="Group_11012" data-name="Group 11012">
        <rect id="Rectangle_2367" data-name="Rectangle 2367" width="1.4" height="2.1" transform="translate(25.968 3.16) rotate(-45)" fill="#3aa935"/>
      </g>
    </g>
    <g id="Group_11015" data-name="Group 11015">
      <g id="Group_11014" data-name="Group 11014">
        <rect id="Rectangle_2368" data-name="Rectangle 2368" width="1.4" height="2.1" transform="translate(37.352 14.543) rotate(-45)" fill="#3aa935"/>
      </g>
    </g>
    <g id="Group_11017" data-name="Group 11017">
      <g id="Group_11016" data-name="Group 11016">
        <rect id="Rectangle_2369" data-name="Rectangle 2369" width="2.1" height="1.4" transform="translate(25.968 15.038) rotate(-45)" fill="#3aa935"/>
      </g>
    </g>
    <g id="Group_11019" data-name="Group 11019">
      <g id="Group_11018" data-name="Group 11018">
        <rect id="Rectangle_2370" data-name="Rectangle 2370" width="2.1" height="1.4" transform="translate(37.353 3.655) rotate(-45)" fill="#3aa935"/>
      </g>
    </g>
    <g id="Group_11021" data-name="Group 11021">
      <g id="Group_11020" data-name="Group 11020">
        <path id="Path_5736" data-name="Path 5736" d="M37.713,40.965l-16.8-30.8A.7.7,0,0,0,20.3,9.8H.7a.728.728,0,0,0-.156.02H.525a.678.678,0,0,0-.193.085.529.529,0,0,0-.05.038.733.733,0,0,0-.151.155c-.01.015-.023.027-.032.042a.608.608,0,0,0-.038.088.568.568,0,0,0-.025.056.7.7,0,0,0-.035.21V15.4a.7.7,0,0,0,.084.333l14,25.9A.7.7,0,0,0,14.7,42H37.1a.7.7,0,0,0,.615-1.035ZM31.719,32.9h-4.7l-3.436-6.3h4.7Zm-16.8-7.7h-5.4L6.078,18.9h5.4Zm-1.841-6.3h4.7l3.436,6.3h-4.7Zm2.6,7.7,3.436,6.3h-5.4l-3.436-6.3Zm1.6,0h4.7l3.436,6.3h-4.7Zm10.241-1.4h-4.7l-3.436-6.3h4.7Zm-7.636-14,3.436,6.3h-4.7l-3.436-6.3Zm-6.3,0,3.436,6.3h-4.7L8.878,11.2Zm-6.3,0,3.436,6.3h-5.4L1.878,11.2Zm7.836,29.4L1.4,15.223V13.245L16.319,40.6Zm2.8,0-3.436-6.3h5.4l3.436,6.3Zm7,0-3.436-6.3h4.7l3.436,6.3Zm6.3,0-3.436-6.3h4.7l3.436,6.3Z" fill="#3aa935"/>
      </g>
    </g>
  </g>
</svg>
