<svg xmlns="http://www.w3.org/2000/svg" width="51.93" height="52.209" viewBox="0 0 51.93 52.209">
    <path id="loud-speaker" d="M51.93,26.1a30.8,30.8,0,0,1-4.14,15.546A27,27,0,0,1,37.006,52.071a1.214,1.214,0,0,1-1.64-.525,1.227,1.227,0,0,1,.522-1.649C44.154,45.6,49.5,36.262,49.5,26.1S44.154,6.6,35.888,2.309A1.227,1.227,0,0,1,35.366.661a1.214,1.214,0,0,1,1.64-.525A27,27,0,0,1,47.79,10.557,30.8,30.8,0,0,1,51.93,26.1ZM40.845,37.186a21.511,21.511,0,0,0,0-22.167,18.434,18.434,0,0,0-7.976-7.2,1.223,1.223,0,0,0-1.012,2.226c5.849,2.687,9.629,8.988,9.629,16.053s-3.78,13.367-9.629,16.053a1.223,1.223,0,0,0,1.012,2.226A18.434,18.434,0,0,0,40.845,37.186ZM35.91,26.1a10.812,10.812,0,0,0-7.338-10.529,1.223,1.223,0,0,0-.69,2.347A8.359,8.359,0,0,1,33.476,26.1a8.359,8.359,0,0,1-5.593,8.182,1.223,1.223,0,0,0,.69,2.347A10.813,10.813,0,0,0,35.91,26.1ZM22.978,4.973V47.232a1.216,1.216,0,0,1-2.11.832L9.2,35.4H1.217A1.22,1.22,0,0,1,0,34.174V18.032a1.22,1.22,0,0,1,1.217-1.224H9.2L20.868,4.142a1.216,1.216,0,0,1,2.11.832ZM20.544,8.095,10.62,18.864a1.214,1.214,0,0,1-.893.392H2.434V32.95H9.727a1.214,1.214,0,0,1,.893.392l9.924,10.769Z" transform="translate(0 0.002)" fill="#3aa935" />
</svg>