<svg xmlns="http://www.w3.org/2000/svg" width="41" height="42.252" viewBox="0 0 41 42.252">
  <path id="Icon_ionic-md-football" data-name="Icon ionic-md-football" d="M23.875,3.375c-11.3,0-20.5,9.476-20.5,21.126s9.2,21.126,20.5,21.126,20.5-9.476,20.5-21.126S35.18,3.375,23.875,3.375ZM11.161,22.693l3.863,1.818,1.685,6.795-1.537,2.976-5.637-.071a18.082,18.082,0,0,1-2.71-7.648ZM32.578,34.282,31.04,31.306,32.725,24.5l3.854-1.808,4.337,3.87a17.95,17.95,0,0,1-2.71,7.648Zm3.193-14.849-4.3,1.991-6.022-5.241V11.389l4.721-3.311a17.646,17.646,0,0,1,7.451,5.871ZM17.5,8.088l4.7,3.3v4.794l-6.012,5.231L11.95,19.423l-1.843-5.444A17.147,17.147,0,0,1,17.5,8.088Zm2.671,33.68c-.069-.02-.128-.03-.2-.051l-2.02-5.6L19.4,33.134H28.35l1.478,3.077-1.951,5.474c-.1.02-.2.051-.3.071a24.137,24.137,0,0,1-3.982.416A16.239,16.239,0,0,1,20.169,41.767Z" transform="translate(-3.375 -3.375)" fill="#3aa935"/>
</svg>
