<svg xmlns="http://www.w3.org/2000/svg" width="71.479" height="76.592" viewBox="0 0 71.479 76.592">
  <g id="Group_11487" data-name="Group 11487" transform="translate(23612.654 8398)">
    <g id="Group_11486" data-name="Group 11486" transform="translate(0 96)">
      <g id="Group_11482" data-name="Group 11482" transform="translate(-113 183)">
        <path id="Union_9" data-name="Union 9" d="M9,76.592a8.381,8.381,0,0,1-7.65-4.582c-2.838-5.4-1.129-14.03,4.353-22,4.059-5.9,10.941-9.63,16.939-11.909a20.5,20.5,0,1,1,12.015,2.84c-3.027.558-17.986,3.716-24.012,12.471C6.074,60.063,5.181,66.4,6.665,69.218A2.378,2.378,0,0,0,9,70.591H32.672v6ZM18.654,20.5A14.516,14.516,0,0,0,33.154,35q.389,0,.774-.02c.19-.032.314-.052.366-.06l.005.035A14.5,14.5,0,1,0,18.654,20.5Z" transform="translate(-23499.654 -8677)" fill="#3aa935"/>
      </g>
    </g>
    <g id="Group_11485" data-name="Group 11485" transform="translate(166.331 -13.582)">
      <path id="Path_5979" data-name="Path 5979" d="M-23723.689-8321.77v25.39a1.191,1.191,0,0,0,1.188,1.355c1.377.159,27.553,0,27.553,0s1.625-.165,1.625-1.355v-21.465h-10.8s-2.029,0-2.029-1.757v-8.6h-17.539Z" transform="translate(-14.183 -12.872)" fill="#8fb23e"/>
      <path id="Path_5980" data-name="Path 5980" d="M-23567.951-8328.2v8.262h10.084v-.675l-.268-.418-8.641-7.169Z" transform="translate(-149.675 -12.872)" fill="#8fb23e"/>
      <path id="Path_5981" data-name="Path 5981" d="M-23656.871-8208.451" transform="translate(-72.318 -117.051)" fill="none" stroke="#707070" stroke-width="1"/>
      <path id="Path_5982" data-name="Path 5982" d="M-23650.971-8214h-13.207a.975.975,0,0,1-.975-.975.976.976,0,0,1,.975-.976h13.207a.973.973,0,0,1,.973.976A.973.973,0,0,1-23650.971-8214Z" transform="translate(-65.114 -110.527)" fill="#fff"/>
      <path id="Path_5982-2" data-name="Path 5982" d="M-23650.971-8214h-13.207a.975.975,0,0,1-.975-.975.976.976,0,0,1,.975-.976h13.207a.973.973,0,0,1,.973.976A.973.973,0,0,1-23650.971-8214Z" transform="translate(-65.117 -106.755)" fill="#fff"/>
      <path id="Path_5982-3" data-name="Path 5982" d="M-23650.971-8214h-13.207a.975.975,0,0,1-.975-.975.976.976,0,0,1,.975-.976h13.207a.973.973,0,0,1,.973.976A.973.973,0,0,1-23650.971-8214Z" transform="translate(-65.117 -102.854)" fill="#fff"/>
      <rect id="Rectangle_2490" data-name="Rectangle 2490" width="8.742" height="8.742" rx="4.371" transform="translate(-23740 -8343)" fill="#fff"/>
      <path id="Path_5983" data-name="Path 5983" d="M-23708.719-8320.758l-1.857-1.235v-2.817h1.041v2.26l1.393.928Z" transform="translate(-25.523 -16.188)" fill="#8fb23e"/>
    </g>
  </g>
</svg>
