<svg id="Icon_map-grocery-or-supermarket" data-name="Icon map-grocery-or-supermarket" xmlns="http://www.w3.org/2000/svg" width="41" height="28.8" viewBox="0 0 41 28.8">
  <path id="Path_5643" data-name="Path 5643" d="M34.56,30.24a2.88,2.88,0,1,1-2.88-2.88,2.88,2.88,0,0,1,2.88,2.88Z" transform="translate(5.72 -4.32)" fill="#3aa935"/>
  <path id="Path_5644" data-name="Path 5644" d="M13.68,30.24a2.88,2.88,0,1,1-2.88-2.88,2.88,2.88,0,0,1,2.88,2.88Z" transform="translate(1.535 -4.32)" fill="#3aa935"/>
  <path id="Path_5645" data-name="Path 5645" d="M39.327,23.76H13.2l.558-.779a1.271,1.271,0,0,0,.195-1.118l-.545-1.8,24.251-1.084a1.66,1.66,0,0,0,1.671-1.514V7.92a1.575,1.575,0,0,0-1.673-1.44H9.3L8.976,5.4A1.65,1.65,0,0,0,7.357,4.32H1.673A1.57,1.57,0,0,0,0,5.76,1.57,1.57,0,0,0,1.673,7.2h4.39l4.468,14.792L8.774,24.444A1.268,1.268,0,0,0,8.738,25.9a1.731,1.731,0,0,0,1.46.739H39.327A1.57,1.57,0,0,0,41,25.2a1.57,1.57,0,0,0-1.673-1.44Z" transform="translate(0 -4.32)" fill="#3aa935"/>
</svg>
