<?xml version="1.0" encoding="utf-8"?>
<!-- Generator: Adobe Illustrator 24.0.1, SVG Export Plug-In . SVG Version: 6.00 Build 0)  -->
<svg version="1.1" id="Capa_1" xmlns="http://www.w3.org/2000/svg" xmlns:xlink="http://www.w3.org/1999/xlink" x="0px" y="0px"
	 viewBox="0 0 512 512" style="enable-background:new 0 0 512 512;" xml:space="preserve">
<style type="text/css">
	.st0{fill:#429B35;}
</style>
<g>
	<g>
		<path class="st0" d="M415.8,79.6c0-43.9-35.7-79.6-79.6-79.6H175.8c-43.9,0-79.6,35.7-79.6,79.6c0,30.2,16.8,56.8,42.1,70.3
			c-27.2,39.9-42.1,91.4-42.1,146.2c0,57.2,16.4,111.2,46.1,151.8C172.5,489.2,212.9,512,256,512s83.5-22.8,113.8-64.1
			c29.7-40.6,46.1-94.6,46.1-151.8c0-54.7-14.9-106.3-42.1-146.2C398.7,136.4,415.8,110,415.8,79.6z M400.8,296.1
			c0,110.8-65,200.9-144.8,200.9s-144.8-90.1-144.8-200.9c0-52.9,14.6-102.5,41.2-140.3c4.7,1.4,9.5,2.4,14.6,3
			c4.1,0.4,7.8-2.5,8.3-6.6c0.5-4.1-2.5-7.8-6.6-8.3c-32.8-3.6-57.5-31.2-57.5-64.2c0-35.6,29-64.6,64.6-64.6h160.3
			c35.6,0,64.6,29,64.6,64.6s-29,64.6-64.6,64.6H199.9c-4.1,0-7.5,3.4-7.5,7.5s3.4,7.5,7.5,7.5h136.3c8.1,0,16-1.2,23.4-3.5
			C386.2,193.6,400.8,243.2,400.8,296.1z"/>
	</g>
</g>
<g>
	<g>
		<path class="st0" d="M379.1,246.6c-0.8-4.1-4.7-6.7-8.8-5.9c-4.1,0.8-6.7,4.7-5.9,8.8c2.9,15.1,4.4,30.8,4.4,46.7
			c0,93.1-50.6,168.9-112.7,168.9s-112.7-75.7-112.7-168.9c0-29.2,5.1-58,14.7-83.3c5-13,17-21.4,30.6-21.4h134.7
			c13.7,0,25.7,8.4,30.6,21.4c0.7,1.8,1.4,3.7,2,5.6c1.4,3.9,5.6,6,9.5,4.6c3.9-1.4,6-5.6,4.6-9.6c-0.7-2-1.4-4-2.2-6
			c-7.2-18.9-24.7-31.1-44.7-31.1H188.6v0c-19.9,0-37.5,12.2-44.7,31.1c-10.3,27-15.7,57.6-15.7,88.7c0,48.6,13,94.4,36.5,128.9
			c24.1,35.4,56.5,54.9,91.2,54.9s67.1-19.5,91.2-54.9c23.6-34.5,36.5-80.3,36.5-128.9C383.7,279.3,382.2,262.6,379.1,246.6z"/>
	</g>
</g>
<g>
	<g>
		<path class="st0" d="M256,224.5c-21.8,0-39.6,17.7-39.6,39.6c0,21.8,17.7,39.6,39.6,39.6s39.6-17.7,39.6-39.6
			S277.8,224.5,256,224.5z M256,288.6c-13.5,0-24.6-11-24.6-24.6c0-13.5,11-24.6,24.6-24.6c13.5,0,24.6,11,24.6,24.6
			C280.6,277.6,269.5,288.6,256,288.6z"/>
	</g>
</g>
<g>
	<g>
		<path class="st0" d="M256,48.1c-17.4,0-31.5,14.2-31.5,31.5c0,17.4,14.2,31.5,31.5,31.5s31.5-14.2,31.5-31.5S273.4,48.1,256,48.1z
			 M256,96.2c-9.1,0-16.5-7.4-16.5-16.5s7.4-16.5,16.5-16.5s16.5,7.4,16.5,16.5S265.1,96.2,256,96.2z"/>
	</g>
</g>
</svg>
