<?xml version="1.0" encoding="utf-8"?>
<!-- Generator: Adobe Illustrator 24.0.1, SVG Export Plug-In . SVG Version: 6.00 Build 0)  -->
<svg version="1.1" id="Layer_1" xmlns="http://www.w3.org/2000/svg" xmlns:xlink="http://www.w3.org/1999/xlink" x="0px" y="0px"
	 viewBox="0 0 512 512" style="enable-background:new 0 0 512 512;" xml:space="preserve">
<style type="text/css">
	.st0{fill:#429B35;}
</style>
<g id="Outline">
	<rect x="120" y="448" class="st0" width="16" height="16"/>
	<path class="st0" d="M304,352H168V232c0-4.4-3.6-8-8-8H16c-4.4,0-8,3.6-8,8v256c0,4.4,3.6,8,8,8h288c4.4,0,8-3.6,8-8V360
		C312,355.6,308.4,352,304,352z M216,368h32v32h-32V368z M72,240h32v32H72V240z M24,240h32v40c0,4.4,3.6,8,8,8h48c4.4,0,8-3.6,8-8
		v-40h32v112H24V240z M72,368h32v32H72V368z M24,368h32v40c0,4.4,3.6,8,8,8h48c4.4,0,8-3.6,8-8v-40h32v112H24V368z M296,480H168V368
		h32v40c0,4.4,3.6,8,8,8h48c4.4,0,8-3.6,8-8v-40h32V480z"/>
	<rect x="264" y="448" class="st0" width="16" height="16"/>
	<rect x="120" y="320" class="st0" width="16" height="16"/>
	<path class="st0" d="M478.1,111.8c0.6,0.1,1.2,0.2,1.9,0.2c2.9,0,5.5-1.5,6.9-4c0.7-1.3,1.1-2.7,1.1-4.2V72c0-3.7-2.5-6.9-6.1-7.8
		l-232-56c-1.2-0.3-2.5-0.3-3.8,0l-232,56C10.5,65.1,8,68.3,8,72v31.8c0,1.7,0.5,3.3,1.4,4.7c1.9,2.8,5.3,4.1,8.5,3.3l14.1-3.4V208
		h16V104.5l200-48.3l200,48.3V480h-48V168c0-4.4-3.6-8-8-8H104c-4.4,0-8,3.6-8,8v32c0,4.4,3.6,8,8,8h280v16H184v16h200v16H184v16
		h200v16H184v16h200v176h-56v16h160v-16h-24V108.4L478.1,111.8z M112,192v-16h272v16H112z M248,40c-0.6,0-1.3,0.1-1.9,0.2L24,93.8
		V78.3l224-54.1l224,54.1v15.5L249.9,40.2C249.3,40.1,248.6,40,248,40z"/>
	<path class="st0" d="M264,136c13.3,0,24-10.7,24-24s-10.7-24-24-24h-32c-13.3,0-24,10.7-24,24s10.7,24,24,24H264z M224,112
		c0-4.4,3.6-8,8-8h32c4.4,0,8,3.6,8,8s-3.6,8-8,8h-32C227.6,120,224,116.4,224,112z"/>
</g>
</svg>
