<svg xmlns="http://www.w3.org/2000/svg" width="37" height="29.893" viewBox="0 0 37 29.893">
  <g id="danger_1_" data-name="danger (1)" transform="translate(0 -3.672)">
    <g id="Group_10999" data-name="Group 10999" transform="translate(0 3.672)">
      <g id="Group_10998" data-name="Group 10998">
        <path id="Path_5733" data-name="Path 5733" d="M36.674,30.3,20.441,4.714a2.33,2.33,0,0,0-3.883,0L.326,30.3a2.062,2.062,0,0,0-.033,2.172,2.29,2.29,0,0,0,1.974,1.095H34.733a2.29,2.29,0,0,0,1.974-1.095A2.062,2.062,0,0,0,36.674,30.3ZM18.512,12.521c.932,0,1.721.5,1.721,1.386,0,2.7-.335,6.588-.335,9.291,0,.7-.813,1-1.386,1-.765,0-1.41-.3-1.41-1,0-2.7-.335-6.588-.335-9.291C16.767,13.021,17.532,12.521,18.512,12.521Zm.024,16.743a1.75,1.75,0,1,1,1.817-1.749A1.823,1.823,0,0,1,18.536,29.264Z" transform="translate(0 -3.672)" fill="#3aa935"/>
      </g>
    </g>
  </g>
</svg>
