<?xml version="1.0" encoding="utf-8"?>
<!-- Generator: Adobe Illustrator 24.0.1, SVG Export Plug-In . SVG Version: 6.00 Build 0)  -->
<svg version="1.1" id="boiler" xmlns="http://www.w3.org/2000/svg" xmlns:xlink="http://www.w3.org/1999/xlink" x="0px" y="0px"
	 viewBox="0 0 512 512" style="enable-background:new 0 0 512 512;" xml:space="preserve">
<style type="text/css">
	.st0{fill:#429B35;}
</style>
<g>
	<circle class="st0" cx="122.9" cy="344.7" r="6.8"/>
	<circle class="st0" cx="436.9" cy="187.7" r="6.8"/>
	<path class="st0" d="M88.7,385.7c-11.3,0-20.5,9.2-20.5,20.5s9.2,20.5,20.5,20.5s20.5-9.2,20.5-20.5S100,385.7,88.7,385.7z
		 M88.7,413c-3.8,0-6.8-3.1-6.8-6.8s3.1-6.8,6.8-6.8c3.8,0,6.8,3.1,6.8,6.8S92.5,413,88.7,413z"/>
	<path class="st0" d="M432.9,108.6c1.7,0,3.5-0.7,4.8-2c2.7-2.7,2.7-7,0-9.7l-4.8-4.8l4.8-4.8c2.7-2.7,2.7-7,0-9.7s-7-2.7-9.7,0
		l-4.8,4.8l-4.8-4.8c-2.7-2.7-7-2.7-9.7,0c-2.7,2.7-2.7,7,0,9.7l4.8,4.8l-4.8,4.8c-2.7,2.7-2.7,7,0,9.7c1.3,1.3,3.1,2,4.8,2
		s3.5-0.7,4.8-2l4.8-4.8l4.8,4.8C429.4,108,431.2,108.6,432.9,108.6z"/>
	<path class="st0" d="M346,78.5h-39.7c-3-11.9-13.7-20.5-26.4-20.5h-20.5c-12.7,0-23.3,8.6-26.4,20.5h-39.8
		c-27.5,0-49.9,22.4-49.9,49.9v234.7c0,27.5,22.4,49.9,49.9,49.9h4.7v6.8h-13.7c-3.8,0-6.8,3.1-6.8,6.8s3.1,6.8,6.8,6.8H233
		c3,11.9,13.7,20.5,26.4,20.5h20.5c12.7,0,23.4-8.6,26.4-20.5H355c3.8,0,6.8-3.1,6.8-6.8s-3.1-6.8-6.8-6.8h-13.7V413h4.7
		c27.5,0,49.9-22.4,49.9-49.9V128.4C395.9,100.9,373.6,78.5,346,78.5z M259.4,71.7h20.5c5.1,0,9.4,2.7,11.8,6.8h-44.1
		C250,74.4,254.4,71.7,259.4,71.7z M191.1,283.3H157v-81.9h34.1V283.3z M279.9,440.3h-20.5c-5.1,0-9.4-2.7-11.8-6.8h44.1
		C289.3,437.6,285,440.3,279.9,440.3z M327.7,419.8H211.6V413h116.1V419.8z M346,399.4H193.3c-20,0-36.3-16.3-36.3-36.3V297h34.1
		v5.2c0,12.2,9.9,22.1,22.1,22.1h112.8c12.2,0,22.1-9.9,22.1-22.1V297h34.1v66.1C382.3,383.1,366,399.4,346,399.4L346,399.4z
		 M204.8,302.2V182.5c0-4.7,3.8-8.4,8.4-8.4h112.8c4.7,0,8.4,3.8,8.4,8.4v119.7c0,4.7-3.8,8.4-8.4,8.4H213.2
		C208.6,310.6,204.8,306.8,204.8,302.2z M348.2,201.4h34.1v81.9h-34.1V201.4z M382.3,187.7h-34.1v-5.2c0-12.2-9.9-22.1-22.1-22.1
		H213.2c-12.2,0-22.1,9.9-22.1,22.1v5.2H157v-59.3c0-20,16.3-36.3,36.3-36.3H346c20,0,36.3,16.3,36.3,36.3L382.3,187.7z"/>
	<path class="st0" d="M245.3,281.9c-1.8,3.3-0.5,7.5,2.8,9.2c1,0.6,2.1,0.8,3.2,0.8c2.4,0,4.8-1.3,6-3.6c7.3-13.6,4.1-29.9-8-40.5
		c-8.6-7.4-9.7-18.6-2.7-27.1l18-22c2.4-2.9,2-7.2-0.9-9.6c-2.9-2.4-7.2-2-9.6,0.9l-18,22c-11.6,14.1-9.7,33.9,4.3,46.1
		C247.7,264.6,249.7,273.9,245.3,281.9L245.3,281.9z"/>
	<path class="st0" d="M286.3,281.9c-1.8,3.3-0.5,7.5,2.8,9.2c1,0.6,2.1,0.8,3.2,0.8c2.4,0,4.8-1.3,6-3.6c7.3-13.6,4.1-29.9-8-40.5
		c-8.6-7.4-9.7-18.6-2.7-27.1l18-22c2.4-2.9,2-7.2-0.9-9.6c-2.9-2.4-7.2-2-9.6,0.9l-18,22c-11.6,14.1-9.7,33.9,4.3,46.1
		C288.7,264.6,290.6,273.9,286.3,281.9L286.3,281.9z"/>
</g>
</svg>
