<svg xmlns="http://www.w3.org/2000/svg" width="22" height="21.859" viewBox="0 0 22 21.859">
  <path id="Icon_awesome-whatsapp" data-name="Icon awesome-whatsapp" d="M18.7,5.426A10.915,10.915,0,0,0,.093,13.082,10.79,10.79,0,0,0,1.547,18.5L0,24.109,5.78,22.6a10.924,10.924,0,0,0,5.21,1.317h0A10.972,10.972,0,0,0,22,13.087a10.841,10.841,0,0,0-3.3-7.661ZM11,22.094A9.089,9.089,0,0,1,6.379,20.84l-.329-.2-3.428.893.913-3.323-.216-.342a8.931,8.931,0,0,1-1.385-4.791A9.072,9.072,0,0,1,17.4,6.719a9.011,9.011,0,0,1,2.755,6.368A9.134,9.134,0,0,1,11,22.094Zm4.97-6.743c-.27-.137-1.611-.79-1.861-.878s-.432-.137-.614.137-.7.878-.864,1.064-.319.2-.589.068a7.4,7.4,0,0,1-3.708-3.22c-.28-.478.28-.444.8-1.478a.5.5,0,0,0-.025-.473c-.069-.137-.614-1.469-.84-2.01s-.447-.454-.614-.464-.339-.01-.521-.01a1.012,1.012,0,0,0-.727.337,3.033,3.033,0,0,0-.953,2.259,5.285,5.285,0,0,0,1.11,2.8,12.142,12.142,0,0,0,4.655,4.089,5.36,5.36,0,0,0,3.271.678,2.79,2.79,0,0,0,1.837-1.288,2.25,2.25,0,0,0,.157-1.288C16.417,15.551,16.235,15.483,15.965,15.351Z" transform="translate(0 -2.25)" fill="#3aa935"/>
</svg>
