<svg xmlns="http://www.w3.org/2000/svg" width="42" height="42" viewBox="0 0 42 42">
  <g id="disabled_1_" data-name="disabled (1)" transform="translate(-0.677 -0.677)">
    <path id="Path_5698" data-name="Path 5698" d="M42.124,37.526a2.683,2.683,0,0,0,.553-1.623,2.712,2.712,0,0,0-2.71-2.71H37.736l-2.584-7.236a3.394,3.394,0,0,0-3.19-2.248h-.123v-.677A2.035,2.035,0,0,0,29.806,21H29.05l-.608-4.868a6.821,6.821,0,0,0-3.64-5.206,5.417,5.417,0,1,0-5.512-.365,7.475,7.475,0,0,0-3.708,2.781V11.516a2.712,2.712,0,0,0-2.71-2.71H3.387a2.71,2.71,0,1,0,0,5.419h6.774v7.131A10.832,10.832,0,1,0,23.616,33.194h2.67l-.484,2.97a3.383,3.383,0,1,0,3.988,5.159H41.323a1.356,1.356,0,0,0,1.355-1.355V38.613A1.349,1.349,0,0,0,42.124,37.526ZM33.875,26.413l2.905,8.135h3.187a1.355,1.355,0,0,1,0,2.71H35.3a1.356,1.356,0,0,1-1.276-.9l-2.745-7.685a1.358,1.358,0,0,0-1.276-.9H22.912a10.63,10.63,0,0,0-.665-1.355h7.559a2.029,2.029,0,0,0,1.908-1.355h.247a2.036,2.036,0,0,1,1.914,1.349ZM30.8,31.352l1.951,5.462a2.666,2.666,0,0,0,.211.444H29.854Zm-.316-8.32v1.355a.679.679,0,0,1-.677.677H21.328A10.983,10.983,0,0,0,19.645,23.4V22.355H29.806a.679.679,0,0,1,.677.677ZM14.241,25.22a2.7,2.7,0,0,0,1.876,2.414l-1.878,1.878a2.709,2.709,0,0,0-.69-.288V25.11a6.99,6.99,0,0,1,.693.11Zm-1.37,7.974a1.355,1.355,0,1,1,1.355-1.355A1.356,1.356,0,0,1,12.871,33.194Zm-.677-3.968a2.652,2.652,0,0,0-.69.288L8.587,26.6a6.742,6.742,0,0,1,3.607-1.5ZM7.629,27.555l2.916,2.916a2.709,2.709,0,0,0-.288.69H6.131a6.737,6.737,0,0,1,1.5-3.607Zm2.628,4.961a2.652,2.652,0,0,0,.288.69L7.629,36.123a6.737,6.737,0,0,1-1.5-3.607ZM11.5,34.164a2.709,2.709,0,0,0,.69.288v4.126a6.742,6.742,0,0,1-3.607-1.5Zm2.045.288a2.652,2.652,0,0,0,.69-.288l2.916,2.916a6.742,6.742,0,0,1-3.607,1.5Zm4.564,1.671L15.2,33.206a2.709,2.709,0,0,0,.288-.69h4.126A6.737,6.737,0,0,1,18.113,36.123Zm-2.628-4.961a2.652,2.652,0,0,0-.288-.69l2.918-2.918a6.719,6.719,0,0,1,1.5,3.608ZM18.29,6.1a4.065,4.065,0,1,1,4.065,4.065A4.069,4.069,0,0,1,18.29,6.1Zm3.387,5.419A5.47,5.47,0,0,1,27.1,16.3l.587,4.7H19.645V17.5A3.923,3.923,0,0,1,20.8,14.7l-.958-.958A5.266,5.266,0,0,0,18.29,17.5v7.567a1.355,1.355,0,1,1-2.71,0V17.613A6.1,6.1,0,0,1,21.677,11.516ZM3.387,12.871a1.355,1.355,0,1,1,0-2.71h9.484a1.356,1.356,0,0,1,1.355,1.355v9.578A10.908,10.908,0,0,0,12.871,21a10.773,10.773,0,0,0-1.355.094V12.871Zm9.484,28.452a9.484,9.484,0,0,1,0-18.968,9.63,9.63,0,0,1,1.355.108v1.364a8.227,8.227,0,0,0-1.355-.117,8.142,8.142,0,1,0,6.251,2.941,2.677,2.677,0,0,0,.509-1.448,9.387,9.387,0,0,1,2.724,6.637,9.494,9.494,0,0,1-9.484,9.484ZM23.362,29.129h6.444v.677a2.035,2.035,0,0,1-2.032,2.032H23.71A10.939,10.939,0,0,0,23.362,29.129Zm4.412,4.065a3.355,3.355,0,0,0,1.41-.317l-.547,3.414a3.35,3.35,0,0,0-1.423-.376l.444-2.721ZM27.1,41.323a2.032,2.032,0,1,1,2.032-2.032A2.035,2.035,0,0,1,27.1,41.323Zm14.226-1.355H30.415a3.388,3.388,0,0,0,0-1.355H41.323Z" fill="#3aa935"/>
  </g>
</svg>
