<svg xmlns="http://www.w3.org/2000/svg" width="20.735" height="22" viewBox="0 0 20.735 22">
  <g id="_004-building" data-name="004-building" transform="translate(-0.632)">
    <g id="Group_11054" data-name="Group 11054">
      <path id="Path_5810" data-name="Path 5810" d="M18.378,0H3.622a.645.645,0,0,0-.645.645V21.355H19.023V.645A.645.645,0,0,0,18.378,0Z" fill="#efefef"/>
      <path id="Path_5811" data-name="Path 5811" d="M18.378,0h-7.43V21.355h8.075V.645A.645.645,0,0,0,18.378,0Z" fill="#c7c7c7"/>
      <g id="Group_11053" data-name="Group 11053">
        <path id="Path_5812" data-name="Path 5812" d="M9.614,2.849H6.456a.645.645,0,0,0-.645.645V6.652a.645.645,0,0,0,.645.645H9.614a.645.645,0,0,0,.645-.645V3.494a.645.645,0,0,0-.645-.645Z" fill="#3aa935"/>
        <path id="Path_5813" data-name="Path 5813" d="M15.544,2.849H12.386a.645.645,0,0,0-.645.645V6.652a.645.645,0,0,0,.645.645h3.159a.645.645,0,0,0,.645-.645V3.494A.645.645,0,0,0,15.544,2.849Z" fill="#3aa935"/>
        <path id="Path_5814" data-name="Path 5814" d="M9.614,8.85H6.456a.645.645,0,0,0-.645.645v3.159a.645.645,0,0,0,.645.645H9.614a.645.645,0,0,0,.645-.645V9.494a.645.645,0,0,0-.645-.645Z" fill="#3aa935"/>
        <path id="Path_5815" data-name="Path 5815" d="M15.544,8.85H12.386a.645.645,0,0,0-.645.645v3.159a.645.645,0,0,0,.645.645h3.159a.645.645,0,0,0,.645-.645V9.494a.645.645,0,0,0-.645-.645Z" fill="#3aa935"/>
      </g>
      <path id="Path_5816" data-name="Path 5816" d="M11.6,15.458l-.655-.43H8.158a.645.645,0,0,0-.645.645v5.683H11.6Z" fill="#3aa935"/>
      <path id="Path_5817" data-name="Path 5817" d="M13.842,15.028H10.948v6.328h3.538V15.672A.645.645,0,0,0,13.842,15.028Z" fill="#3aa935"/>
      <path id="Path_5818" data-name="Path 5818" d="M11.905,21.141l-.957-.43H1.277a.645.645,0,0,0,0,1.289h9.671l.957-.473Z" fill="#3aa935"/>
      <path id="Path_5819" data-name="Path 5819" d="M20.723,20.711H10.948V22h9.775a.645.645,0,1,0,0-1.289Z" fill="#3aa935"/>
    </g>
  </g>
</svg>
