<svg xmlns="http://www.w3.org/2000/svg" width="16.5" height="22" viewBox="0 0 16.5 22">
  <g id="_005-user-1" data-name="005-user-1" transform="translate(-2.75)">
    <ellipse id="Ellipse_69" data-name="Ellipse 69" cx="8.25" cy="3.438" rx="8.25" ry="3.438" transform="translate(2.75 15.125)" fill="#c7c7c7"/>
    <g id="Group_11055" data-name="Group 11055">
      <circle id="Ellipse_70" data-name="Ellipse 70" cx="2.063" cy="2.063" r="2.063" transform="translate(8.938 0.688)" fill="#efefef"/>
    </g>
    <path id="Path_5821" data-name="Path 5821" d="M11,5.5a2.75,2.75,0,1,1,2.75-2.75A2.75,2.75,0,0,1,11,5.5Zm0-4.125A1.375,1.375,0,1,0,12.375,2.75,1.375,1.375,0,0,0,11,1.375Z" fill="#3aa935"/>
    <path id="Path_5822" data-name="Path 5822" d="M11.752,19.25h-1.5a1.375,1.375,0,0,1-1.375-1.237l-.54-4.263h-.77a.688.688,0,0,1-.687-.774L7.5,8.095a1.367,1.367,0,0,1,1.372-1.22h4.254A1.375,1.375,0,0,1,14.5,8.112l.63,4.863a.687.687,0,0,1-.687.774h-.77l-.55,4.28A1.367,1.367,0,0,1,11.752,19.25ZM8.344,12.375h.594a.687.687,0,0,1,.688.6l.626,4.88,1.513.019.612-4.9a.687.687,0,0,1,.688-.6h.594L13.13,8.269,8.873,8.25Z" fill="#3aa935"/>
    <path id="Path_5823" data-name="Path 5823" d="M11,22c-4.1,0-8.25-1.181-8.25-3.437,0-1.156,1.149-2.142,3.238-2.776A.688.688,0,1,1,6.4,17.1l-.009,0c-1.554.472-2.262,1.088-2.262,1.46,0,.825,2.742,2.063,6.875,2.063s6.875-1.237,6.875-2.062c0-.373-.708-.989-2.262-1.46A.687.687,0,1,1,16,15.784l.009,0c2.089.634,3.238,1.62,3.238,2.776C19.25,20.819,15.1,22,11,22Z" fill="#3aa935"/>
  </g>
</svg>
