<svg xmlns="http://www.w3.org/2000/svg" width="43.624" height="45" viewBox="0 0 43.624 45">
  <g id="get-money" transform="translate(-0.688)">
    <g id="Group_11133" data-name="Group 11133">
      <g id="Group_11131" data-name="Group 11131">
        <path id="Path_5869" data-name="Path 5869" d="M42.79,28.131A2.423,2.423,0,0,1,42.5,31.5l-6.748,5.607A13.258,13.258,0,0,1,26.681,40.2l-9.789-.475a15.206,15.206,0,0,0-3.279.19l-4.087.76H9.241V28.606h.19l4.229-2.043A14.019,14.019,0,0,1,20.6,24.995l6.463.285H27.2a2.376,2.376,0,0,1,2.376,2.091,2.423,2.423,0,0,1-1.948,2.661l-4.8.9a1.425,1.425,0,0,0-.95,2.138l.475.9a1.426,1.426,0,0,0,1.283.665L28.3,34.5a7.935,7.935,0,0,0,4.8-1.758L39.321,27.7a2.471,2.471,0,0,1,3.469.38Z" fill="#efefef"/>
        <path id="Path_5870" data-name="Path 5870" d="M29.769,1A11.024,11.024,0,1,1,18.745,12.022h0A10.977,10.977,0,0,1,29.674,1Z" fill="#3aa935"/>
        <path id="Path_5871" data-name="Path 5871" d="M9.241,40.676v1.758c0,1.045-.855,1.426-1.9,1.426H3.634c-1.045,0-1.9-.38-1.9-1.426V28.559a1.9,1.9,0,0,1,1.9-1.9H7.341a1.9,1.9,0,0,1,1.9,1.9h0Z" fill="#c7c7c7"/>
      </g>
      <g id="Group_11132" data-name="Group 11132">
        <path id="Path_5872" data-name="Path 5872" d="M29.769,23.949A11.975,11.975,0,1,1,41.7,11.927c0,.032,0,.063,0,.095A11.975,11.975,0,0,1,29.769,23.949Zm0-22A10.074,10.074,0,1,0,39.8,12.069c0-.016,0-.032,0-.047A10.074,10.074,0,0,0,29.769,1.948Z" fill="#3aa935"/>
        <path id="Path_5873" data-name="Path 5873" d="M33.619,16.584a.95.95,0,0,0-1.213-.578l-.022.008a4.277,4.277,0,0,1-4.562-.95h3.754a.95.95,0,1,0,0-1.9H26.728a3.277,3.277,0,0,1-.143-.95H32.05a.95.95,0,0,0,0-1.9H26.918a4.134,4.134,0,0,1,.9-1.331,4.181,4.181,0,0,1,4.562-1A.949.949,0,1,0,33.1,6.225,6.177,6.177,0,0,0,26.491,7.6a6.367,6.367,0,0,0-1.616,2.709h-.9a.95.95,0,1,0,0,1.9h.713a3.232,3.232,0,0,0,.1.95h-.808a.95.95,0,0,0,0,1.9h1.473a6.748,6.748,0,0,0,1.045,1.331A6.13,6.13,0,0,0,30.863,18.2a6.035,6.035,0,0,0,2.233-.428.9.9,0,0,0,.534-1.16Z" fill="#efefef"/>
        <path id="Path_5874" data-name="Path 5874" d="M43.6,27.608l-.1-.143a3.421,3.421,0,0,0-4.8-.475L32.526,31.98A7.223,7.223,0,0,1,28.3,33.548l-4.657.143a.475.475,0,0,1-.428-.19l-.523-.9a.475.475,0,0,1-.047-.428.523.523,0,0,1,.38-.285l4.8-.9a3.421,3.421,0,0,0,2.709-3.706A3.326,3.326,0,0,0,27.2,24.329h-.143L20.6,24.044a14.988,14.988,0,0,0-7.365,1.663L9.907,27.228a2.946,2.946,0,0,0-2.566-1.711H3.634A3.089,3.089,0,0,0,.688,28.559V42.434A2.713,2.713,0,0,0,3.634,45H7.341a2.629,2.629,0,0,0,2.851-2.566v-.9l3.516-.665a13.73,13.73,0,0,1,3.136-.19l9.789.475a14.3,14.3,0,0,0,9.694-3.279l6.8-5.655A3.326,3.326,0,0,0,43.6,27.608ZM8.291,42.149a.95.95,0,0,1-.95.95h-3.8a.95.95,0,0,1-.95-.95V28.369a.95.95,0,0,1,.95-.95h3.8a.95.95,0,0,1,.95.95v13.78Zm33.6-11.357L35.139,36.4a12.4,12.4,0,0,1-8.411,2.851l-9.789-.475a17.062,17.062,0,0,0-3.516.238l-3.231.57V29.271l3.9-1.853a13.353,13.353,0,0,1,6.463-1.473l6.463.285h.19a1.426,1.426,0,0,1,1.426,1.283,1.473,1.473,0,0,1-1.188,1.616l-4.8.9a2.328,2.328,0,0,0-1.711,1.331,2.376,2.376,0,0,0,.1,2.186l.523.9a2.376,2.376,0,0,0,2.138,1.14l4.657-.143a8.886,8.886,0,0,0,5.37-2l6.177-4.989a1.521,1.521,0,0,1,2.091.143l.1.143a1.426,1.426,0,0,1-.15,2.01Z" fill="#3aa935"/>
      </g>
    </g>
  </g>
</svg>
