<svg xmlns="http://www.w3.org/2000/svg" width="45" height="37.263" viewBox="0 0 45 37.263">
  <g id="responsive-design" transform="translate(0 -3.869)">
    <path id="Path_5842" data-name="Path 5842" d="M33.067,30.586H.724V5.977A1.41,1.41,0,0,1,2.13,4.57H37.279a1.41,1.41,0,0,1,1.406,1.406V19.336H35.88V7.383H3.536V19.336H34.474a1.41,1.41,0,0,0-1.406,1.406v9.844Z" fill="#efefef"/>
    <path id="Path_5843" data-name="Path 5843" d="M35.858,6.678H3.516a.7.7,0,0,0-.7.7V19.333a.7.7,0,0,0,.7.7H35.858a.7.7,0,0,0,.7-.7V7.381a.7.7,0,0,0-.7-.7Z" fill="#3aa935"/>
    <path id="Path_5844" data-name="Path 5844" d="M13.359,38.32H27.423a1.406,1.406,0,0,1,1.406,1.406v.7H10.546v-.7a1.4,1.4,0,0,1,1.406-1.406Z" fill="#efefef"/>
    <path id="Path_5845" data-name="Path 5845" d="M24.61,33.4l1.406,4.922H13.359L14.765,33.4Z" fill="#efefef"/>
    <path id="Path_5846" data-name="Path 5846" d="M.738,30.586H33.047V33.4H2.109A1.41,1.41,0,0,1,.7,31.992V30.586Z" fill="#c7c7c7"/>
    <path id="Path_5847" data-name="Path 5847" d="M10.547,9.844A1.758,1.758,0,1,1,8.789,11.6,1.757,1.757,0,0,1,10.547,9.844Z" fill="#efefef"/>
    <path id="Path_5848" data-name="Path 5848" d="M19.706,32.694a.7.7,0,0,1-.008-1.406h.008a.7.7,0,0,1,0,1.406Z" fill="#434a54"/>
    <g id="Group_11130" data-name="Group 11130">
      <path id="Path_5849" data-name="Path 5849" d="M33.048,31.288H.736a.7.7,0,0,1,0-1.406H33.048a.7.7,0,0,1,0,1.406Z" fill="#c7c7c7"/>
      <path id="Path_5850" data-name="Path 5850" d="M33.037,34.1H2.109A2.112,2.112,0,0,1,0,31.991V5.978A2.112,2.112,0,0,1,2.109,3.869H37.26a2.112,2.112,0,0,1,2.109,2.109V19.322a.7.7,0,0,1-1.406,0V5.978a.7.7,0,0,0-.7-.7H2.109a.7.7,0,0,0-.7.7V31.991a.7.7,0,0,0,.7.7H33.037a.7.7,0,0,1,0,1.406Z" fill="#c7c7c7"/>
      <path id="Path_5851" data-name="Path 5851" d="M28.122,41.13H11.249a.7.7,0,0,1,0-1.406H28.122a.7.7,0,0,1,0,1.406Z" fill="#c7c7c7"/>
    </g>
    <path id="Path_5852" data-name="Path 5852" d="M33.047,22.85H3.516a.7.7,0,0,1,0-1.406H33.047a.7.7,0,0,1,0,1.406Z" fill="#ccd1d9"/>
    <path id="Path_5853" data-name="Path 5853" d="M33.047,25.665H3.516a.7.7,0,0,1,0-1.406H33.047a.7.7,0,0,1,0,1.406Z" fill="#ccd1d9"/>
    <path id="Path_5854" data-name="Path 5854" d="M33.047,28.481H3.516a.7.7,0,0,1,0-1.406H33.047a.7.7,0,0,1,0,1.406Z" fill="#ccd1d9"/>
    <path id="Path_5855" data-name="Path 5855" d="M25.695,11.732a.664.664,0,0,0-.132-.07.731.731,0,0,0-.12-.037.685.685,0,0,0-.136-.013.757.757,0,0,0-.131.013.658.658,0,0,0-.124.037.688.688,0,0,0-.131.07c-.018.013-.04.016-.058.031s-.025.035-.042.051a.619.619,0,0,0-.058.048l-6.69,8.176h14.47L25.851,11.86a.549.549,0,0,0-.059-.048c-.015-.015-.023-.037-.041-.051a.35.35,0,0,0-.056-.03Z" fill="#c7c7c7"/>
    <path id="Path_5856" data-name="Path 5856" d="M19.877,13.971a.684.684,0,0,0-.056-.046c-.018-.017-.027-.041-.046-.056s-.042-.019-.061-.032a.721.721,0,0,0-.25-.1.677.677,0,0,0-.392.039.691.691,0,0,0-.124.065.633.633,0,0,0-.061.032.6.6,0,0,0-.046.056.684.684,0,0,0-.056.046l-4.928,6.065h4.217l3.378-4.127Z" fill="#c7c7c7"/>
    <path id="Path_5857" data-name="Path 5857" d="M44.3,20.742v1.406H33.751V20.742a1.41,1.41,0,0,1,1.406-1.406h7.734A1.41,1.41,0,0,1,44.3,20.742Z" fill="#c7c7c7"/>
    <path id="Path_5858" data-name="Path 5858" d="M44.3,37.617v1.406a1.41,1.41,0,0,1-1.406,1.406H35.157a1.41,1.41,0,0,1-1.406-1.406V37.617Z" fill="#c7c7c7"/>
    <path id="Path_5859" data-name="Path 5859" d="M44.3,29.18v8.438H33.751l-.7-4.219V29.18H44.3Z" fill="#efefef"/>
    <path id="Path_5860" data-name="Path 5860" d="M42.891,41.131H35.158a2.112,2.112,0,0,1-2.109-2.109V20.739a2.112,2.112,0,0,1,2.109-2.109h7.732A2.112,2.112,0,0,1,45,20.739V39.022A2.112,2.112,0,0,1,42.891,41.131Zm-7.732-21.1c-.388,0-.7.315-1.407.7V39.022c.7.388,1.019.7,1.407.7h7.732c.388,0,.7-.315,1.406-.7V20.739c-.7-.388-1.017-.7-1.406-.7Z" fill="#c7c7c7"/>
    <path id="Path_5861" data-name="Path 5861" d="M39.026,40.077a.7.7,0,0,1-.008-1.406h.008a.7.7,0,0,1,0,1.406Z" fill="#434a54"/>
    <path id="Path_5862" data-name="Path 5862" d="M42.186,34.1H35.859a.7.7,0,0,1,0-1.406h6.327a.7.7,0,0,1,0,1.406Z" fill="#ccd1d9"/>
    <path id="Path_5863" data-name="Path 5863" d="M42.186,31.991H35.859a.7.7,0,0,1,0-1.406h6.327a.7.7,0,0,1,0,1.406Z" fill="#ccd1d9"/>
    <path id="Path_5864" data-name="Path 5864" d="M42.186,36.21H35.859a.7.7,0,0,1,0-1.406h6.327a.7.7,0,0,1,0,1.406Z" fill="#ccd1d9"/>
    <path id="Path_5865" data-name="Path 5865" d="M33.751,21.445H44.3V29.18H33.751Z" fill="#3aa935"/>
    <path id="Path_5866" data-name="Path 5866" d="M44.3,28.966l-2.93-4.4,0,0a.7.7,0,0,0-.136-.136c-.021-.018-.034-.043-.058-.058h0a.692.692,0,0,0-.255-.1.652.652,0,0,0-.134,0,.659.659,0,0,0-.134,0,.7.7,0,0,0-.255.1c-.015.011-.023.026-.037.038a.66.66,0,0,0-.158.157l0,0-3.073,4.61H44.3Z" fill="#c7c7c7"/>
    <path id="Path_5867" data-name="Path 5867" d="M38.557,25.627v0a7082.4,7082.4,0,0,0-.2-.2h0a.7.7,0,0,0-.255-.1,12.813,12.813,0,0,0-.269,0,.7.7,0,0,0-.451.3v0L35.013,29.18h2.108l1.9-2.854Z" fill="#c7c7c7"/>
    <path id="Path_5868" data-name="Path 5868" d="M35.881,24.253a.7.7,0,0,1-.008-1.406h.008a.7.7,0,0,1,0,1.406Z" fill="#efefef"/>
  </g>
</svg>
