<?xml version="1.0" encoding="utf-8"?>
<!-- Generator: Adobe Illustrator 25.4.1, SVG Export Plug-In . SVG Version: 6.00 Build 0)  -->
<svg version="1.1" id="Layer_1" xmlns="http://www.w3.org/2000/svg" xmlns:xlink="http://www.w3.org/1999/xlink" x="0px" y="0px"
	 viewBox="0 0 408.5 154" style="enable-background:new 0 0 408.5 154;" xml:space="preserve">
<style type="text/css">
	.st0{fill:none;stroke:#000000;stroke-width:0.1459;}
</style>
<g>
	<g>
		<path d="M6.9,117.6c-0.3-0.5-0.5-1-0.7-1.6c-0.2-0.7-0.4-1.5-0.6-2.3c-0.6-3,0.5-5.7,1.6-8.2c0.6-1.4,0.4-3-0.1-4.7
			c-0.5-1.7-1.3-3.5-1.4-5.3c-0.3-4,1.9-6.9,5.2-8.7l0.1,0c2.2-1.2,6.3-1.9,10.4-2.6c4-0.7,8.1-1.4,9.6-2.3c0.3-0.2,0.5-0.3,0.5-0.4
			c0.1-0.1,0-0.1,0-0.1c-0.1-0.2-0.2-0.5-0.3-0.7c-0.8-1.5-2.6-2.9-3.9-4.3c-1.7-1.9-3.1-4-4.3-6.2c-2.1-3.8-3.5-8-4.4-12.3
			c-0.2-1.2-0.4-2.4-0.6-3.7c-0.2-1.5,0-3.2,0.4-4.9c0.3-0.9,0.6-1.9,1.1-2.8c0.5-0.9,1.1-1.8,1.7-2.7l0.1-0.1c1-1.2,2.2-2.2,3.6-3
			c2.5-1.4,5.5-1.8,8.3-0.4c2.2,1,3.7,3,4.9,5c1.2,2,2.2,4.2,3.5,5.8c2.7,3.6,6.1,6.5,10.5,7.6c5.8,1.4,11.2,3.2,16,7.2
			c1.5,1.3,2.9,2.6,4.1,4.4c1.1,1.8,2.1,3.1,3.3,4c1.2,0.8,2.5,1.2,4.7,0.8c1.5-0.3,3-1,4.7-1.5c1.6-0.5,3.4-0.8,5.3-0.2
			c4,1.3,6.7,4.4,8.6,7.9c0.9,1.6,1.5,3.2,2.1,4.8c0.5,1.5,1,3,1.5,4.5c0.5,1.5,1,3,1.3,4.6c1,4.3,1.8,9.7,1.2,14.8
			c-0.6,5.1-2.6,9.8-7.4,12.4c-0.3,0.2-0.6,0.3-0.9,0.5c-2.6,1.2-4.8,1.8-7.7,1.8c-1.8,0-3.6,0.1-5,0.8c-0.1,0-0.2,0.1-0.2,0.1
			c-1.4,0.9-2.3,2.7-3.6,4.2c-2.3,2.6-4.9,4.5-7.8,6.1c-8.4,4.6-18.7,5.8-27.5,7.8c-3.2,0.7-7.3,2.2-11.2,2.6c-4,0.5-8-0.1-10.8-3.5
			c0,0,0,0-0.1-0.1c-0.3-0.4-0.5-0.7-0.7-1.1c-0.9-1.7-1.1-3.2-1.7-5c-0.1-0.3-0.2-0.6-0.3-0.8c-0.7-1.3-2.1-2.2-3.5-3.5
			c-1-0.9-1.7-1.9-2.3-2.9c-1.1-2-1.7-4.1-2.7-5.9c-0.5-0.9-1.1-1.8-1.9-2.5C8.6,120,7.6,118.9,6.9,117.6L6.9,117.6z M12.9,109.2
			c-1.7,1.4-2.2,3.7-1.2,5.6c0.1,0.2,0.2,0.3,0.3,0.5c1,1.4,2.1,1.9,3.4,2c1.3,0.1,2.8-0.2,4.3-0.7c4.6-1.4,9.3-2.4,13.9-3.7
			c1.6-0.5,3.9-1.1,5.7-2c1.5-0.8,2.6-1.9,2.8-3.3c0.2-1.4,0-2.4-0.3-3c-0.6-1.1-2-1.7-3.9-1.8c-2.9-0.1-7,0.8-10.6,2
			c-3.6,1.1-6.8,2.3-8.3,2.6c-1.8,0.4-3.8,0.5-5.2,1.3l0,0C13.4,108.8,13.1,109,12.9,109.2L12.9,109.2L12.9,109.2z M28.3,138.4
			c1,1.1,2.8,1.9,4.6,1.7c3.6-0.2,7.1-2,10.6-3.2c1-0.3,2-0.8,3-1.3c1.2-0.6,2.1-1.4,2.6-2.3c0.4-0.9,0.5-1.9-0.3-3.3
			c0-0.1-0.1-0.2-0.1-0.2c-0.6-1-1.3-1.2-2.2-1.1c-1,0.1-2.1,0.5-3.3,0.7c-4.3,0.9-9.3,1.7-13,3.7l0,0c-0.3,0.2-0.6,0.3-0.9,0.5
			c-1.1,0.7-1.6,1.4-1.8,2c-0.2,0.6-0.1,1.3,0.2,1.9C27.9,137.9,28.1,138.2,28.3,138.4L28.3,138.4L28.3,138.4z M81.7,108.3
			c0.7-0.1,1.3-0.1,1.8,0.2c0.5,0.3,0.9,0.7,1.1,1.2c0.7,1.2,0.8,2.9,1,4.4c0.2,1.6,0.3,3,0.7,3.6c0.1,0.1,0.1,0.2,0.2,0.2
			c0.6,0.6,1.8,0.8,3.2,0.6c1.4-0.2,2.8-0.6,3.6-1c0.2-0.1,0.3-0.2,0.5-0.2c2.9-1.6,4.4-4.4,5.1-7.7c0.7-3.3,0.6-6.9,0.2-10
			c-0.5-4.2-1.7-8.7-3.7-12.5c-1.8-3.3-4.3-6-7.6-7.3c-2.8-1.1-5.4,0-7.6,1.2c-0.7,0.4-1.4,0.8-2,1.1c-0.9,0.5-1.7,0.9-2.5,0.8
			c-2.1,0-4.2-1.5-5.2-3.1c-0.1-0.2-0.2-0.4-0.4-0.6c-0.4-0.7-0.7-1.5-1-2.3c-0.2-0.4-0.4-0.9-0.7-1.4c-0.6-1.1-1.4-2.4-2.4-3.5
			c-2.6-3.1-6.3-5.1-10.2-6.3c-4.5-1.5-9.6-1.1-13.8-4.7c-4-3.4-5.7-8.2-8.4-12.2c-0.9-1.3-1.9-2-2.9-2.3c-1-0.2-1.9-0.1-2.9,0.4
			c-1.5,0.8-2.8,2.5-3.2,4.6c-1,4.6,0.7,9.7,3.1,14.1c0.5,0.9,1,1.7,1.5,2.5c1.9,3,4.4,6,7.4,7.7c0.6,0.3,1.3,0.7,2,1.1
			c0.8,0.5,1.5,0.9,2.2,1.4l0.1,0.1c0.3,0.3,0.6,0.5,0.8,0.7c0,0,0.1,0.1,0.1,0.1c0.5,0.4,0.8,0.7,1.1,0.9c1.1,0.9,1.8,2,2.4,3
			c2.5,4.7,1.5,10.2,3.1,14.9c0.3,1.1,0.8,2.1,1.2,3l0.1,0.3c1.6,3,4.3,4.6,7.4,5.3c3.1,0.6,6.5,0.2,9.5-1.1
			c0.6-0.2,1.4-0.6,2.4-1.1c2.3-1.3,5.1-3.4,6.3-6.4c0.2-0.4,0.4-0.7,0.7-0.9c0.4-0.2,0.8-0.2,1.1,0c0.3,0.2,0.5,0.4,0.7,0.7
			c0.2,0.3,0.3,0.7,0.4,1.2l0,0.1l0,0.1c-0.8,5.7-5,9.5-8.8,11.6c-1.6,0.9-3.3,1.6-5.1,2c-2.7,0.6-5.3,0.6-7.6,0.1
			c-2.5-0.5-4.6-1.8-6.7-2.9c-0.6-0.3-1.4-0.4-1.9-0.1c-0.2,0.1-0.4,0.3-0.5,0.6c-0.2,0.4-0.1,0.9,0.3,1.5c0.5,0.9,1.3,1.8,1.9,2.7
			c0.1,0.1,0.1,0.2,0.2,0.3c0.5,1.1,0.8,2.4,0.8,3.6c0,0.8-0.1,1.6-0.2,2.2c0,0.6,0,1.1,0.2,1.6c0.1,0.2,0.3,0.5,0.6,0.7
			c1.2,1,2.2,2.2,3,3.6c0.5,1,0.9,2.1,1.1,3.2c0.1,0.9,0.4,1.6,0.7,2.2c0.7,1.2,1.6,1.5,3,1.5c1.4,0,3.1-0.5,4.8-1c0,0,0.1,0,0.1,0
			c1.8-0.7,3.6-1.5,5.3-2.5c3.7-2.1,7-4.8,8.7-9.3c0.8-2.1,1.1-4.3,1.1-6.5c0-0.8,0-2,0.2-3.1c0.2-1.1,0.6-2.3,1.8-3
			C81,108.5,81.3,108.4,81.7,108.3L81.7,108.3z M13.9,101.1c2.2,0.7,4.5,0.5,6.8-0.1c2.3-0.6,4.7-1.6,7-2.1c2.7-0.6,6.1-0.9,8.5-2.2
			c1.4-0.8,2.4-1.8,2.8-3.5c0.2-0.9,0.1-1.7-0.4-2.4c-0.8-1.5-2.6-2.7-4.1-2.9c-2.8-0.5-6.8,1.2-9.9,2c-2.7,0.7-5.4,1.5-8.1,2.2
			c-1.3,0.3-2.7,0.5-3.7,1.1l0,0c-0.7,0.4-1.1,0.8-1.3,1.7c-0.3,1.3-0.2,2.9,0.4,4.2c0.1,0.1,0.1,0.2,0.2,0.3
			C12.4,100.2,13,100.8,13.9,101.1L13.9,101.1z M20.9,128.2c0.8,0.4,2,0.4,3.3,0.2c1.3-0.2,2.6-0.7,3.6-1c3-0.9,6.1-1.1,8.9-2.1
			c1.4-0.5,3.1-1,4.5-1.8c1.5-0.8,2.6-1.9,2.9-3.4c0.2-1,0-1.7-0.3-2.4c-0.8-1.5-2.9-2.2-4.9-1.7c-2.8,0.7-5.4,2-8.3,3
			c-3,1.1-6.2,1.3-8.8,2.7c0,0-0.1,0-0.1,0l0,0c-0.9,0.5-1.7,1.4-2.1,2.4c-0.4,1-0.4,2.1,0.1,3c0,0,0,0,0,0.1
			C20.1,127.6,20.5,128,20.9,128.2L20.9,128.2z"/>
		<path class="st0" d="M72.3-3.6L68-11.5 M-45.6,64.3l-7.9,4.3 M-44.4,60.3l-4.3-7.9 M18.3,181.1l-7.9,4.3"/>
	</g>
	<g>
		<path d="M104.7,47.7l5.1-1.5l0.6,2.1c-1.5,1.8-1.3,4.3-1.1,6.3c0.1,0.8,0.2,1.8-0.8,2.1c-1.1,0.3-1.4-0.6-1.5-0.7L104.7,47.7z
			 M111.5,45.8l8.7-2.5l6.5,22.6c0.4,1.3,0.4,1.5,1.8,1.6c0.5,0,0.9,0.2,1.1,0.7c0.3,1-0.9,1.4-1,1.5l-10.1,2.9
			c-0.1,0-1.3,0.3-1.6-0.7c-0.1-0.5,0.1-0.9,0.5-1.2c1.1-0.7,1-1,0.7-2.3L111.5,45.8z M129.3,49.7c0,0.1,0.2,1.1-0.9,1.4
			c-1,0.3-1.4-0.6-1.8-1.3c-0.9-1.8-2-4-4.3-4.8l-0.6-2.1l5.1-1.5L129.3,49.7z"/>
		<path d="M139.3,39.5c-1.5,1.1-1.3,2.2-1.1,3.1l5.3,18.4c0.3,0.9,0.7,1.9,2.5,2l0.6,2.1c-7.7,1.5-13-3.6-15-10.7
			c-2-7.1-0.2-14.2,7.1-17L139.3,39.5z M147.6,62.6c1.5-1.1,1.3-2.2,1.1-3.1l-5.3-18.4c-0.3-0.9-0.7-1.9-2.5-2l-0.6-2.1
			c7.7-1.5,13,3.6,15,10.7c2,7.1,0.2,14.2-7.1,17L147.6,62.6z"/>
		<path d="M156.6,37.2c-0.4-1.3-0.4-1.5-1.8-1.6c-0.5,0-0.9-0.2-1.1-0.7c-0.3-1,0.9-1.4,1-1.5l9.4-2.7l6.5,22.6
			c0.4,1.3,0.4,1.5,1.8,1.6c0.5,0,0.9,0.2,1.1,0.7c0.3,1-0.9,1.4-1,1.5L162.4,60c-0.1,0-1.3,0.3-1.6-0.7c-0.1-0.5,0.1-0.9,0.5-1.2
			c1.1-0.7,1-1,0.7-2.3L156.6,37.2z M165.7,30.3c3.4-1,5.5-1.2,7.4-0.7c3.1,0.8,4.8,2.9,5.6,5.9c0.9,3,0.5,5.6-1.7,8
			c-1.4,1.4-3.3,2.4-6.7,3.3l-0.6-2.1c2-1,1.7-2.5,1.2-4.2l-1.5-5.4c-0.5-1.6-1.2-3-3.2-2.7L165.7,30.3z"/>
		<path d="M134.4,106.7l-5.2,1.5l-0.1-2.2l4.3-1.2l-8.1-14.7l-0.1-2.1l7.9-2.2l11.8,21c0.5,0.9,0.7,1.6,1.8,1.7
			c0.6,0.1,1,0.2,1.2,0.8c0.3,1-1,1.3-1.7,1.5l-8.9,2.5c-0.7,0.2-1.8,0.4-2-0.5c-0.2-0.6,0-0.8,0.4-1.2c0.8-0.8,0.8-1.1,0.1-2.4
			L134.4,106.7z M127.5,97.1l0.1,13.1c0.1,2.3,0.7,2.8,2.1,3c0.6,0.1,1.2,0.2,1.4,0.9c0.3,1-0.9,1.3-1.6,1.5l-4.1,1.2
			c-0.7,0.2-2,0.5-2.3-0.5c-0.2-0.9,0.4-1,1-1.6c0.6-0.6,1.4-1.7,1.3-4.4l-0.2-16.8l0.1,0L127.5,97.1z"/>
		<path d="M160.1,106.9l-9,2.6c-0.8,0.2-1.7,0.4-2-0.6c-0.1-0.5,0.1-0.9,0.5-1.2c1.1-0.7,1-1,0.7-2.3l-5.3-18.6
			c-0.2-0.5-0.4-1.5-1.1-1.5c-0.8,0-1.5,0-1.7-0.8c-0.3-0.9,0.6-1.3,1.3-1.5l9.1-2.6L160.1,106.9z M154.1,79.8c6-1.8,12.3,1,15.3,10
			c2.8,8.2-1.8,14.9-7.7,16.6l-0.6-2.1c2.1-0.9,1.6-3,1.2-4.3L158,84.9c-0.4-1.4-1.1-3.3-3.3-3L154.1,79.8z"/>
		<path d="M188.8,98.7l-5.1,1.5l-13.4-20.9c-0.6-1-0.5-1.1-1.6-1.2c-0.5-0.1-0.9-0.3-1-0.8c-0.3-1.2,1.2-1.6,2-1.8l7.8-2.2
			c0.8-0.2,2.5-0.9,2.8,0.3c0.4,1.4-1.3,1.2-0.9,2.7c0.1,0.4,0.2,0.6,0.5,1l8.8,14.2L188.8,98.7z M186.5,85l-0.1-8.5
			c0-0.6,0-0.9-0.1-1.5c-0.3-1-0.9-1.5-1.9-1.5c-0.7,0-1.2-0.1-1.4-0.8c-0.3-1.1,1-1.5,1.7-1.7l3.9-1.1c0.8-0.2,2.1-0.7,2.4,0.4
			c0.2,0.8-0.2,1-0.8,1.5c-0.8,0.7-1.1,1-1.4,2c-0.2,0.9-0.3,1.8-0.3,2.7l0.2,11.9l-0.1,0L186.5,85z"/>
		<path d="M192.8,68.7l9.4-2.7l7.6,26.6l-9.4,2.7c-0.1,0-1.3,0.3-1.6-0.7c-0.1-0.5,0.1-0.9,0.5-1.2c1.1-0.7,1-1,0.7-2.3l-5.3-18.6
			c-0.4-1.3-0.4-1.5-1.8-1.6c-0.5,0-0.9-0.2-1.1-0.7C191.5,69.2,192.7,68.8,192.8,68.7z M203.8,65.6l7.9-2.3l2.1,7.2
			c0.1,0.2,0.2,0.9-0.9,1.2c-0.6,0.2-0.9-0.1-1.2-0.6c-1.7-2.6-4.1-3.8-7.3-3.4L203.8,65.6z M207.2,77.5c1.4-0.8,1.7-2.4,1.6-3.8
			c0-0.7,0.1-1.3,0.8-1.5c1.1-0.3,1.3,1,1.4,1.3l2.2,7.7c0.1,0.3,0.6,1.5-0.5,1.8c-0.7,0.2-1.1-0.3-1.5-0.8
			c-0.7-1.3-1.8-2.5-3.4-2.4L207.2,77.5z M210.8,90.1c2.8-1.2,4.4-3.8,4.6-6.9c0.1-0.6,0.1-1.2,0.8-1.4c1.1-0.3,1.3,0.8,1.4,0.9
			l2,7.1l-8.2,2.3L210.8,90.1z"/>
		<path d="M218.5,65.7c-0.4-1.3-0.4-1.5-1.8-1.6c-0.5,0-0.9-0.2-1.1-0.7c-0.3-1,0.9-1.4,1-1.5l9.4-2.7l6.5,22.6
			c0.4,1.3,0.4,1.5,1.8,1.6c0.5,0,0.9,0.2,1.1,0.7c0.3,1-0.9,1.4-1,1.5l-10.1,2.9c-0.1,0-1.3,0.3-1.6-0.7c-0.1-0.5,0.1-0.9,0.5-1.2
			c1.1-0.7,1-1,0.7-2.3L218.5,65.7z M227.7,58.8l0.2-0.1c2.3-0.7,4.7-1.4,7.1-1c2.7,0.5,4.5,2.1,5.3,4.8c1.2,4.1-1,6.6-4.3,8.5
			l0,0.1c3.3-0.4,6.6-0.4,7.7,3.4l0.9,3.1c0.1,0.3,0.2,1.1,0.7,0.9c0.6-0.2,0.4-1.2,1.2-1.5c0.5-0.1,1.2,0.2,1.3,0.7
			c0.3,1-0.5,2.7-1.1,3.5c-0.9,1.3-2.1,2-3.7,2.4c-1.5,0.4-3,0.4-4.4-0.3c-1.6-0.9-2.2-2.4-2.7-4.1l-0.7-2.4
			c-0.5-1.6-1.1-3.6-3.3-3.2l-0.6-2.1c1.9-0.7,1.8-2,1.3-3.7l-1.2-4.3c-0.5-1.8-1.1-2.5-3.1-2.7L227.7,58.8z"/>
		<path d="M241.6,54.8l5.1-1.5l0.6,2.1c-1.5,1.8-1.3,4.3-1.1,6.3c0.1,0.8,0.2,1.8-0.8,2.1c-1.1,0.3-1.4-0.6-1.5-0.7L241.6,54.8z
			 M248.3,52.8l8.7-2.5l6.5,22.6c0.4,1.3,0.4,1.5,1.8,1.6c0.5,0,0.9,0.2,1.1,0.7c0.3,1-0.9,1.4-1,1.5l-10.1,2.9
			c-0.1,0-1.3,0.3-1.6-0.7c-0.1-0.5,0.1-0.9,0.5-1.2c1.1-0.7,1-1,0.7-2.3L248.3,52.8z M266.2,56.7c0,0.1,0.2,1.1-0.9,1.4
			c-1,0.3-1.4-0.6-1.8-1.3c-0.9-1.8-2-4-4.3-4.8l-0.6-2.1l5.1-1.5L266.2,56.7z"/>
		<path d="M266.5,47.6l9.4-2.7l7.6,26.6l-9.4,2.7c-0.1,0-1.3,0.3-1.6-0.7c-0.1-0.5,0.1-0.9,0.5-1.2c1.1-0.7,1-1,0.7-2.3l-5.3-18.6
			c-0.4-1.3-0.4-1.5-1.8-1.6c-0.5,0-0.9-0.2-1.1-0.7C265.2,48.1,266.4,47.7,266.5,47.6z M277.5,44.5l7.9-2.3l2.1,7.2
			c0.1,0.2,0.2,0.9-0.9,1.2c-0.6,0.2-0.9-0.1-1.2-0.6c-1.7-2.6-4.1-3.8-7.3-3.4L277.5,44.5z M280.9,56.4c1.4-0.8,1.7-2.4,1.6-3.8
			c0-0.7,0.1-1.3,0.8-1.5c1.1-0.3,1.3,1,1.4,1.3l2.2,7.7c0.1,0.3,0.6,1.5-0.5,1.8c-0.7,0.2-1.1-0.3-1.5-0.8
			c-0.7-1.3-1.8-2.5-3.4-2.4L280.9,56.4z M284.5,69c2.8-1.2,4.4-3.8,4.6-6.9c0.1-0.6,0.1-1.2,0.8-1.4c1.1-0.3,1.3,0.8,1.4,0.9l2,7.1
			l-8.2,2.3L284.5,69z"/>
		<path d="M315.1,53.2l2.5,8.6l-5.3,1.5l-19.4-18.7c-0.9-0.8-1.2-1.3-2.5-1.4c-0.7,0-1.2-0.1-1.4-0.8c-0.3-1.1,0.8-1.4,1.5-1.6
			l9.1-2.6L315.1,53.2z M293.3,47.2L293.3,47.2l3.1,3l3.1,10.7c1.8,4.3,3.7,2.2,4.2,3.8c0.3,1.1-1.2,1.4-1.6,1.6l-4.1,1.2
			c-0.4,0.1-1.8,0.6-2.1-0.5c-0.4-1.5,2.2-0.8,1.5-5.4L293.3,47.2z M309.7,42.3c-1.5-5.1-4-2.9-4.5-4.5c-0.3-1,0.9-1.4,1.2-1.5
			l4.8-1.4c0.4-0.1,1.5-0.4,1.8,0.6c0.5,1.6-2.8,1.1-1.4,6.2l2.5,8.6l-0.1,0l-3-3L309.7,42.3z"/>
		<path d="M314.9,33.8l5.1-1.5l0.6,2.1c-1.5,1.8-1.3,4.3-1.1,6.3c0.1,0.8,0.2,1.8-0.8,2.1c-1.1,0.3-1.4-0.6-1.5-0.7L314.9,33.8z
			 M321.6,31.9l8.7-2.5l6.5,22.6c0.4,1.3,0.4,1.5,1.8,1.6c0.5,0,0.9,0.2,1.1,0.7c0.3,1-0.9,1.4-1,1.5l-10.1,2.9
			c-0.1,0-1.3,0.3-1.6-0.7c-0.1-0.5,0.1-0.9,0.5-1.2c1.1-0.7,1-1,0.7-2.3L321.6,31.9z M339.4,35.8c0,0.1,0.2,1.1-0.9,1.4
			c-1,0.3-1.4-0.6-1.8-1.3c-0.9-1.8-2-4-4.3-4.8l-0.6-2.1l5.1-1.5L339.4,35.8z"/>
		<path d="M355.9,46.6c0.4,1.3,0.4,1.5,1.8,1.6c0.5,0,0.9,0.2,1.1,0.7c0.3,1-0.9,1.4-1,1.5l-10.1,2.9c-0.1,0-1.3,0.3-1.6-0.7
			c-0.1-0.5,0.1-0.9,0.5-1.2c1.1-0.7,1-1,0.7-2.3l-5.3-18.6c-0.4-1.3-0.4-1.5-1.8-1.6c-0.5,0-0.9-0.2-1.1-0.7c-0.3-1,0.9-1.4,1-1.5
			l10.1-2.9c0.1,0,1.3-0.3,1.6,0.7c0.1,0.5-0.1,0.9-0.5,1.2c-1.1,0.7-1,1-0.7,2.3L355.9,46.6z"/>
		<path d="M355.7,22.2l9.4-2.7l7.6,26.6l-9.4,2.7c-0.1,0-1.3,0.3-1.6-0.7c-0.1-0.5,0.1-0.9,0.5-1.2c1.1-0.7,1-1,0.7-2.3l-5.3-18.6
			c-0.4-1.3-0.4-1.5-1.8-1.6c-0.5,0-0.9-0.2-1.1-0.7C354.4,22.6,355.5,22.2,355.7,22.2z M366.7,19l7.9-2.3l2.1,7.2
			c0.1,0.2,0.2,0.9-0.9,1.2c-0.6,0.2-0.9-0.1-1.2-0.6c-1.7-2.6-4.1-3.8-7.3-3.4L366.7,19z M370.1,30.9c1.4-0.8,1.7-2.4,1.6-3.8
			c0-0.7,0.1-1.3,0.8-1.5c1.1-0.3,1.3,1,1.4,1.3l2.2,7.7c0.1,0.3,0.6,1.5-0.5,1.8c-0.7,0.2-1.1-0.3-1.5-0.8
			c-0.7-1.3-1.8-2.5-3.4-2.4L370.1,30.9z M373.7,43.6c2.8-1.2,4.4-3.8,4.6-6.9c0.1-0.6,0.1-1.2,0.8-1.4c1.1-0.3,1.3,0.8,1.4,0.9
			l2,7.1l-8.2,2.3L373.7,43.6z"/>
		<path d="M388.4,17.5c0.4,1.5,0.3,3.4,0.3,4.9c-0.1,2.7-0.2,5.4,0.4,8c0.2,0.8,0.2,1.5-0.9,1.8c-1.1,0.3-1.4-0.4-1.7-1.1
			c-0.8-2.6-2.3-4.8-3.9-7.1c-0.9-1.3-1.9-2.9-2.4-4.3c-0.7-2.5-0.2-5.3,2.6-6.1C385.8,13,387.7,15,388.4,17.5z M391.1,41.4
			c-2.2,0.6-4.4-0.7-4.9-2.7c-0.6-2.1,0.5-4.3,2.7-4.9c2.2-0.6,4.4,0.7,4.9,2.7C394.4,38.5,393.3,40.8,391.1,41.4z"/>
	</g>
</g>
</svg>
