<?xml version="1.0" encoding="UTF-8"?>
<svg width="168px" height="32px" viewBox="0 0 168 32" version="1.1" xmlns="http://www.w3.org/2000/svg" xmlns:xlink="http://www.w3.org/1999/xlink">
    <!-- Generator: Sketch 63.1 (92452) - https://sketch.com -->
    <title>brand-assets / logo</title>
    <desc>Created with Sketch.</desc>
    <g id="Pages" stroke="none" stroke-width="1" fill="none" fill-rule="evenodd">
        <g id="front-page" transform="translate(-40.000000, -24.000000)" fill="#BED746">
            <g id="menu">
                <g id="primary-navigation">
                    <g id="brand-assets-/-logo" transform="translate(40.000000, 24.000000)">
                        <path d="M100.948241,7.71947434 C103.259017,7.71947434 105.324103,8.8406894 106.164867,10.5899734 L106.164867,10.5899734 L106.164867,8.17373436 L111.522307,8.17373436 L111.522307,25.8044434 C111.522307,31.4417454 108.056733,32.0002908 105.53503,32.0002908 C103.995495,32.0002908 99.6979951,32.0002908 94.3505711,31.8535843 L94.3505711,31.8535843 L94.3505711,27.5808299 C95.3190258,27.5808299 102.028899,27.5591527 103.555464,27.5559012 L103.81874,27.555495 C105.150294,27.555495 106.166045,27.1695802 106.166045,24.6832284 L106.166045,24.6832284 L106.166045,24.5600891 L106.164867,24.5612675 L106.164867,22.3200158 C105.324103,24.0021329 103.082851,25.0514677 100.877539,25.0514677 C95.8700738,25.0514677 92.8593492,21.4097282 92.8593492,16.4370245 C92.8593492,11.4666776 96.0810013,7.71947434 100.948241,7.71947434 Z M145.505787,7.68471255 C150.757763,7.68471255 154.330569,10.9747099 154.330569,15.7376644 C154.330569,16.647952 154.294039,17.1039796 154.188576,18.0832015 L141.725,18.0832015 C141.828107,20.2896915 143.299886,21.5499537 145.680774,21.5499537 C147.326362,21.5499537 148.377465,21.0249918 148.832314,19.9744786 L154.084879,19.9744786 C153.559328,23.3004161 150.163278,25.5770188 145.680774,25.5770188 C139.938598,25.5770188 136.402322,22.249903 136.402322,16.6131902 C136.402322,11.0801736 140.0093,7.68471255 145.505787,7.68471255 Z M34.8095149,7.68530174 C40.5870424,7.68530174 44.1574907,11.4660884 44.1574907,16.612601 C44.1574907,21.760292 40.5870424,25.5764297 34.8095149,25.5764297 C28.9978147,25.5764297 25.426188,21.760292 25.426188,16.612601 C25.426188,11.4660884 28.9978147,7.68530174 34.8095149,7.68530174 Z M162.810678,3.16744727 L162.810678,8.17432354 L166.627405,8.17432354 L166.627405,12.411727 L162.810678,12.411727 L162.810678,18.0142671 C162.810678,20.4994406 163.826429,20.8847662 165.156215,20.8847662 C165.821992,20.8847662 166.521941,20.8488261 167.012141,20.7793025 L167.012141,25.0514677 C166.242079,25.1905149 164.981228,25.3313296 163.440515,25.3313296 C160.920579,25.3313296 157.453827,24.772195 157.453827,19.1354822 L157.453827,12.411727 L154.792488,12.411727 L154.792488,8.17432354 L157.453827,8.17432354 L157.453827,3.16744727 L162.810678,3.16744727 Z M71.1679916,8.17432354 L71.1679916,25.0520569 L65.8099623,25.0520569 L65.8099623,8.17432354 L71.1679916,8.17432354 Z M5.63730198,0.541459084 L7.94748813,16.9289922 L11.2044912,0.541459084 L15.1614435,0.541459084 L18.4172682,16.9289922 L20.7292219,0.541459084 L26.3305838,0.541459084 L21.3584693,25.0514677 L16.3510038,25.0514677 L13.1652919,10.1716536 L9.97899076,25.0514677 L4.9715253,25.0514677 L1.15107923e-13,0.541459084 L5.63730198,0.541459084 Z M56.8154961,7.71947434 C60.9114957,7.71947434 62.9789385,10.0302497 62.9789385,14.6170385 L62.9789385,25.0514677 L57.5861474,25.0514677 L57.5861474,16.3675009 C57.5861474,13.5311745 56.7807344,12.2367396 54.6101846,12.2367396 C52.4749857,12.2367396 51.3537707,13.6372274 51.3537707,16.2272754 L51.3537707,25.0514677 L45.9957414,25.0514677 L45.9957414,8.17373436 L51.3537707,8.17373436 L51.3537707,10.6265028 C52.3329926,8.73522566 54.2613883,7.71947434 56.8154961,7.71947434 Z M84.9330716,7.71947434 C89.0296603,7.71947434 91.0965139,10.0302497 91.0965139,14.6170385 L91.0965139,25.0514677 L85.7043121,25.0514677 L85.7043121,16.3675009 C85.7043121,13.5311745 84.8994882,12.2367396 82.72776,12.2367396 C80.5925612,12.2367396 79.4713462,13.6372274 79.4713462,16.2272754 L79.4713462,25.0514677 L74.1133169,25.0514677 L74.1133169,8.17373436 L79.4713462,8.17373436 L79.4713462,10.6265028 C80.4517465,8.73522566 82.3789638,7.71947434 84.9330716,7.71947434 Z M120.636377,0.541459084 L128.702291,16.2231511 L128.702291,0.541459084 L134.129255,0.541459084 L134.129255,25.0514677 L128.315787,25.0514677 L120.251641,9.44342351 L120.251641,25.0514677 L114.822909,25.0514677 L114.822909,0.541459084 L120.636377,0.541459084 Z M34.8095149,12.2007995 C32.2530503,12.2007995 30.7830389,14.0561364 30.7830389,16.612601 C30.7830389,19.1696548 32.2530503,21.0244026 34.8095149,21.0244026 C37.3312177,21.0244026 38.8359908,19.1696548 38.8359908,16.612601 C38.8359908,14.0561364 37.3312177,12.2007995 34.8095149,12.2007995 Z M102.348729,12.0965141 C99.9324899,12.0965141 98.3564256,13.9524402 98.3564256,16.5089048 C98.3564256,19.0630127 99.9324899,20.9189388 102.348729,20.9189388 C104.903426,20.9189388 106.410556,18.9587273 106.410556,16.5089048 C106.410556,14.0567256 104.903426,12.0965141 102.348729,12.0965141 Z M145.470436,11.2569285 C143.159661,11.2569285 141.759173,12.6909996 141.725,14.7566749 L149.042063,14.7566749 C149.008479,12.5160123 147.747039,11.2569285 145.470436,11.2569285 Z M68.5090091,2.84217094e-14 C70.3107304,2.84217094e-14 71.6210732,1.37574207 71.6210732,3.07965901 C71.6210732,4.75058172 70.3107304,6.12632379 68.5090091,6.12632379 C66.7055203,6.12632379 65.4287609,4.75058172 65.4287609,3.07965901 C65.4287609,1.37574207 66.7055203,2.84217094e-14 68.5090091,2.84217094e-14 Z" id="logo-woningnet"></path>
                    </g>
                </g>
            </g>
        </g>
    </g>
</svg>