<svg xmlns="http://www.w3.org/2000/svg" width="50.949" height="64.733" viewBox="0 0 50.949 64.733">
  <path id="Icon_simple-sitepoint" data-name="Icon simple-sitepoint" d="M4.221,28.41l4.5,4.553L22.949,46.829l6.1-6.179a2.274,2.274,0,0,0-.117-2.657l-5.6-5.13.025-.013L17.33,26.738a2.221,2.221,0,0,1,.053-2.91L33.624,7.439,26.269,0,4.231,22.22a4.417,4.417,0,0,0,0,6.19Zm48.431,7.922-4.5-4.561L33.934,17.9l-6.128,6.179a2.184,2.184,0,0,0,.114,2.657l5.6,5.1h-.015l6.021,6.109c.686.847-.074,2.87-.074,2.87L23.214,57.2l7.4,7.531,22.035-22.22a4.412,4.412,0,0,0,0-6.19l.005.008Z" transform="translate(-2.965)" fill="#3aa935"/>
</svg>
