<svg xmlns="http://www.w3.org/2000/svg" width="56.289" height="43.904" viewBox="0 0 56.289 43.904">
  <path id="Icon_material-group" data-name="Icon material-group" d="M39.879,26.316c4.247,0,7.65-4.2,7.65-9.408S44.126,7.5,39.879,7.5,32.2,11.7,32.2,16.908,35.632,26.316,39.879,26.316Zm-20.469,0c4.247,0,7.65-4.2,7.65-9.408S23.657,7.5,19.41,7.5s-7.676,4.2-7.676,9.408S15.163,26.316,19.41,26.316Zm0,6.272c-5.962,0-17.91,3.669-17.91,10.976V51.4H37.32v-7.84C37.32,36.257,25.372,32.588,19.41,32.588Zm20.469,0a24.437,24.437,0,0,0-2.482.157,14.07,14.07,0,0,1,5.04,10.819V51.4H57.789v-7.84C57.789,36.257,45.84,32.588,39.879,32.588Z" transform="translate(-1.5 -7.5)" fill="#3aa935"/>
</svg>
