<svg xmlns="http://www.w3.org/2000/svg" width="232" height="232" viewBox="0 0 232 232">
  <g id="Group_11575" data-name="Group 11575" transform="translate(-3490.918 8067.72)">
    <g id="Ellipse_48" data-name="Ellipse 48" transform="translate(3490.918 -8067.72)" fill="none" stroke="#93c01f" stroke-width="1" opacity="0.38">
      <circle cx="116" cy="116" r="116" stroke="none"/>
      <circle cx="116" cy="116" r="115.5" fill="none"/>
    </g>
    <g id="Ellipse_49" data-name="Ellipse 49" transform="translate(3509.918 -8049.72)" fill="none" stroke="#93c01f" stroke-width="1" opacity="0.38">
      <circle cx="97.5" cy="97.5" r="97.5" stroke="none"/>
      <circle cx="97.5" cy="97.5" r="97" fill="none"/>
    </g>
    <g id="Ellipse_50" data-name="Ellipse 50" transform="translate(3534.918 -8022.72)" fill="none" stroke="#93c01f" stroke-width="1" opacity="0.38">
      <circle cx="72.5" cy="72.5" r="72.5" stroke="none"/>
      <circle cx="72.5" cy="72.5" r="72" fill="none"/>
    </g>
    <path id="Icon_metro-profile" data-name="Icon metro-profile" d="M58.679,13.957H54.6V7.841l-8.423-.129.044,6.245H20.909l.173-6.245-8.248.129v6.245l-4.168-.129A4.167,4.167,0,0,0,4.5,18.12V47.262a4.167,4.167,0,0,0,4.168,4.163H58.679a4.167,4.167,0,0,0,4.168-4.163V18.12A4.167,4.167,0,0,0,58.679,13.957ZM48.259,9.794h4.168V18.12H48.259Zm-27.09,14.18c2.517,0,4.559,2.679,4.559,5.985s-2.042,5.985-4.559,5.985-4.559-2.679-4.559-5.985,2.042-5.985,4.559-5.985ZM14.918,9.794h4.168V18.12H14.918Zm-2.778,33.2s.494-3.959,1.617-4.706a16,16,0,0,1,4.355-1.245s2.1,2.238,2.988,2.238,2.986-2.238,2.986-2.238a15.946,15.946,0,0,1,4.357,1.245c1.319.878,1.648,4.706,1.648,4.706H12.14Zm42.371-1.973H35.756V38.936H54.511Zm0-4.163H35.756V34.772H54.511Zm0-4.163H35.756V30.609H54.511Zm0-4.163H35.756V26.446H54.511Z" transform="translate(3575.115 -7980.265)" fill="#3aa935"/>
  </g>
</svg>
