<svg xmlns="http://www.w3.org/2000/svg" width="66.034" height="61.388" viewBox="0 0 66.034 61.388">
  <g id="Group_11484" data-name="Group 11484" transform="translate(-6850.159 8584.775)">
    <g id="Layer_2" data-name="Layer 2" transform="translate(6846.442 -8590.335)">
      <path id="Path_5953" data-name="Path 5953" d="M64.544,32.27a2.208,2.208,0,0,1-2,1.151H56V51.989c0,3.076-2.926,5.57-6.536,5.57H40.752A2.037,2.037,0,0,1,38.573,55.7V44.562a2.037,2.037,0,0,0-2.179-1.857H32.037a2.037,2.037,0,0,0-2.179,1.857V55.7a2.037,2.037,0,0,1-2.179,1.857H18.964c-3.61,0-6.536-2.494-6.536-5.57V33.422H5.892a2.208,2.208,0,0,1-2-1.151,1.66,1.66,0,0,1,.458-2.024L32.669,6.109a2.453,2.453,0,0,1,3.094,0L64.086,30.247a1.66,1.66,0,0,1,.458,2.024Z" transform="translate(0)" fill="#3aa935"/>
    </g>
    <path id="Icon_awesome-plus-circle" data-name="Icon awesome-plus-circle" d="M12.1.562A11.634,11.634,0,1,0,23.633,12.2,11.583,11.583,0,0,0,12.1.562ZM18.8,13.51a.562.562,0,0,1-.558.563H13.958v4.316a.562.562,0,0,1-.558.563H10.8a.562.562,0,0,1-.558-.563V14.073H5.958A.562.562,0,0,1,5.4,13.51V10.883a.562.562,0,0,1,.558-.563h4.279V6a.562.562,0,0,1,.558-.563h2.6A.562.562,0,0,1,13.958,6V10.32h4.279a.562.562,0,0,1,.558.563Z" transform="translate(6892.561 -8547.218)" fill="#93c01f"/>
  </g>
</svg>
