<svg xmlns="http://www.w3.org/2000/svg" width="232" height="232" viewBox="0 0 232 232">
  <g id="Group_11575" data-name="Group 11575" transform="translate(-3497.801 7594.519)">
    <g id="Ellipse_57" data-name="Ellipse 57" transform="translate(3497.801 -7594.519)" fill="none" stroke="#93c01f" stroke-width="1" opacity="0.38">
      <circle cx="116" cy="116" r="116" stroke="none"/>
      <circle cx="116" cy="116" r="115.5" fill="none"/>
    </g>
    <g id="Ellipse_58" data-name="Ellipse 58" transform="translate(3516.301 -7576.019)" fill="none" stroke="#93c01f" stroke-width="1" opacity="0.38">
      <circle cx="97.5" cy="97.5" r="97.5" stroke="none"/>
      <circle cx="97.5" cy="97.5" r="97" fill="none"/>
    </g>
    <g id="Ellipse_59" data-name="Ellipse 59" transform="translate(3540.801 -7551.019)" fill="none" stroke="#93c01f" stroke-width="1" opacity="0.38">
      <circle cx="72.5" cy="72.5" r="72.5" stroke="none"/>
      <circle cx="72.5" cy="72.5" r="72" fill="none"/>
    </g>
    <path id="Icon_awesome-euro-sign" data-name="Icon awesome-euro-sign" d="M38.166,41.795a1.489,1.489,0,0,0-1.772-.97,30.379,30.379,0,0,1-5.58.561c-6.973,0-12.521-3.6-14.92-8.851H29.859a1.442,1.442,0,0,0,1.438-.97l.783-2.938a1.314,1.314,0,0,0-1.438-1.516H14.153a18.875,18.875,0,0,1,.017-4.376H32.177a1.44,1.44,0,0,0,1.44-.977l.8-3.082a1.316,1.316,0,0,0-1.44-1.509H15.991c2.534-4.66,7.7-7.772,14.448-7.772a28.358,28.358,0,0,1,4.649.429,1.508,1.508,0,0,0,1.72-.893l1.473-4.6a1.254,1.254,0,0,0-1.146-1.545,42.2,42.2,0,0,0-6.472-.539C18.726,2.25,9.094,8.491,5.537,17.166H1.474A1.373,1.373,0,0,0,0,18.409v3.082a1.373,1.373,0,0,0,1.474,1.243H4.123A25.945,25.945,0,0,0,4.1,27.11H1.474A1.373,1.373,0,0,0,0,28.353v2.938a1.373,1.373,0,0,0,1.474,1.243h3.7S17.844,48.656,30.664,48.656a36.015,36.015,0,0,0,7.505-.807A1.254,1.254,0,0,0,39.249,46.4l-1.083-4.608Z" transform="translate(3592.162 -7503.972)" fill="#3aa935"/>
  </g>
</svg>
