<svg xmlns="http://www.w3.org/2000/svg" width="232" height="232" viewBox="0 0 232 232">
  <g id="Group_11575" data-name="Group 11575" transform="translate(-3123.434 8095.775)">
    <g id="Ellipse_54" data-name="Ellipse 54" transform="translate(3123.434 -8095.775)" fill="none" stroke="#93c01f" stroke-width="1" opacity="0.2">
      <circle cx="116" cy="116" r="116" stroke="none"/>
      <circle cx="116" cy="116" r="115.5" fill="none"/>
    </g>
    <g id="Ellipse_55" data-name="Ellipse 55" transform="translate(3143.434 -8077.775)" fill="none" stroke="#93c01f" stroke-width="1" opacity="0.38">
      <circle cx="97.5" cy="97.5" r="97.5" stroke="none"/>
      <circle cx="97.5" cy="97.5" r="97" fill="none"/>
    </g>
    <g id="Ellipse_56" data-name="Ellipse 56" transform="translate(3168.434 -8053.813)" fill="none" stroke="#93c01f" stroke-width="1" opacity="0.38">
      <circle cx="72.5" cy="72.5" r="72.5" stroke="none"/>
      <circle cx="72.5" cy="72.5" r="72" fill="none"/>
    </g>
    <g id="Layer_2" data-name="Layer 2" transform="translate(3206.717 -8012.872)">
      <path id="Path_5955" data-name="Path 5955" d="M64.546,32.27a2.208,2.208,0,0,1-2,1.151H56.005V51.989c0,3.076-2.927,5.57-6.537,5.57H40.753A2.037,2.037,0,0,1,38.575,55.7V44.562A2.037,2.037,0,0,0,36.4,42.705H32.038a2.037,2.037,0,0,0-2.179,1.857V55.7A2.037,2.037,0,0,1,27.68,57.56H18.965c-3.61,0-6.537-2.494-6.537-5.57V33.422H5.892a2.208,2.208,0,0,1-2-1.151,1.66,1.66,0,0,1,.458-2.024L32.67,6.109a2.453,2.453,0,0,1,3.094,0L64.089,30.247a1.66,1.66,0,0,1,.458,2.024Z" transform="translate(0)" fill="#3aa935"/>
    </g>
  </g>
</svg>
