<svg xmlns="http://www.w3.org/2000/svg" width="232" height="232" viewBox="0 0 232 232">
  <g id="Group_11575" data-name="Group 11575" transform="translate(-3626.577 6935.252)">
    <g id="Ellipse_51" data-name="Ellipse 51" transform="translate(3626.577 -6935.252)" fill="none" stroke="#93c01f" stroke-width="1" opacity="0.32">
      <circle cx="116" cy="116" r="116" stroke="none"/>
      <circle cx="116" cy="116" r="115.5" fill="none"/>
    </g>
    <g id="Ellipse_52" data-name="Ellipse 52" transform="translate(3646.577 -6914.252)" fill="none" stroke="#93c01f" stroke-width="1" opacity="0.38">
      <circle cx="97.5" cy="97.5" r="97.5" stroke="none"/>
      <circle cx="97.5" cy="97.5" r="97" fill="none"/>
    </g>
    <g id="Ellipse_53" data-name="Ellipse 53" transform="translate(3671.577 -6889.252)" fill="none" stroke="#93c01f" stroke-width="1" opacity="0.38">
      <circle cx="72.5" cy="72.5" r="72.5" stroke="none"/>
      <circle cx="72.5" cy="72.5" r="72" fill="none"/>
    </g>
    <g id="Layer_2" data-name="Layer 2" transform="translate(3708.362 -6850.812)">
      <path id="Path_5953" data-name="Path 5953" d="M64.544,32.27a2.208,2.208,0,0,1-2,1.151H56V51.989c0,3.076-2.926,5.57-6.536,5.57H40.752A2.037,2.037,0,0,1,38.573,55.7V44.562a2.037,2.037,0,0,0-2.179-1.857H32.037a2.037,2.037,0,0,0-2.179,1.857V55.7a2.037,2.037,0,0,1-2.179,1.857H18.964c-3.61,0-6.536-2.494-6.536-5.57V33.422H5.892a2.208,2.208,0,0,1-2-1.151,1.66,1.66,0,0,1,.458-2.024L32.669,6.109a2.453,2.453,0,0,1,3.094,0L64.086,30.247a1.66,1.66,0,0,1,.458,2.024Z" transform="translate(0)" fill="#3aa935"/>
    </g>
    <path id="Icon_awesome-check-circle" data-name="Icon awesome-check-circle" d="M20.273,10.405A9.855,9.855,0,1,1,10.418.563,9.849,9.849,0,0,1,20.273,10.405Zm-11,5.212,7.312-7.3a.634.634,0,0,0,0-.9l-.9-.9a.636.636,0,0,0-.9,0L8.828,12.474,6.044,9.693a.636.636,0,0,0-.9,0l-.9.9a.634.634,0,0,0,0,.9l4.133,4.128a.636.636,0,0,0,.9,0Z" transform="translate(3754.749 -6809.581)" fill="#93c01f"/>
  </g>
</svg>
